{"glyphs":{"0":{"ha":725,"x_min":83,"x_max":642,"o":"m 481 1042 q 603 995 565 1042 q 642 857 642 949 l 642 189 q 608 44 642 89 q 488 0 575 0 l 249 0 q 92 100 115 0 q 83 168 83 131 l 83 857 q 114 992 83 950 q 238 1042 149 1042 l 481 1042 m 194 94 l 531 94 l 531 947 l 194 947 l 194 94 z "},"1":{"ha":486,"x_min":42,"x_max":375,"o":"m 81 94 l 175 94 l 175 946 l 42 946 l 42 1042 l 161 1042 q 260 1011 232 1042 q 289 922 289 981 l 289 94 l 375 94 l 375 0 l 81 0 l 81 94 z "},"2":{"ha":729,"x_min":69,"x_max":660,"o":"m 69 251 q 144 413 69 365 l 544 661 l 544 947 l 179 947 l 179 778 l 71 778 l 71 1042 l 475 1042 q 619 1006 578 1042 q 658 881 658 972 l 658 718 q 590 581 658 622 l 178 319 l 178 94 l 543 94 l 543 222 l 660 222 l 660 0 l 69 0 l 69 251 z "},"3":{"ha":714,"x_min":69,"x_max":644,"o":"m 644 947 l 304 608 l 483 608 q 610 571 575 608 q 643 446 643 535 l 643 186 q 638 105 643 140 q 611 47 632 69 q 451 0 571 0 l 240 0 q 74 117 88 0 q 69 190 69 151 l 69 264 l 171 264 l 171 86 l 531 86 l 531 518 l 171 518 l 171 608 l 515 947 l 171 947 l 171 850 l 69 850 l 69 1042 l 644 1042 l 644 947 z "},"4":{"ha":721,"x_min":14,"x_max":665,"o":"m 301 94 l 454 94 l 454 268 l 14 268 l 453 1042 l 565 1042 l 565 363 l 665 363 l 665 268 l 565 268 l 565 94 l 665 94 l 665 0 l 301 0 l 301 94 m 454 835 l 185 363 l 454 363 l 454 835 z "},"5":{"ha":719,"x_min":69,"x_max":650,"o":"m 519 635 q 626 600 599 635 q 650 500 650 569 l 650 168 q 627 58 650 89 q 572 14 604 28 q 485 0 539 0 l 226 0 q 75 100 93 0 q 69 167 69 131 l 69 264 l 178 264 l 178 94 l 538 94 l 538 540 l 85 540 l 85 1042 l 608 1042 l 608 947 l 193 947 l 193 635 l 519 635 z "},"6":{"ha":729,"x_min":69,"x_max":660,"o":"m 538 954 l 183 954 l 183 615 l 486 615 q 651 522 625 615 q 660 458 660 493 l 660 176 q 614 42 660 85 q 464 0 568 0 l 260 0 q 111 41 153 0 q 69 172 69 82 l 69 876 q 160 1028 69 992 q 236 1042 192 1042 l 492 1042 q 625 942 606 1042 q 632 879 632 913 l 632 849 l 538 849 l 538 954 m 546 519 l 183 519 l 183 94 l 546 94 l 546 519 z "},"7":{"ha":632,"x_min":42,"x_max":618,"o":"m 168 0 l 42 0 l 517 947 l 142 947 l 142 740 l 42 740 l 42 1042 l 618 1042 l 618 900 l 168 0 z "},"8":{"ha":729,"x_min":69,"x_max":660,"o":"m 632 697 q 606 607 632 643 q 549 568 581 571 q 621 529 588 565 q 660 422 660 488 l 660 186 q 614 47 660 94 q 464 0 568 0 l 260 0 q 111 48 153 0 q 69 186 69 96 l 69 418 q 111 528 69 485 q 183 568 143 564 q 125 608 153 571 q 97 697 97 644 l 97 876 q 182 1028 97 992 q 257 1042 213 1042 l 475 1042 q 597 993 556 1042 q 632 876 632 951 l 632 697 m 546 511 l 183 511 l 183 94 l 546 94 l 546 511 m 204 615 l 525 615 l 525 954 l 204 954 l 204 615 z "},"9":{"ha":729,"x_min":69,"x_max":660,"o":"m 183 90 l 546 90 l 546 472 l 243 472 q 78 565 101 472 q 69 629 69 594 l 69 865 q 115 999 69 957 q 265 1042 161 1042 l 469 1042 q 618 1001 576 1042 q 660 869 660 960 l 660 165 q 621 48 660 96 q 493 0 582 0 l 229 0 q 107 47 150 0 q 69 163 69 89 l 69 193 l 183 193 l 183 90 m 183 568 l 546 568 l 546 947 l 183 947 l 183 568 z "},"\r":{"ha":694,"x_min":0,"x_max":0,"o":""},"\u0000":{"ha":0,"x_min":0,"x_max":0,"o":""}," ":{"ha":486,"x_min":0,"x_max":0,"o":""},"!":{"ha":418,"x_min":139,"x_max":279,"o":"m 151 268 l 151 1010 l 265 1010 l 265 268 l 151 268 m 210 138 q 225 138 210 138 q 259 115 239 138 q 279 64 279 93 q 259 15 279 35 q 210 -6 239 -6 q 160 15 181 -6 q 139 64 139 35 q 160 115 139 93 q 210 138 182 138 z "},"\"":{"ha":453,"x_min":56,"x_max":397,"o":"m 283 708 l 283 1042 l 397 1042 l 397 708 l 283 708 m 56 708 l 56 1042 l 169 1042 l 169 708 l 56 708 z "},"#":{"ha":1065,"x_min":28,"x_max":1038,"o":"m 729 588 l 692 446 l 971 446 l 946 344 l 664 344 l 576 0 l 464 0 l 553 344 l 372 344 l 282 0 l 172 0 l 265 344 l 28 344 l 56 446 l 290 446 l 326 588 l 93 588 l 121 694 l 354 694 l 443 1042 l 551 1042 l 463 694 l 644 694 l 733 1042 l 844 1042 l 757 694 l 1038 694 l 1010 588 l 729 588 m 438 588 l 397 446 l 579 446 l 617 588 l 438 588 z "},"$":{"ha":808,"x_min":111,"x_max":697,"o":"m 356 -208 l 356 0 l 111 0 l 111 257 l 211 257 l 211 94 l 356 94 l 356 507 l 222 589 q 142 647 174 617 q 111 728 111 676 l 111 903 q 150 1015 111 985 q 265 1042 183 1042 l 356 1042 l 356 1250 l 453 1250 l 453 1042 l 685 1042 l 685 785 l 585 785 l 585 947 l 453 947 l 453 581 l 567 510 q 619 476 594 490 q 661 444 643 461 q 697 363 697 411 l 697 126 q 653 31 697 64 q 554 0 615 0 l 453 0 l 453 -208 l 356 -208 m 453 447 l 453 94 l 586 94 l 586 365 l 453 447 m 356 642 l 356 947 l 222 947 l 222 725 l 356 642 z "},"%":{"ha":1146,"x_min":83,"x_max":1063,"o":"m 461 610 q 457 526 461 560 q 436 472 453 492 q 306 435 407 435 l 250 435 q 117 464 150 435 q 83 593 83 494 l 83 892 q 117 1021 83 988 q 242 1053 150 1053 l 292 1053 q 432 1017 399 1053 q 461 875 461 983 l 461 610 m 364 524 l 364 961 l 183 961 l 183 524 l 364 524 m 889 615 q 1032 581 1000 615 q 1063 438 1063 546 l 1063 171 q 1058 88 1063 121 q 1036 36 1053 56 q 903 0 1007 0 l 850 0 q 717 31 750 0 q 682 160 682 61 l 682 460 q 717 583 682 549 q 842 615 750 615 l 889 615 m 964 529 l 783 529 l 783 92 l 964 92 l 964 529 m 738 1208 l 844 1208 l 383 -210 l 275 -210 l 738 1208 z "},"&":{"ha":1008,"x_min":83,"x_max":953,"o":"m 876 -8 l 676 224 l 676 172 q 649 40 676 75 q 515 -1 615 -1 l 250 -1 q 106 39 133 -1 q 86 99 89 61 q 83 194 83 136 l 83 381 l 353 611 l 225 764 l 225 876 q 244 1003 225 976 q 294 1040 264 1029 q 376 1050 324 1050 l 467 1050 q 617 1010 585 1050 q 638 950 633 988 q 643 854 643 913 l 643 726 l 493 606 l 611 464 l 776 600 l 843 525 l 676 388 l 953 56 l 876 -8 m 432 681 l 550 776 l 550 857 q 540 935 550 922 q 514 952 531 949 q 467 956 497 956 l 407 956 q 338 943 350 956 q 323 913 325 931 q 321 869 321 896 l 321 793 l 432 681 m 500 93 q 567 106 557 93 q 579 135 578 118 q 581 179 581 151 l 581 338 l 414 542 l 176 331 l 176 192 q 188 114 176 128 q 217 97 199 100 q 265 93 235 93 l 500 93 z "},"'":{"ha":281,"x_min":83,"x_max":197,"o":"m 83 710 l 83 1042 l 197 1042 l 197 710 l 83 710 z "},"(":{"ha":379,"x_min":111,"x_max":365,"o":"m 365 -210 q 111 169 111 -210 l 111 875 q 161 1108 111 1026 q 365 1208 222 1208 l 365 1138 q 247 1067 286 1138 q 208 872 208 996 l 208 176 q 294 -118 208 -47 q 365 -143 324 -143 l 365 -210 z "},")":{"ha":379,"x_min":14,"x_max":268,"o":"m 14 1208 q 219 1088 156 1208 q 268 829 268 993 l 268 124 q 218 -110 268 -28 q 14 -210 157 -210 l 14 -139 q 132 -68 93 -139 q 171 126 171 3 l 171 822 q 86 1117 171 1046 q 14 1142 56 1142 l 14 1208 z "},"*":{"ha":565,"x_min":56,"x_max":510,"o":"m 364 822 l 507 740 l 467 671 l 322 747 l 322 582 l 242 582 l 242 749 l 96 669 l 56 747 l 196 822 l 58 906 l 96 976 l 242 893 l 242 1057 l 322 1057 l 322 893 l 469 974 l 510 904 l 364 822 z "},"+":{"ha":839,"x_min":111,"x_max":728,"o":"m 728 583 l 728 492 l 468 492 l 468 232 l 371 232 l 371 492 l 111 492 l 111 583 l 371 583 l 371 846 l 468 846 l 468 583 l 728 583 z "},",":{"ha":321,"x_min":28,"x_max":238,"o":"m 129 -208 l 28 -208 l 135 136 l 238 136 l 129 -208 z "},"-":{"ha":626,"x_min":111,"x_max":515,"o":"m 515 583 l 515 492 l 111 492 l 111 583 l 515 583 z "},".":{"ha":307,"x_min":83,"x_max":224,"o":"m 155 138 q 169 138 155 138 q 203 115 183 138 q 224 64 224 93 q 203 15 224 35 q 154 -6 183 -6 q 104 15 125 -6 q 83 64 83 35 q 105 115 83 93 q 155 138 126 138 z "},"/":{"ha":582,"x_min":7,"x_max":575,"o":"m 468 1208 l 575 1208 l 115 -208 l 7 -208 l 468 1208 z "},":":{"ha":307,"x_min":83,"x_max":224,"o":"m 155 138 q 169 138 155 138 q 203 115 183 138 q 224 64 224 93 q 203 15 224 35 q 154 -6 183 -6 q 104 15 125 -6 q 83 64 83 35 q 105 115 83 93 q 155 138 126 138 m 155 636 q 169 636 155 636 q 203 615 183 636 q 224 563 224 593 q 203 512 224 532 q 154 492 183 492 q 104 512 125 492 q 83 563 83 532 q 105 615 83 593 q 155 636 126 636 z "},";":{"ha":336,"x_min":28,"x_max":253,"o":"m 129 -208 l 28 -208 l 135 136 l 238 136 l 129 -208 m 181 636 q 195 636 181 636 q 231 615 210 636 q 253 563 253 593 q 231 512 253 532 q 181 492 210 492 q 131 512 151 492 q 110 563 110 532 q 131 615 110 593 q 181 636 153 636 z "},"<":{"ha":751,"x_min":83,"x_max":710,"o":"m 83 474 l 83 579 l 710 881 l 710 785 l 185 526 l 710 267 l 710 171 l 83 474 z "},"=":{"ha":783,"x_min":111,"x_max":672,"o":"m 111 593 l 111 683 l 672 683 l 672 593 l 111 593 m 111 381 l 111 469 l 672 469 l 672 381 l 111 381 z "},">":{"ha":751,"x_min":42,"x_max":668,"o":"m 42 881 l 668 579 l 668 474 l 42 171 l 42 267 l 567 526 l 42 785 l 42 881 z "},"?":{"ha":668,"x_min":28,"x_max":557,"o":"m 557 625 q 426 483 557 483 l 247 483 l 247 269 l 136 269 l 136 457 q 168 551 136 522 q 268 579 200 579 l 438 579 l 438 947 l 129 947 l 129 789 l 28 789 l 28 1042 l 401 1042 q 517 1011 478 1042 q 557 893 557 981 l 557 625 m 192 138 q 242 115 221 138 q 263 64 263 93 q 242 15 263 35 q 192 -6 221 -6 q 142 15 163 -6 q 121 64 121 35 q 142 115 121 93 q 192 138 163 138 z "},"A":{"ha":890,"x_min":35,"x_max":856,"o":"m 568 458 l 444 947 l 321 458 l 568 458 m 856 94 l 856 0 l 585 0 l 585 94 l 660 94 l 590 371 l 299 371 l 229 94 l 306 94 l 306 0 l 35 0 l 35 94 l 122 94 l 364 1042 l 528 1042 l 765 94 l 856 94 z "},"B":{"ha":774,"x_min":83,"x_max":690,"o":"m 517 661 q 588 683 546 683 q 660 654 631 683 q 690 564 690 625 l 690 122 q 672 42 690 64 q 567 0 636 0 l 83 0 l 83 94 l 171 94 l 171 949 l 85 949 l 85 1042 l 375 1042 q 517 918 517 1042 l 517 661 m 404 590 l 404 949 l 285 949 l 285 515 l 404 590 m 579 589 l 285 404 l 285 96 l 579 96 l 579 589 z "},"C":{"ha":729,"x_min":83,"x_max":660,"o":"m 565 257 l 660 257 l 660 0 l 233 0 q 92 92 117 0 q 83 149 83 118 l 83 892 q 154 1028 83 993 q 219 1042 181 1042 l 660 1042 l 660 785 l 565 785 l 565 947 l 197 947 l 197 94 l 565 94 l 565 257 z "},"D":{"ha":839,"x_min":83,"x_max":756,"o":"m 574 1042 q 716 997 676 1042 q 756 860 756 951 l 756 182 q 711 43 756 86 q 574 0 667 0 l 83 0 l 83 94 l 171 94 l 171 947 l 83 947 l 83 1042 l 574 1042 m 642 947 l 285 947 l 285 94 l 642 94 l 642 947 z "},"E":{"ha":811,"x_min":90,"x_max":742,"o":"m 582 685 l 582 393 l 488 393 l 488 492 l 292 492 l 292 94 l 647 94 l 647 257 l 742 257 l 742 0 l 90 0 l 90 94 l 178 94 l 178 947 l 90 947 l 90 1042 l 742 1042 l 742 785 l 647 785 l 647 947 l 292 947 l 292 586 l 488 586 l 488 685 l 582 685 z "},"F":{"ha":811,"x_min":90,"x_max":742,"o":"m 488 492 l 292 492 l 292 94 l 382 94 l 382 0 l 90 0 l 90 94 l 178 94 l 178 947 l 90 947 l 90 1042 l 742 1042 l 742 785 l 647 785 l 647 947 l 292 947 l 292 586 l 488 586 l 488 685 l 582 685 l 582 393 l 488 393 l 488 492 z "},"G":{"ha":753,"x_min":83,"x_max":669,"o":"m 83 882 q 232 1042 83 1042 l 669 1042 l 669 785 l 558 785 l 558 947 l 197 947 l 197 94 l 558 94 l 558 419 l 365 299 l 365 400 l 669 590 l 669 0 l 257 0 q 122 36 158 0 q 83 172 83 74 l 83 882 z "},"H":{"ha":969,"x_min":90,"x_max":879,"o":"m 792 947 l 792 94 l 879 94 l 879 0 l 593 0 l 593 94 l 678 94 l 678 492 l 292 492 l 292 94 l 376 94 l 376 0 l 90 0 l 90 94 l 178 94 l 178 947 l 90 947 l 90 1042 l 376 1042 l 376 947 l 292 947 l 292 585 l 678 585 l 678 947 l 593 947 l 593 1042 l 879 1042 l 879 947 l 792 947 z "},"I":{"ha":514,"x_min":111,"x_max":403,"o":"m 313 94 l 403 94 l 403 0 l 111 0 l 111 94 l 199 94 l 199 947 l 111 947 l 111 1042 l 403 1042 l 403 947 l 313 947 l 313 94 z "},"J":{"ha":564,"x_min":28,"x_max":474,"o":"m 474 947 l 383 947 l 383 163 q 307 14 383 53 q 235 0 278 0 l 28 0 l 28 94 l 269 94 l 269 947 l 181 947 l 181 1042 l 474 1042 l 474 947 z "},"K":{"ha":840,"x_min":90,"x_max":799,"o":"m 799 94 l 799 0 l 640 0 l 292 518 l 292 94 l 382 94 l 382 0 l 90 0 l 90 94 l 178 94 l 178 947 l 90 947 l 90 1042 l 382 1042 l 382 947 l 286 947 l 286 560 l 640 1042 l 790 1042 l 790 947 l 697 947 l 408 542 l 710 94 l 799 94 z "},"L":{"ha":733,"x_min":90,"x_max":678,"o":"m 90 94 l 178 94 l 178 947 l 90 947 l 90 1042 l 382 1042 l 382 947 l 292 947 l 292 94 l 583 94 l 583 257 l 678 257 l 678 0 l 90 0 l 90 94 z "},"M":{"ha":1194,"x_min":90,"x_max":1104,"o":"m 90 947 l 90 1042 l 304 1042 l 599 435 l 890 1042 l 1104 1042 l 1104 947 l 1017 947 l 1017 94 l 1104 94 l 1104 0 l 813 0 l 813 94 l 903 94 l 903 810 l 640 269 l 553 269 l 292 814 l 292 94 l 382 94 l 382 0 l 90 0 l 90 94 l 178 94 l 178 947 l 90 947 z "},"N":{"ha":999,"x_min":90,"x_max":908,"o":"m 908 947 l 821 947 l 821 0 l 685 0 l 292 811 l 292 94 l 382 94 l 382 0 l 90 0 l 90 94 l 178 94 l 178 947 l 90 947 l 90 1042 l 304 1042 l 707 214 l 707 947 l 617 947 l 617 1042 l 908 1042 l 908 947 z "},"O":{"ha":753,"x_min":83,"x_max":669,"o":"m 508 1042 q 631 995 593 1042 q 669 857 669 949 l 669 189 q 636 44 669 89 q 515 0 603 0 l 249 0 q 92 100 115 0 q 83 168 83 131 l 83 857 q 114 992 83 950 q 238 1042 149 1042 l 508 1042 m 194 94 l 558 94 l 558 947 l 194 947 l 194 94 z "},"P":{"ha":825,"x_min":90,"x_max":742,"o":"m 586 1042 q 710 1007 678 1042 q 742 869 742 972 l 742 768 q 708 653 742 689 q 665 618 692 635 q 599 578 638 601 l 292 386 l 292 94 l 382 94 l 382 0 l 90 0 l 90 94 l 178 94 l 178 946 l 90 946 l 90 1042 l 586 1042 m 640 946 l 292 946 l 292 497 l 640 713 l 640 946 z "},"Q":{"ha":753,"x_min":83,"x_max":669,"o":"m 508 1042 q 631 995 593 1042 q 669 857 669 949 l 669 189 q 636 44 669 89 q 515 0 603 0 l 432 0 l 432 -83 l 321 -83 l 321 0 l 249 0 q 92 100 115 0 q 83 168 83 131 l 83 857 q 114 992 83 950 q 238 1042 149 1042 l 508 1042 m 321 164 l 432 164 l 432 94 l 558 94 l 558 947 l 194 947 l 194 94 l 321 94 l 321 164 z "},"R":{"ha":897,"x_min":90,"x_max":876,"o":"m 876 94 l 876 0 l 601 0 l 601 94 l 676 94 l 439 476 l 292 386 l 292 94 l 382 94 l 382 0 l 90 0 l 90 94 l 178 94 l 178 947 l 90 947 l 90 1042 l 586 1042 q 710 1006 678 1042 q 742 868 742 971 l 742 782 q 732 699 742 729 q 697 644 722 668 q 631 594 672 619 q 525 531 589 569 l 799 94 l 876 94 m 292 497 l 640 713 l 640 947 l 292 947 l 292 497 z "},"S":{"ha":753,"x_min":83,"x_max":669,"o":"m 539 510 q 591 476 567 490 q 633 444 615 461 q 669 363 669 411 l 669 126 q 625 31 669 64 q 526 0 588 0 l 83 0 l 83 257 l 183 257 l 183 94 l 558 94 l 558 365 l 194 589 q 115 647 146 617 q 83 728 83 676 l 83 903 q 122 1015 83 985 q 238 1042 156 1042 l 657 1042 l 657 785 l 557 785 l 557 947 l 194 947 l 194 725 l 539 510 z "},"T":{"ha":735,"x_min":35,"x_max":700,"o":"m 222 94 l 310 94 l 310 947 l 135 947 l 135 783 l 35 783 l 35 1042 l 700 1042 l 700 783 l 599 783 l 599 947 l 424 947 l 424 94 l 514 94 l 514 0 l 222 0 l 222 94 z "},"U":{"ha":947,"x_min":83,"x_max":864,"o":"m 294 0 q 171 138 171 0 l 171 947 l 83 947 l 83 1042 l 375 1042 l 375 947 l 285 947 l 285 94 l 663 94 l 663 947 l 572 947 l 572 1042 l 864 1042 l 864 947 l 776 947 l 776 144 q 651 0 776 0 l 294 0 z "},"V":{"ha":889,"x_min":35,"x_max":854,"o":"m 35 1042 l 289 1042 l 289 947 l 217 947 l 446 94 l 674 947 l 586 947 l 586 1042 l 854 1042 l 854 947 l 779 947 l 525 0 l 365 0 l 113 947 l 35 947 l 35 1042 z "},"W":{"ha":1161,"x_min":35,"x_max":1126,"o":"m 1126 1042 l 1126 947 l 1060 947 l 911 0 l 731 0 l 581 946 l 431 0 l 250 0 l 101 947 l 35 947 l 35 1042 l 264 1042 l 264 947 l 208 947 l 340 94 l 486 1042 l 675 1042 l 821 94 l 953 947 l 897 947 l 897 1042 l 1126 1042 z "},"X":{"ha":819,"x_min":35,"x_max":785,"o":"m 785 94 l 785 0 l 640 0 l 411 433 l 182 0 l 35 0 l 35 94 l 114 94 l 351 547 l 142 947 l 58 947 l 58 1042 l 211 1042 l 410 658 l 611 1042 l 761 1042 l 761 947 l 679 947 l 468 547 l 708 94 l 785 94 z "},"Y":{"ha":772,"x_min":35,"x_max":738,"o":"m 738 1042 l 738 947 l 685 947 l 442 513 l 442 94 l 532 94 l 532 0 l 240 0 l 240 94 l 328 94 l 328 513 l 97 947 l 35 947 l 35 1042 l 260 1042 l 260 947 l 210 947 l 386 608 l 567 947 l 517 947 l 517 1042 l 738 1042 z "},"Z":{"ha":724,"x_min":42,"x_max":682,"o":"m 161 94 l 571 94 l 571 253 l 668 253 l 668 0 l 42 0 l 42 100 l 565 947 l 178 947 l 178 792 l 79 792 l 79 1042 l 682 1042 l 682 942 l 161 94 z "},"[":{"ha":360,"x_min":111,"x_max":353,"o":"m 211 -207 q 136 -187 161 -207 q 111 -117 111 -167 l 111 1117 q 136 1188 111 1167 q 211 1208 161 1208 l 353 1208 l 353 1140 l 208 1140 l 208 -137 l 353 -137 l 353 -207 l 211 -207 z "},"\\":{"ha":582,"x_min":7,"x_max":575,"o":"m 7 1208 l 115 1208 l 575 -208 l 468 -208 l 7 1208 z "},"]":{"ha":360,"x_min":7,"x_max":249,"o":"m 149 1208 q 224 1188 199 1208 q 249 1118 249 1168 l 249 -115 q 224 -186 249 -165 q 149 -207 199 -207 l 7 -207 l 7 -139 l 151 -139 l 151 1139 l 7 1139 l 7 1208 l 149 1208 z "},"^":{"ha":828,"x_min":111,"x_max":717,"o":"m 717 521 l 621 521 l 418 943 l 208 521 l 111 521 l 378 1042 l 464 1042 l 717 521 z "},"_":{"ha":753,"x_min":7,"x_max":746,"o":"m 7 -100 l 746 -100 l 746 -156 l 7 -156 l 7 -100 z "},"`":{"ha":253,"x_min":1,"x_max":249,"o":"m 249 776 l 147 776 l 1 947 l 100 947 l 249 776 z "},"a":{"ha":685,"x_min":28,"x_max":629,"o":"m 629 94 l 629 0 l 146 0 q 50 28 75 0 q 28 122 28 53 l 28 174 q 40 242 28 224 q 122 307 58 268 l 428 497 l 428 600 l 156 600 l 156 519 l 67 519 l 67 694 l 414 694 q 513 664 485 694 q 542 575 542 633 l 542 94 l 629 94 m 428 386 l 139 206 l 139 94 l 428 94 l 428 386 z "},"b":{"ha":732,"x_min":56,"x_max":663,"o":"m 493 689 q 565 708 524 708 q 634 678 606 708 q 663 589 663 647 l 663 122 q 644 42 663 65 q 543 0 611 0 l 56 0 l 56 94 l 143 94 l 143 947 l 56 947 l 56 1042 l 257 1042 l 257 540 l 493 689 m 551 614 l 257 429 l 257 94 l 551 94 l 551 614 z "},"c":{"ha":592,"x_min":69,"x_max":536,"o":"m 536 0 l 190 0 q 75 75 90 0 q 69 122 69 97 l 69 572 q 102 663 69 631 q 201 696 135 696 l 536 696 l 536 519 l 442 519 l 442 600 l 181 600 l 181 94 l 442 94 l 442 175 l 536 175 l 536 0 z "},"d":{"ha":732,"x_min":69,"x_max":676,"o":"m 676 96 l 676 0 l 475 0 l 475 160 l 235 8 q 153 -14 192 -14 q 92 14 115 -14 q 69 78 69 42 l 69 564 q 89 651 69 628 q 194 694 122 694 l 475 694 l 475 947 l 383 947 l 383 1042 l 589 1042 l 589 96 l 676 96 m 475 600 l 181 600 l 181 88 l 475 271 l 475 600 z "},"e":{"ha":646,"x_min":69,"x_max":576,"o":"m 69 558 q 213 696 69 696 l 447 696 q 546 669 515 696 q 576 572 576 643 l 576 443 l 181 193 l 181 94 l 467 94 l 467 175 l 576 175 l 576 101 q 551 30 576 60 q 465 0 525 0 l 181 0 q 95 30 121 0 q 69 101 69 60 l 69 558 m 181 306 l 465 485 l 465 600 l 181 600 l 181 306 z "},"f":{"ha":461,"x_min":56,"x_max":406,"o":"m 275 594 l 275 94 l 388 94 l 388 0 l 56 0 l 56 94 l 167 94 l 167 594 l 56 594 l 56 694 l 167 694 l 167 897 q 197 1009 167 976 q 290 1042 228 1042 l 406 1042 l 406 947 l 275 947 l 275 694 l 388 694 l 388 594 l 275 594 z "},"g":{"ha":726,"x_min":69,"x_max":671,"o":"m 583 600 l 583 -185 q 555 -274 583 -243 q 456 -304 526 -304 l 119 -304 l 119 -115 l 214 -115 l 214 -208 l 469 -208 l 469 154 l 232 4 q 165 -14 201 -14 q 99 15 128 -14 q 69 85 69 43 l 69 572 q 88 661 69 640 q 188 694 118 694 l 671 694 l 671 600 l 583 600 m 469 600 l 178 600 l 178 83 l 469 267 l 469 600 z "},"h":{"ha":789,"x_min":56,"x_max":733,"o":"m 733 94 l 733 0 l 465 0 l 465 94 l 532 94 l 532 608 l 256 435 l 256 94 l 324 94 l 324 0 l 56 0 l 56 94 l 143 94 l 143 947 l 56 947 l 56 1042 l 256 1042 l 256 547 l 486 692 q 549 708 513 708 q 615 680 585 708 q 644 599 644 651 l 644 94 l 733 94 z "},"i":{"ha":417,"x_min":69,"x_max":361,"o":"m 271 94 l 361 94 l 361 0 l 69 0 l 69 94 l 157 94 l 157 600 l 69 600 l 69 694 l 271 694 l 271 94 m 214 950 q 228 950 214 950 q 263 928 243 950 q 283 877 283 907 q 263 827 283 847 q 213 807 243 807 q 163 827 183 807 q 143 877 143 847 q 164 928 143 907 q 214 950 185 950 z "},"j":{"ha":367,"x_min":-14,"x_max":283,"o":"m 283 -158 q 255 -247 283 -217 q 156 -278 226 -278 l -14 -278 l -14 -182 l 169 -182 l 169 600 l 82 600 l 82 694 l 283 694 l 283 -158 m 214 950 q 228 950 214 950 q 263 928 243 950 q 283 877 283 907 q 263 827 283 847 q 213 807 243 807 q 163 827 183 807 q 143 877 143 847 q 164 928 143 907 q 214 950 185 950 z "},"k":{"ha":704,"x_min":56,"x_max":676,"o":"m 676 94 l 676 0 l 557 0 l 256 350 l 256 94 l 339 94 l 339 0 l 56 0 l 56 94 l 144 94 l 144 947 l 56 947 l 56 1042 l 250 1042 l 250 383 l 567 694 l 675 694 l 675 600 l 599 600 l 372 368 l 604 94 l 676 94 z "},"l":{"ha":431,"x_min":69,"x_max":361,"o":"m 271 94 l 361 94 l 361 0 l 69 0 l 69 94 l 157 94 l 157 947 l 69 947 l 69 1042 l 271 1042 l 271 94 z "},"m":{"ha":1135,"x_min":56,"x_max":1079,"o":"m 882 708 q 990 601 990 708 l 990 94 l 1079 94 l 1079 0 l 811 0 l 811 94 l 878 94 l 878 611 l 624 453 l 624 94 l 692 94 l 692 0 l 443 0 l 443 94 l 510 94 l 511 100 l 511 613 l 256 453 l 256 94 l 324 94 l 324 0 l 56 0 l 56 94 l 143 94 l 143 601 l 56 601 l 56 694 l 256 694 l 256 563 l 465 694 q 515 708 488 708 q 624 601 624 708 l 624 564 l 832 694 q 882 708 854 708 z "},"n":{"ha":789,"x_min":56,"x_max":733,"o":"m 536 708 q 644 601 644 708 l 644 94 l 733 94 l 733 0 l 465 0 l 465 94 l 532 94 l 532 611 l 256 438 l 256 94 l 324 94 l 324 0 l 56 0 l 56 94 l 143 94 l 143 601 l 56 601 l 56 694 l 256 694 l 256 550 l 486 694 q 536 708 508 708 z "},"o":{"ha":626,"x_min":56,"x_max":571,"o":"m 185 0 q 85 33 114 0 q 56 124 56 65 l 56 571 q 81 660 56 626 q 185 694 107 694 l 442 694 q 544 660 518 694 q 571 571 571 626 l 571 124 q 542 33 571 65 q 442 0 513 0 l 185 0 m 168 94 l 458 94 l 458 600 l 168 600 l 168 94 z "},"p":{"ha":732,"x_min":56,"x_max":663,"o":"m 257 94 l 551 94 l 551 610 l 257 425 l 257 94 m 57 -253 l 143 -253 l 143 599 l 56 599 l 56 694 l 257 694 l 257 536 l 497 688 q 568 708 531 708 q 634 685 606 708 q 663 618 663 663 l 663 131 q 644 43 663 67 q 538 0 610 0 l 257 0 l 257 -253 l 349 -253 l 349 -347 l 57 -347 l 57 -253 z "},"q":{"ha":746,"x_min":69,"x_max":676,"o":"m 181 81 l 475 267 l 475 600 l 181 600 l 181 81 m 388 -253 l 475 -253 l 475 154 l 239 6 q 167 -14 208 -14 q 98 17 126 -14 q 69 106 69 47 l 69 572 q 88 653 69 629 q 189 694 121 694 l 676 694 l 676 600 l 589 600 l 589 -253 l 676 -253 l 676 -347 l 388 -347 l 388 -253 z "},"r":{"ha":640,"x_min":56,"x_max":585,"o":"m 476 694 q 585 588 585 694 l 585 464 l 472 464 l 472 599 l 256 461 l 256 94 l 324 94 l 324 0 l 56 0 l 56 94 l 143 94 l 143 601 l 56 601 l 56 696 l 256 696 l 256 574 l 426 681 q 476 694 449 694 z "},"s":{"ha":610,"x_min":69,"x_max":540,"o":"m 540 122 q 421 0 540 0 l 85 0 l 85 210 l 179 210 l 179 94 l 429 94 l 429 210 l 201 353 q 142 389 167 375 q 100 417 117 403 q 69 492 69 444 l 69 571 q 89 651 69 629 q 200 694 126 694 l 524 694 l 524 486 l 429 486 l 429 600 l 179 600 l 179 483 l 415 336 q 467 305 444 318 q 506 278 490 292 q 540 208 540 249 l 540 122 z "},"t":{"ha":440,"x_min":56,"x_max":399,"o":"m 267 947 l 267 694 l 379 694 l 379 594 l 267 594 l 267 94 l 399 94 l 399 0 l 282 0 q 189 33 219 0 q 158 144 158 65 l 158 594 l 56 594 l 56 694 l 158 694 l 158 947 l 267 947 z "},"u":{"ha":789,"x_min":56,"x_max":733,"o":"m 253 -3 q 144 104 144 -3 l 144 601 l 56 601 l 56 696 l 257 696 l 257 94 l 533 268 l 533 601 l 465 601 l 465 696 l 646 696 l 646 94 l 733 94 l 733 0 l 533 0 l 533 156 l 303 11 q 253 -3 281 -3 z "},"v":{"ha":713,"x_min":28,"x_max":685,"o":"m 283 694 l 283 600 l 215 600 l 354 94 l 496 600 l 428 600 l 428 694 l 685 694 l 685 600 l 601 600 l 433 0 l 279 0 l 110 600 l 28 600 l 28 694 l 283 694 z "},"w":{"ha":1017,"x_min":28,"x_max":989,"o":"m 28 694 l 249 694 l 249 600 l 188 600 l 300 96 l 429 694 l 582 694 l 715 93 l 829 600 l 767 600 l 767 694 l 989 694 l 989 600 l 922 600 l 790 0 l 642 0 l 510 601 l 375 0 l 219 0 q 210 44 219 0 q 185 157 200 90 q 154 301 171 224 q 123 446 138 379 q 97 556 108 513 l 88 600 l 28 600 l 28 694 z "},"x":{"ha":706,"x_min":42,"x_max":664,"o":"m 119 94 l 294 360 l 135 600 l 53 600 l 53 694 l 186 694 l 356 444 l 514 694 l 650 694 l 650 600 l 572 600 l 413 360 l 586 94 l 664 94 l 664 0 l 533 0 l 356 276 l 179 0 l 42 0 l 42 94 l 119 94 z "},"y":{"ha":715,"x_min":56,"x_max":646,"o":"m 646 694 l 646 -185 q 617 -274 646 -243 q 518 -304 589 -304 l 197 -304 l 197 -115 l 292 -115 l 292 -208 l 532 -208 l 532 157 l 288 6 q 224 -14 256 -14 q 168 8 192 -14 q 144 76 144 29 l 144 600 l 56 600 l 56 694 l 257 694 l 257 96 l 533 269 l 533 600 l 465 600 l 465 694 l 646 694 z "},"z":{"ha":628,"x_min":56,"x_max":572,"o":"m 56 0 l 56 96 l 440 600 l 158 600 l 158 501 l 63 501 l 63 694 l 561 694 l 561 596 l 179 94 l 475 94 l 475 190 l 572 190 l 572 0 l 56 0 z "},"{":{"ha":457,"x_min":69,"x_max":443,"o":"m 293 726 q 150 501 293 561 q 293 276 293 442 l 293 108 q 311 -69 293 -25 q 360 -133 329 -112 q 443 -153 390 -153 l 443 -210 q 236 -135 288 -210 q 205 -45 211 -99 q 199 78 199 8 l 199 276 q 69 474 199 419 l 69 529 q 199 726 199 583 l 199 925 q 205 1047 199 993 q 236 1138 211 1101 q 443 1213 288 1213 l 443 1156 q 314 1081 346 1156 q 293 894 293 1028 l 293 726 z "},"|":{"ha":375,"x_min":139,"x_max":236,"o":"m 139 -210 l 139 1210 l 236 1210 l 236 -210 l 139 -210 z "},"}":{"ha":457,"x_min":14,"x_max":388,"o":"m 307 501 q 164 726 164 561 l 164 894 q 146 1072 164 1028 q 97 1135 128 1115 q 14 1156 67 1156 l 14 1213 q 221 1138 169 1213 q 252 1047 246 1101 q 258 925 258 993 l 258 726 q 388 529 258 583 l 388 474 q 258 276 258 419 l 258 78 q 252 -45 258 8 q 221 -135 246 -99 q 14 -210 169 -210 l 14 -153 q 142 -78 111 -153 q 164 108 164 -25 l 164 276 q 307 501 164 442 z "},"~":{"ha":826,"x_min":56,"x_max":771,"o":"m 56 399 q 253 535 154 535 q 431 481 315 535 q 510 442 474 460 q 571 425 546 425 q 689 483 636 425 q 717 515 704 500 l 771 465 q 572 338 665 338 q 448 374 528 338 q 326 428 368 411 q 259 444 285 444 q 217 440 233 444 q 185 422 200 435 q 118 351 157 401 l 56 399 z "},"¡":{"ha":418,"x_min":139,"x_max":279,"o":"m 265 736 l 265 -6 l 151 -6 l 151 736 l 265 736 m 210 1010 q 224 1010 210 1010 q 259 990 239 1010 q 279 940 279 969 q 259 889 279 911 q 210 867 239 867 q 160 889 182 867 q 139 940 139 911 q 160 990 139 969 q 210 1010 181 1010 z "},"¢":{"ha":628,"x_min":69,"x_max":560,"o":"m 292 -162 l 292 0 l 190 0 q 75 75 90 0 q 69 122 69 97 l 69 572 q 102 663 69 631 q 201 696 135 696 l 292 696 l 292 814 l 374 814 l 374 696 l 560 696 l 560 519 l 465 519 l 465 600 l 374 600 l 374 94 l 465 94 l 465 175 l 560 175 l 560 0 l 374 0 l 374 -162 l 292 -162 m 181 94 l 292 94 l 292 600 l 181 600 l 181 94 z "},"£":{"ha":738,"x_min":46,"x_max":665,"o":"m 275 594 l 275 94 l 571 94 l 571 257 l 665 257 l 665 0 l 46 0 l 46 94 l 167 94 l 167 594 l 46 594 l 46 694 l 167 694 l 167 897 q 197 1009 167 976 q 290 1042 228 1042 l 460 1042 l 460 947 l 275 947 l 275 694 l 442 694 l 442 594 l 275 594 z "},"¤":{"ha":672,"x_min":38,"x_max":644,"o":"m 526 192 q 340 125 451 125 q 156 190 229 125 l 89 122 l 38 174 l 106 242 q 42 424 39 319 q 106 607 42 538 l 38 675 l 89 726 l 156 658 q 339 724 239 724 q 526 658 439 724 l 593 726 l 644 676 l 575 607 q 639 424 639 535 q 575 242 639 314 l 644 172 l 593 122 l 526 192 m 136 422 q 152 341 136 379 q 196 274 168 303 q 340 211 256 211 q 488 275 426 211 q 546 424 546 336 q 486 572 546 508 q 340 635 429 635 q 196 572 256 635 q 136 422 136 511 z "},"¥":{"ha":772,"x_min":35,"x_max":738,"o":"m 442 301 l 442 94 l 532 94 l 532 0 l 240 0 l 240 94 l 328 94 l 328 301 l 106 301 l 106 390 l 329 390 l 329 514 l 106 514 l 106 604 l 279 604 l 97 947 l 35 947 l 35 1042 l 260 1042 l 260 947 l 210 947 l 386 608 l 567 947 l 517 947 l 517 1042 l 738 1042 l 738 947 l 685 947 l 493 604 l 667 604 l 667 513 l 442 513 l 442 390 l 667 390 l 667 301 l 442 301 z "},"¦":{"ha":360,"x_min":139,"x_max":235,"o":"m 235 1042 l 235 540 l 139 540 l 139 1042 l 235 1042 m 235 294 l 235 -208 l 139 -208 l 139 294 l 235 294 z "},"§":{"ha":781,"x_min":83,"x_max":697,"o":"m 697 463 q 686 350 697 376 q 601 299 664 301 q 678 203 672 296 q 679 150 679 176 l 679 64 q 633 -78 679 -49 q 572 -94 608 -92 q 486 -97 536 -97 l 293 -97 q 135 -65 169 -97 q 110 -17 115 -47 q 106 60 106 14 l 106 151 l 207 151 l 207 0 l 569 0 l 569 247 l 269 247 q 119 275 151 247 q 83 419 83 306 l 83 586 q 94 699 83 672 q 125 737 106 725 q 179 750 144 749 q 103 814 111 750 q 101 854 101 833 l 101 978 q 147 1119 101 1090 q 208 1136 172 1133 q 294 1139 244 1139 l 488 1139 q 646 1107 611 1139 q 670 1058 665 1089 q 675 982 675 1028 l 675 890 l 574 890 l 574 1042 l 211 1042 l 211 797 l 511 797 q 661 769 629 797 q 697 625 697 739 l 697 463 m 588 694 l 196 694 l 196 350 l 588 350 l 588 694 z "},"¨":{"ha":326,"x_min":1,"x_max":326,"o":"m 62 897 q 74 897 62 897 q 103 878 86 897 q 121 835 121 860 q 103 792 121 810 q 61 775 86 775 q 19 792 36 775 q 1 835 1 810 q 19 878 1 860 q 62 897 38 897 m 267 897 q 280 897 267 897 q 309 878 292 897 q 326 835 326 860 q 309 792 326 810 q 267 775 292 775 q 224 792 242 775 q 207 835 207 810 q 225 878 207 860 q 267 897 243 897 z "},"©":{"ha":1231,"x_min":76,"x_max":1147,"o":"m 990 897 q 1026 860 990 897 q 1105 726 1063 824 q 1147 517 1147 628 q 1105 310 1147 407 q 990 140 1063 213 q 820 26 918 68 q 612 -15 722 -15 q 404 26 501 -15 q 234 140 307 68 q 119 310 161 213 q 76 517 76 407 q 119 726 76 628 q 234 897 161 824 q 405 1012 307 969 q 613 1054 503 1054 q 821 1012 724 1054 q 990 897 918 969 m 924 206 q 1018 345 983 265 q 1053 516 1053 425 q 1018 688 1053 607 q 924 828 983 768 q 784 924 864 889 q 613 960 704 960 q 440 925 521 960 q 297 831 358 890 q 168 518 168 700 q 297 206 168 336 q 440 111 358 146 q 613 76 521 76 q 924 206 794 76 m 808 186 l 481 186 q 372 257 388 186 q 367 301 367 278 l 367 726 q 398 813 367 782 q 492 843 429 843 l 808 843 l 808 676 l 718 676 l 718 753 l 472 753 l 472 275 l 718 275 l 718 351 l 808 351 l 808 186 z "},"ª":{"ha":469,"x_min":31,"x_max":456,"o":"m 289 1042 q 379 957 379 1042 l 379 661 l 456 661 l 456 583 l 115 583 q 47 603 64 583 q 31 671 31 622 l 31 703 q 45 754 31 736 q 96 796 60 772 l 289 915 l 289 964 l 124 964 l 124 899 l 50 899 l 50 1042 l 289 1042 m 289 825 l 119 721 l 119 661 l 289 661 l 289 825 z "},"«":{"ha":615,"x_min":42,"x_max":601,"o":"m 335 158 l 258 101 l 42 375 l 256 669 l 335 614 l 158 375 l 335 158 m 601 158 l 525 101 l 308 375 l 522 669 l 601 614 l 425 375 l 601 158 z "},"¬":{"ha":901,"x_min":60,"x_max":786,"o":"m 685 492 l 60 492 l 60 585 l 786 585 l 786 115 l 685 115 l 685 492 z "},"­":{"ha":522,"x_min":72,"x_max":451,"o":"m 72 331 l 72 418 l 451 418 l 451 331 l 72 331 z "},"®":{"ha":1249,"x_min":76,"x_max":1147,"o":"m 990 897 q 1026 860 990 897 q 1105 726 1063 824 q 1147 517 1147 628 q 1105 310 1147 407 q 990 140 1063 213 q 820 26 918 68 q 612 -15 722 -15 q 404 26 501 -15 q 234 140 307 68 q 119 310 161 213 q 76 517 76 407 q 119 726 76 628 q 234 897 161 824 q 405 1012 307 969 q 613 1054 503 1054 q 821 1012 724 1054 q 990 897 918 969 m 924 206 q 1018 345 983 265 q 1053 516 1053 425 q 1018 688 1053 607 q 924 828 983 768 q 784 924 864 889 q 613 960 704 960 q 440 925 521 960 q 297 831 358 890 q 168 518 168 700 q 297 206 168 336 q 440 111 358 146 q 613 76 521 76 q 924 206 794 76 m 358 743 l 358 832 l 744 832 q 827 810 792 832 q 863 735 863 788 l 863 661 q 836 583 863 608 q 778 538 810 557 l 718 500 l 774 290 l 871 290 l 871 207 l 801 207 q 718 234 747 207 q 674 318 689 261 l 639 447 l 535 383 l 535 290 l 604 290 l 604 207 l 358 207 l 358 290 l 436 290 l 436 743 l 358 743 m 535 475 l 769 625 l 769 743 l 535 743 l 535 475 z "},"¯":{"ha":354,"x_min":0,"x_max":354,"o":"m 0 886 l 354 886 l 354 799 l 0 799 l 0 886 z "},"°":{"ha":522,"x_min":51,"x_max":478,"o":"m 51 900 q 114 1050 51 990 q 267 1113 178 1113 q 415 1050 353 1113 q 478 899 478 988 q 415 747 478 808 q 265 686 351 686 q 114 749 176 686 q 51 900 51 811 m 125 903 q 136 848 125 874 q 167 803 147 822 q 265 761 206 761 q 363 802 322 761 q 404 900 404 843 q 363 999 404 958 q 267 1040 322 1040 q 166 999 207 1040 q 125 903 125 958 z "},"±":{"ha":839,"x_min":111,"x_max":728,"o":"m 728 675 l 728 583 l 468 583 l 468 351 l 371 351 l 371 583 l 111 583 l 111 675 l 371 675 l 371 911 l 468 911 l 468 675 l 728 675 m 111 260 l 728 260 l 728 168 l 111 168 l 111 260 z "},"²":{"ha":404,"x_min":61,"x_max":358,"o":"m 61 694 q 100 772 61 747 l 285 874 l 285 982 l 132 982 l 132 910 l 63 910 l 63 1042 l 263 1042 q 337 1025 315 1042 q 358 964 358 1008 l 358 893 q 315 824 358 847 q 226 773 272 800 q 131 718 179 746 l 131 642 l 285 642 l 285 696 l 358 696 l 358 583 l 61 583 l 61 694 z "},"³":{"ha":411,"x_min":61,"x_max":358,"o":"m 358 988 l 210 857 l 271 857 q 338 839 319 857 q 357 778 357 821 l 357 672 q 343 610 357 624 q 256 583 318 583 l 153 583 q 64 639 71 583 q 61 674 61 654 l 61 715 l 129 715 l 129 638 l 283 638 l 283 799 l 110 799 l 110 851 l 261 982 l 129 982 l 129 940 l 61 940 l 61 1042 l 358 1042 l 358 988 z "},"´":{"ha":253,"x_min":1,"x_max":249,"o":"m 150 947 l 249 947 l 103 776 l 1 776 l 150 947 z "},"¶":{"ha":753,"x_min":36,"x_max":658,"o":"m 36 821 q 324 1043 36 1043 l 658 1043 l 658 -140 l 564 -140 l 564 972 l 403 972 l 403 -140 l 307 -140 l 308 603 q 111 664 186 603 q 36 821 36 724 z "},"·":{"ha":307,"x_min":83,"x_max":224,"o":"m 155 439 q 169 439 155 439 q 203 417 183 439 q 224 365 224 394 q 203 316 224 336 q 154 296 183 296 q 104 316 125 296 q 83 365 83 336 q 105 417 83 394 q 155 439 126 439 z "},"¸":{"ha":236,"x_min":0,"x_max":236,"o":"m 0 3 l 82 3 l 82 -58 l 133 -58 q 211 -85 186 -58 q 236 -156 236 -111 l 236 -207 q 218 -274 236 -246 q 142 -301 200 -301 l 0 -301 l 0 -228 l 150 -228 l 150 -135 l 0 -135 l 0 3 z "},"¹":{"ha":236,"x_min":6,"x_max":219,"o":"m 97 1042 q 160 985 160 1042 l 160 647 l 219 647 l 219 583 l 22 583 l 22 647 l 86 647 l 86 976 l 6 976 l 6 1042 l 97 1042 z "},"º":{"ha":428,"x_min":32,"x_max":400,"o":"m 240 1042 q 376 1006 350 1042 q 396 951 392 986 q 400 864 400 917 l 400 754 q 397 672 400 704 q 381 619 394 639 q 338 591 367 599 q 254 583 308 583 l 185 583 q 60 614 89 583 q 32 743 32 642 l 32 886 q 60 1010 32 978 q 176 1042 89 1042 l 240 1042 m 331 979 l 101 979 l 101 646 l 331 646 l 331 979 z "},"»":{"ha":615,"x_min":14,"x_max":574,"o":"m 281 613 l 357 669 l 574 396 l 360 101 l 281 157 l 457 396 l 281 613 m 14 613 l 90 669 l 307 396 l 93 101 l 14 157 l 190 396 l 14 613 z "},"¿":{"ha":668,"x_min":28,"x_max":557,"o":"m 28 411 q 158 553 28 553 l 338 553 l 338 767 l 449 767 l 449 579 q 417 485 449 514 q 317 457 385 457 l 147 457 l 147 89 l 456 89 l 456 247 l 557 247 l 557 -6 l 183 -6 q 67 25 107 -6 q 28 143 28 56 l 28 411 m 393 899 q 343 921 364 899 q 322 972 322 943 q 343 1022 322 1001 q 393 1042 364 1042 q 443 1022 422 1042 q 464 972 464 1001 q 443 921 464 943 q 393 899 422 899 z "},"À":{"ha":890,"x_min":35,"x_max":856,"o":"m 568 458 l 444 947 l 321 458 l 568 458 m 856 94 l 856 0 l 585 0 l 585 94 l 660 94 l 590 371 l 299 371 l 229 94 l 306 94 l 306 0 l 35 0 l 35 94 l 122 94 l 364 1042 l 528 1042 l 765 94 l 856 94 m 568 1124 l 467 1124 l 321 1294 l 419 1294 l 568 1124 z "},"Á":{"ha":890,"x_min":35,"x_max":856,"o":"m 321 458 l 444 947 l 568 458 l 321 458 m 765 94 l 528 1042 l 364 1042 l 122 94 l 35 94 l 35 0 l 306 0 l 306 94 l 229 94 l 299 371 l 590 371 l 660 94 l 585 94 l 585 0 l 856 0 l 856 94 l 765 94 m 469 1294 l 568 1294 l 422 1124 l 321 1124 l 469 1294 z "},"Â":{"ha":890,"x_min":35,"x_max":856,"o":"m 568 458 l 444 947 l 321 458 l 568 458 m 856 94 l 856 0 l 585 0 l 585 94 l 660 94 l 590 371 l 299 371 l 229 94 l 306 94 l 306 0 l 35 0 l 35 94 l 122 94 l 364 1042 l 528 1042 l 765 94 l 856 94 m 643 1124 l 542 1124 l 446 1235 l 349 1124 l 246 1124 l 401 1294 l 494 1294 l 643 1124 z "},"Ã":{"ha":890,"x_min":35,"x_max":856,"o":"m 568 458 l 444 947 l 321 458 l 568 458 m 856 94 l 856 0 l 585 0 l 585 94 l 660 94 l 590 371 l 299 371 l 229 94 l 306 94 l 306 0 l 35 0 l 35 94 l 122 94 l 364 1042 l 528 1042 l 765 94 l 856 94 m 674 1233 q 635 1175 663 1201 q 535 1126 579 1126 q 458 1152 501 1126 q 391 1190 414 1178 q 345 1201 368 1201 q 307 1188 322 1201 q 272 1133 292 1174 l 215 1175 q 253 1231 225 1206 q 338 1281 304 1281 q 399 1269 371 1281 q 453 1242 428 1257 q 500 1216 479 1228 q 541 1204 521 1204 q 585 1225 561 1204 q 621 1272 610 1246 l 674 1233 z "},"Ä":{"ha":890,"x_min":35,"x_max":856,"o":"m 568 458 l 444 947 l 321 458 l 568 458 m 856 94 l 856 0 l 585 0 l 585 94 l 660 94 l 590 371 l 299 371 l 229 94 l 306 94 l 306 0 l 35 0 l 35 94 l 122 94 l 364 1042 l 528 1042 l 765 94 l 856 94 m 342 1244 q 355 1244 342 1244 q 384 1226 367 1244 q 401 1182 401 1207 q 384 1140 401 1157 q 342 1122 367 1122 q 299 1140 317 1122 q 282 1182 282 1157 q 300 1226 282 1207 q 342 1244 318 1244 m 548 1244 q 560 1244 548 1244 q 590 1226 572 1244 q 607 1182 607 1207 q 590 1140 607 1157 q 547 1122 572 1122 q 505 1140 522 1122 q 488 1182 488 1157 q 506 1226 488 1207 q 548 1244 524 1244 z "},"Å":{"ha":890,"x_min":35,"x_max":856,"o":"m 568 458 l 444 947 l 321 458 l 568 458 m 856 94 l 856 0 l 585 0 l 585 94 l 660 94 l 590 371 l 299 371 l 229 94 l 306 94 l 306 0 l 35 0 l 35 94 l 122 94 l 364 1042 l 528 1042 l 765 94 l 856 94 m 321 1214 q 321 1239 321 1214 q 357 1300 321 1264 q 446 1336 393 1336 q 532 1300 496 1336 q 568 1213 568 1264 q 532 1125 568 1161 q 444 1089 496 1089 q 357 1125 392 1089 q 321 1214 321 1164 m 389 1214 q 405 1174 389 1190 q 444 1157 421 1157 q 485 1174 468 1157 q 501 1213 501 1190 q 485 1253 501 1236 q 445 1269 468 1269 q 406 1253 422 1269 q 389 1214 389 1238 z "},"Æ":{"ha":1189,"x_min":61,"x_max":1082,"o":"m 988 94 l 988 257 l 1082 257 l 1082 0 l 538 0 l 538 97 l 625 97 l 625 490 l 386 490 l 247 94 l 331 94 l 331 0 l 61 0 l 61 94 l 142 94 l 444 947 l 335 947 l 335 1042 l 1082 1042 l 1082 785 l 988 785 l 988 947 l 739 947 l 739 583 l 972 583 l 972 490 l 739 490 l 739 96 l 988 94 m 419 583 l 625 583 l 625 947 l 549 947 l 419 583 z "},"Ç":{"ha":729,"x_min":83,"x_max":660,"o":"m 246 0 l 233 0 q 92 92 117 0 q 83 149 83 118 l 83 892 q 154 1028 83 993 q 219 1042 181 1042 l 660 1042 l 660 785 l 565 785 l 565 947 l 197 947 l 197 94 l 565 94 l 565 257 l 660 257 l 660 0 l 328 0 l 328 -58 l 379 -58 q 457 -85 432 -58 q 482 -156 482 -111 l 482 -207 q 464 -274 482 -246 q 388 -301 446 -301 l 246 -301 l 246 -228 l 396 -228 l 396 -135 l 246 -135 l 246 0 z "},"È":{"ha":811,"x_min":90,"x_max":742,"o":"m 582 685 l 582 393 l 488 393 l 488 492 l 292 492 l 292 94 l 647 94 l 647 257 l 742 257 l 742 0 l 90 0 l 90 94 l 178 94 l 178 947 l 90 947 l 90 1042 l 742 1042 l 742 785 l 647 785 l 647 947 l 292 947 l 292 586 l 488 586 l 488 685 l 582 685 m 529 1124 l 428 1124 l 282 1294 l 381 1294 l 529 1124 z "},"É":{"ha":811,"x_min":90,"x_max":742,"o":"m 488 685 l 488 586 l 292 586 l 292 947 l 647 947 l 647 785 l 742 785 l 742 1042 l 90 1042 l 90 947 l 178 947 l 178 94 l 90 94 l 90 0 l 742 0 l 742 257 l 647 257 l 647 94 l 292 94 l 292 492 l 488 492 l 488 393 l 582 393 l 582 685 l 488 685 m 431 1294 l 529 1294 l 383 1124 l 282 1124 l 431 1294 z "},"Ê":{"ha":811,"x_min":90,"x_max":742,"o":"m 582 685 l 582 393 l 488 393 l 488 492 l 292 492 l 292 94 l 647 94 l 647 257 l 742 257 l 742 0 l 90 0 l 90 94 l 178 94 l 178 947 l 90 947 l 90 1042 l 742 1042 l 742 785 l 647 785 l 647 947 l 292 947 l 292 586 l 488 586 l 488 685 l 582 685 m 604 1124 l 503 1124 l 407 1235 l 310 1124 l 207 1124 l 363 1294 l 456 1294 l 604 1124 z "},"Ë":{"ha":811,"x_min":90,"x_max":742,"o":"m 582 685 l 582 393 l 488 393 l 488 492 l 292 492 l 292 94 l 647 94 l 647 257 l 742 257 l 742 0 l 90 0 l 90 94 l 178 94 l 178 947 l 90 947 l 90 1042 l 742 1042 l 742 785 l 647 785 l 647 947 l 292 947 l 292 586 l 488 586 l 488 685 l 582 685 m 303 1244 q 316 1244 303 1244 q 345 1226 328 1244 q 363 1182 363 1207 q 345 1140 363 1157 q 303 1122 328 1122 q 260 1140 278 1122 q 243 1182 243 1157 q 261 1226 243 1207 q 303 1244 279 1244 m 509 1244 q 521 1244 509 1244 q 551 1226 533 1244 q 568 1182 568 1207 q 551 1140 568 1157 q 508 1122 533 1122 q 466 1140 483 1122 q 449 1182 449 1157 q 467 1226 449 1207 q 509 1244 485 1244 z "},"Ì":{"ha":514,"x_min":111,"x_max":403,"o":"m 313 94 l 403 94 l 403 0 l 111 0 l 111 94 l 199 94 l 199 947 l 111 947 l 111 1042 l 403 1042 l 403 947 l 313 947 l 313 94 m 381 1124 l 279 1124 l 133 1294 l 232 1294 l 381 1124 z "},"Í":{"ha":514,"x_min":111,"x_max":403,"o":"m 313 947 l 403 947 l 403 1042 l 111 1042 l 111 947 l 199 947 l 199 94 l 111 94 l 111 0 l 403 0 l 403 94 l 313 94 l 313 947 m 282 1294 l 381 1294 l 235 1124 l 133 1124 l 282 1294 z "},"Î":{"ha":514,"x_min":58,"x_max":456,"o":"m 313 94 l 403 94 l 403 0 l 111 0 l 111 94 l 199 94 l 199 947 l 111 947 l 111 1042 l 403 1042 l 403 947 l 313 947 l 313 94 m 456 1124 l 354 1124 l 258 1235 l 161 1124 l 58 1124 l 214 1294 l 307 1294 l 456 1124 z "},"Ï":{"ha":514,"x_min":94,"x_max":419,"o":"m 313 94 l 403 94 l 403 0 l 111 0 l 111 94 l 199 94 l 199 947 l 111 947 l 111 1042 l 403 1042 l 403 947 l 313 947 l 313 94 m 155 1244 q 167 1244 155 1244 q 197 1226 179 1244 q 214 1182 214 1207 q 197 1140 214 1157 q 154 1122 179 1122 q 112 1140 129 1122 q 94 1182 94 1157 q 113 1226 94 1207 q 155 1244 131 1244 m 360 1244 q 373 1244 360 1244 q 402 1226 385 1244 q 419 1182 419 1207 q 402 1140 419 1157 q 360 1122 385 1122 q 317 1140 335 1122 q 300 1182 300 1157 q 318 1226 300 1207 q 360 1244 336 1244 z "},"Ð":{"ha":839,"x_min":78,"x_max":756,"o":"m 171 585 l 171 947 l 83 947 l 83 1042 l 574 1042 q 716 997 676 1042 q 756 860 756 951 l 756 182 q 711 43 756 86 q 574 0 667 0 l 83 0 l 83 94 l 171 94 l 171 493 l 78 493 l 78 585 l 171 585 m 642 947 l 285 947 l 285 585 l 482 585 l 482 493 l 285 493 l 285 94 l 642 94 l 642 947 z "},"Ñ":{"ha":999,"x_min":90,"x_max":908,"o":"m 908 947 l 821 947 l 821 0 l 685 0 l 292 811 l 292 94 l 382 94 l 382 0 l 90 0 l 90 94 l 178 94 l 178 947 l 90 947 l 90 1042 l 304 1042 l 707 214 l 707 947 l 617 947 l 617 1042 l 908 1042 l 908 947 m 728 1233 q 689 1175 717 1201 q 589 1126 633 1126 q 512 1152 556 1126 q 445 1190 468 1178 q 399 1201 422 1201 q 361 1188 376 1201 q 326 1133 346 1174 l 269 1175 q 307 1231 279 1206 q 392 1281 358 1281 q 453 1269 425 1281 q 508 1242 482 1257 q 554 1216 533 1228 q 595 1204 575 1204 q 640 1225 615 1204 q 675 1272 664 1246 l 728 1233 z "},"Ò":{"ha":753,"x_min":83,"x_max":669,"o":"m 508 1042 q 631 995 593 1042 q 669 857 669 949 l 669 189 q 636 44 669 89 q 515 0 603 0 l 249 0 q 92 100 115 0 q 83 168 83 131 l 83 857 q 114 992 83 950 q 238 1042 149 1042 l 508 1042 m 194 94 l 558 94 l 558 947 l 194 947 l 194 94 m 500 1124 l 399 1124 l 253 1294 l 351 1294 l 500 1124 z "},"Ó":{"ha":753,"x_min":83,"x_max":669,"o":"m 238 1042 q 89 933 110 1042 q 83 857 83 900 l 83 168 q 169 11 83 44 q 249 0 200 0 l 515 0 q 636 44 603 0 q 669 189 669 89 l 669 857 q 631 995 669 949 q 508 1042 593 1042 l 238 1042 m 194 947 l 558 947 l 558 94 l 194 94 l 194 947 m 401 1294 l 500 1294 l 354 1124 l 253 1124 l 401 1294 z "},"Ô":{"ha":753,"x_min":83,"x_max":669,"o":"m 508 1042 q 631 995 593 1042 q 669 857 669 949 l 669 189 q 636 44 669 89 q 515 0 603 0 l 249 0 q 92 100 115 0 q 83 168 83 131 l 83 857 q 114 992 83 950 q 238 1042 149 1042 l 508 1042 m 194 94 l 558 94 l 558 947 l 194 947 l 194 94 m 575 1124 l 474 1124 l 378 1235 l 281 1124 l 178 1124 l 333 1294 l 426 1294 l 575 1124 z "},"Õ":{"ha":753,"x_min":83,"x_max":669,"o":"m 508 1042 q 631 995 593 1042 q 669 857 669 949 l 669 189 q 636 44 669 89 q 515 0 603 0 l 249 0 q 92 100 115 0 q 83 168 83 131 l 83 857 q 114 992 83 950 q 238 1042 149 1042 l 508 1042 m 194 94 l 558 94 l 558 947 l 194 947 l 194 94 m 606 1233 q 567 1175 594 1201 q 467 1126 511 1126 q 390 1152 433 1126 q 323 1190 346 1178 q 277 1201 300 1201 q 239 1188 254 1201 q 204 1133 224 1174 l 147 1175 q 185 1231 157 1206 q 269 1281 236 1281 q 331 1269 303 1281 q 385 1242 360 1257 q 432 1216 411 1228 q 473 1204 453 1204 q 517 1225 493 1204 q 553 1272 542 1246 l 606 1233 z "},"Ö":{"ha":753,"x_min":83,"x_max":669,"o":"m 508 1042 q 631 995 593 1042 q 669 857 669 949 l 669 189 q 636 44 669 89 q 515 0 603 0 l 249 0 q 92 100 115 0 q 83 168 83 131 l 83 857 q 114 992 83 950 q 238 1042 149 1042 l 508 1042 m 194 94 l 558 94 l 558 947 l 194 947 l 194 94 m 274 1244 q 286 1244 274 1244 q 316 1226 299 1244 q 333 1182 333 1207 q 316 1140 333 1157 q 274 1122 299 1122 q 231 1140 249 1122 q 214 1182 214 1157 q 232 1226 214 1207 q 274 1244 250 1244 m 480 1244 q 492 1244 480 1244 q 522 1226 504 1244 q 539 1182 539 1207 q 522 1140 539 1157 q 479 1122 504 1122 q 437 1140 454 1122 q 419 1182 419 1157 q 438 1226 419 1207 q 480 1244 456 1244 z "},"×":{"ha":518,"x_min":7,"x_max":511,"o":"m 508 353 l 444 289 l 260 472 l 75 288 l 7 356 l 192 540 l 8 724 l 72 789 l 257 606 l 442 792 l 511 722 l 325 536 l 508 353 z "},"Ø":{"ha":753,"x_min":83,"x_max":669,"o":"m 182 7 q 104 65 125 22 q 83 168 83 107 l 83 857 q 114 992 83 950 q 238 1042 149 1042 l 476 1042 l 503 1135 l 596 1135 l 567 1033 q 669 857 669 1006 l 669 189 q 636 44 669 89 q 515 0 603 0 l 274 0 l 244 -106 l 150 -106 l 182 7 m 543 947 l 301 94 l 558 94 l 558 947 l 543 947 m 194 94 l 207 94 l 449 947 l 194 947 l 194 94 z "},"Ù":{"ha":947,"x_min":83,"x_max":864,"o":"m 294 0 q 171 138 171 0 l 171 947 l 83 947 l 83 1042 l 375 1042 l 375 947 l 285 947 l 285 94 l 663 94 l 663 947 l 572 947 l 572 1042 l 864 1042 l 864 947 l 776 947 l 776 144 q 651 0 776 0 l 294 0 m 597 1124 l 496 1124 l 350 1294 l 449 1294 l 597 1124 z "},"Ú":{"ha":947,"x_min":83,"x_max":864,"o":"m 651 0 q 776 144 776 0 l 776 947 l 864 947 l 864 1042 l 572 1042 l 572 947 l 663 947 l 663 94 l 285 94 l 285 947 l 375 947 l 375 1042 l 83 1042 l 83 947 l 171 947 l 171 138 q 294 0 171 0 l 651 0 m 499 1294 l 597 1294 l 451 1124 l 350 1124 l 499 1294 z "},"Û":{"ha":947,"x_min":83,"x_max":864,"o":"m 294 0 q 171 138 171 0 l 171 947 l 83 947 l 83 1042 l 375 1042 l 375 947 l 285 947 l 285 94 l 663 94 l 663 947 l 572 947 l 572 1042 l 864 1042 l 864 947 l 776 947 l 776 144 q 651 0 776 0 l 294 0 m 672 1124 l 571 1124 l 475 1235 l 378 1124 l 275 1124 l 431 1294 l 524 1294 l 672 1124 z "},"Ü":{"ha":947,"x_min":83,"x_max":864,"o":"m 294 0 q 171 138 171 0 l 171 947 l 83 947 l 83 1042 l 375 1042 l 375 947 l 285 947 l 285 94 l 663 94 l 663 947 l 572 947 l 572 1042 l 864 1042 l 864 947 l 776 947 l 776 144 q 651 0 776 0 l 294 0 m 372 1244 q 384 1244 372 1244 q 413 1226 396 1244 q 431 1182 431 1207 q 413 1140 431 1157 q 371 1122 396 1122 q 328 1140 346 1122 q 311 1182 311 1157 q 329 1226 311 1207 q 372 1244 347 1244 m 577 1244 q 589 1244 577 1244 q 619 1226 601 1244 q 636 1182 636 1207 q 619 1140 636 1157 q 576 1122 601 1122 q 534 1140 551 1122 q 517 1182 517 1157 q 535 1226 517 1207 q 577 1244 553 1244 z "},"Ý":{"ha":772,"x_min":35,"x_max":738,"o":"m 517 1042 l 517 947 l 567 947 l 386 608 l 210 947 l 260 947 l 260 1042 l 35 1042 l 35 947 l 97 947 l 328 513 l 328 94 l 240 94 l 240 0 l 532 0 l 532 94 l 442 94 l 442 513 l 685 947 l 738 947 l 738 1042 l 517 1042 m 411 1294 l 510 1294 l 364 1124 l 263 1124 l 411 1294 z "},"Þ":{"ha":825,"x_min":90,"x_max":742,"o":"m 586 860 q 710 825 678 860 q 742 688 742 790 l 742 586 q 708 472 742 507 q 665 436 692 453 q 599 396 638 419 l 292 204 l 292 94 l 382 94 l 382 0 l 90 0 l 90 94 l 178 94 l 178 946 l 90 946 l 90 1042 l 382 1042 l 382 946 l 293 946 l 293 860 l 586 860 m 640 764 l 292 764 l 292 315 l 640 531 l 640 764 z "},"ß":{"ha":763,"x_min":69,"x_max":679,"o":"m 289 0 l 69 0 l 69 94 l 181 94 l 181 897 q 211 1009 181 976 q 304 1042 242 1042 l 494 1042 q 617 993 575 1042 q 651 876 651 951 l 651 697 q 627 608 651 644 q 571 568 603 571 q 635 535 611 561 q 679 422 679 485 l 679 186 q 633 47 679 94 q 483 0 588 0 l 383 0 l 383 94 l 565 94 l 565 511 l 383 511 l 383 615 l 544 615 l 544 947 l 289 947 l 289 0 z "},"à":{"ha":685,"x_min":28,"x_max":629,"o":"m 629 94 l 629 0 l 146 0 q 50 28 75 0 q 28 122 28 53 l 28 174 q 40 242 28 224 q 122 307 58 268 l 428 497 l 428 600 l 156 600 l 156 519 l 67 519 l 67 694 l 414 694 q 513 664 485 694 q 542 575 542 633 l 542 94 l 629 94 m 428 386 l 139 206 l 139 94 l 428 94 l 428 386 m 465 776 l 364 776 l 218 947 l 317 947 l 465 776 z "},"á":{"ha":685,"x_min":28,"x_max":629,"o":"m 542 94 l 542 575 q 513 664 542 633 q 414 694 485 694 l 67 694 l 67 519 l 156 519 l 156 600 l 428 600 l 428 497 l 122 307 q 46 250 58 268 q 28 174 28 224 l 28 122 q 46 33 28 53 q 87 6 64 13 q 146 0 110 0 l 629 0 l 629 94 l 542 94 m 428 94 l 139 94 l 139 206 l 428 386 l 428 94 m 367 947 l 465 947 l 319 776 l 218 776 l 367 947 z "},"â":{"ha":685,"x_min":28,"x_max":629,"o":"m 629 94 l 629 0 l 146 0 q 50 28 75 0 q 28 122 28 53 l 28 174 q 40 242 28 224 q 122 307 58 268 l 428 497 l 428 600 l 156 600 l 156 519 l 67 519 l 67 694 l 414 694 q 513 664 485 694 q 542 575 542 633 l 542 94 l 629 94 m 428 386 l 139 206 l 139 94 l 428 94 l 428 386 m 486 776 l 385 776 l 289 888 l 192 776 l 89 776 l 244 947 l 338 947 l 486 776 z "},"ã":{"ha":685,"x_min":28,"x_max":629,"o":"m 629 94 l 629 0 l 146 0 q 50 28 75 0 q 28 122 28 53 l 28 174 q 40 242 28 224 q 122 307 58 268 l 428 497 l 428 600 l 156 600 l 156 519 l 67 519 l 67 694 l 414 694 q 513 664 485 694 q 542 575 542 633 l 542 94 l 629 94 m 428 386 l 139 206 l 139 94 l 428 94 l 428 386 m 521 886 q 482 828 510 854 q 382 779 426 779 q 305 805 349 779 q 238 842 261 831 q 192 854 215 854 q 154 840 169 854 q 119 786 139 826 l 63 828 q 100 883 72 858 q 185 933 151 933 q 247 922 218 933 q 301 895 275 910 q 347 869 326 881 q 388 857 368 857 q 433 878 408 857 q 468 925 457 899 l 521 886 z "},"ä":{"ha":685,"x_min":28,"x_max":629,"o":"m 629 94 l 629 0 l 146 0 q 50 28 75 0 q 28 122 28 53 l 28 174 q 40 242 28 224 q 122 307 58 268 l 428 497 l 428 600 l 156 600 l 156 519 l 67 519 l 67 694 l 414 694 q 513 664 485 694 q 542 575 542 633 l 542 94 l 629 94 m 428 386 l 139 206 l 139 94 l 428 94 l 428 386 m 180 897 q 192 897 180 897 q 222 878 204 897 q 239 835 239 860 q 222 792 239 810 q 179 775 204 775 q 137 792 154 775 q 119 835 119 810 q 138 878 119 860 q 180 897 156 897 m 385 897 q 398 897 385 897 q 427 878 410 897 q 444 835 444 860 q 427 792 444 810 q 385 775 410 775 q 342 792 360 775 q 325 835 325 810 q 343 878 325 860 q 385 897 361 897 z "},"å":{"ha":685,"x_min":28,"x_max":629,"o":"m 629 94 l 629 0 l 146 0 q 50 28 75 0 q 28 122 28 53 l 28 174 q 40 242 28 224 q 122 307 58 268 l 428 497 l 428 600 l 156 600 l 156 519 l 67 519 l 67 694 l 414 694 q 513 664 485 694 q 542 575 542 633 l 542 94 l 629 94 m 428 386 l 139 206 l 139 94 l 428 94 l 428 386 m 163 867 q 163 892 163 867 q 199 953 163 917 q 288 989 235 989 q 374 953 338 989 q 410 865 410 917 q 374 778 410 814 q 286 742 338 742 q 199 778 233 742 q 163 867 163 817 m 231 867 q 247 826 231 843 q 286 810 263 810 q 326 826 310 810 q 343 866 343 843 q 326 906 343 889 q 287 922 310 922 q 247 906 264 922 q 231 867 231 890 z "},"æ":{"ha":986,"x_min":69,"x_max":917,"o":"m 197 519 l 108 519 l 108 694 l 788 694 q 886 669 856 694 q 917 572 917 643 l 917 443 l 550 215 l 550 94 l 807 94 l 807 175 l 917 175 l 917 101 q 891 30 917 60 q 806 0 865 0 l 188 0 q 92 28 117 0 q 69 122 69 53 l 69 171 q 82 241 69 222 q 113 274 94 260 q 164 307 132 288 l 442 471 l 442 600 l 197 600 l 197 519 m 550 328 l 806 485 l 806 600 l 550 600 l 550 328 m 442 360 l 181 206 l 181 94 l 442 94 l 442 360 z "},"ç":{"ha":592,"x_min":69,"x_max":536,"o":"m 178 0 q 69 122 69 4 l 69 572 q 102 663 69 631 q 201 696 135 696 l 536 696 l 536 519 l 442 519 l 442 600 l 181 600 l 181 94 l 442 94 l 442 175 l 536 175 l 536 0 l 260 0 l 260 -58 l 311 -58 q 389 -85 364 -58 q 414 -156 414 -111 l 414 -207 q 396 -274 414 -246 q 319 -301 378 -301 l 178 -301 l 178 -228 l 328 -228 l 328 -135 l 178 -135 l 178 0 z "},"è":{"ha":646,"x_min":69,"x_max":576,"o":"m 69 558 q 213 696 69 696 l 447 696 q 546 669 515 696 q 576 572 576 643 l 576 443 l 181 193 l 181 94 l 467 94 l 467 175 l 576 175 l 576 101 q 551 30 576 60 q 465 0 525 0 l 181 0 q 95 30 121 0 q 69 101 69 60 l 69 558 m 181 306 l 465 485 l 465 600 l 181 600 l 181 306 m 446 776 l 344 776 l 199 947 l 297 947 l 446 776 z "},"é":{"ha":646,"x_min":69,"x_max":576,"o":"m 213 696 q 69 558 69 696 l 69 101 q 95 30 69 60 q 181 0 121 0 l 465 0 q 551 30 525 0 q 576 101 576 60 l 576 175 l 467 175 l 467 94 l 181 94 l 181 193 l 576 443 l 576 572 q 546 669 576 643 q 447 696 515 696 l 213 696 m 181 600 l 465 600 l 465 485 l 181 306 l 181 600 m 347 947 l 446 947 l 300 776 l 199 776 l 347 947 z "},"ê":{"ha":646,"x_min":69,"x_max":576,"o":"m 69 558 q 213 696 69 696 l 447 696 q 546 669 515 696 q 576 572 576 643 l 576 443 l 181 193 l 181 94 l 467 94 l 467 175 l 576 175 l 576 101 q 551 30 576 60 q 465 0 525 0 l 181 0 q 95 30 121 0 q 69 101 69 60 l 69 558 m 181 306 l 465 485 l 465 600 l 181 600 l 181 306 m 521 776 l 419 776 l 324 888 l 226 776 l 124 776 l 279 947 l 372 947 l 521 776 z "},"ë":{"ha":646,"x_min":69,"x_max":576,"o":"m 69 558 q 213 696 69 696 l 447 696 q 546 669 515 696 q 576 572 576 643 l 576 443 l 181 193 l 181 94 l 467 94 l 467 175 l 576 175 l 576 101 q 551 30 576 60 q 465 0 525 0 l 181 0 q 95 30 121 0 q 69 101 69 60 l 69 558 m 181 306 l 465 485 l 465 600 l 181 600 l 181 306 m 220 897 q 232 897 220 897 q 262 878 244 897 q 279 835 279 860 q 262 792 279 810 q 219 775 244 775 q 177 792 194 775 q 160 835 160 810 q 178 878 160 860 q 220 897 196 897 m 426 897 q 438 897 426 897 q 467 878 450 897 q 485 835 485 860 q 467 792 485 810 q 425 775 450 775 q 383 792 400 775 q 365 835 365 810 q 383 878 365 860 q 426 897 401 897 z "},"ì":{"ha":417,"x_min":69,"x_max":361,"o":"m 271 94 l 361 94 l 361 0 l 69 0 l 69 94 l 157 94 l 157 600 l 69 600 l 69 694 l 271 694 l 271 94 m 332 776 l 231 776 l 85 947 l 183 947 l 332 776 z "},"í":{"ha":417,"x_min":69,"x_max":361,"o":"m 271 694 l 69 694 l 69 600 l 157 600 l 157 94 l 69 94 l 69 0 l 361 0 l 361 94 l 271 94 l 271 694 m 233 947 l 332 947 l 186 776 l 85 776 l 233 947 z "},"î":{"ha":428,"x_min":-1,"x_max":396,"o":"m 282 94 l 372 94 l 372 0 l 81 0 l 81 94 l 168 94 l 168 600 l 81 600 l 81 694 l 282 694 l 282 94 m 396 776 l 294 776 l 199 888 l 101 776 l -1 776 l 154 947 l 247 947 l 396 776 z "},"ï":{"ha":417,"x_min":46,"x_max":371,"o":"m 271 94 l 361 94 l 361 0 l 69 0 l 69 94 l 157 94 l 157 600 l 69 600 l 69 694 l 271 694 l 271 94 m 106 897 q 118 897 106 897 q 148 878 131 897 q 165 835 165 860 q 148 792 165 810 q 106 775 131 775 q 63 792 81 775 q 46 835 46 810 q 64 878 46 860 q 106 897 82 897 m 312 897 q 324 897 312 897 q 353 878 336 897 q 371 835 371 860 q 353 792 371 810 q 311 775 336 775 q 269 792 286 775 q 251 835 251 810 q 269 878 251 860 q 312 897 288 897 z "},"ð":{"ha":639,"x_min":46,"x_max":578,"o":"m 46 688 l 204 818 l 51 881 l 51 975 l 286 886 l 435 1008 l 556 1008 l 368 856 l 458 822 q 554 755 531 794 q 578 665 578 715 l 578 122 q 553 35 578 63 q 451 1 522 1 l 196 1 q 74 72 88 1 q 69 122 69 94 l 69 274 q 99 367 69 329 q 196 442 129 404 l 476 621 l 476 656 q 467 699 476 678 q 419 733 458 721 l 283 786 l 161 688 l 46 688 m 476 93 l 476 508 l 172 318 l 172 93 l 476 93 z "},"ñ":{"ha":789,"x_min":56,"x_max":733,"o":"m 536 708 q 644 601 644 708 l 644 94 l 733 94 l 733 0 l 465 0 l 465 94 l 532 94 l 532 611 l 256 438 l 256 94 l 324 94 l 324 0 l 56 0 l 56 94 l 143 94 l 143 601 l 56 601 l 56 694 l 256 694 l 256 550 l 486 694 q 536 708 508 708 m 624 886 q 585 828 613 854 q 485 779 529 779 q 408 805 451 779 q 341 842 364 831 q 295 854 318 854 q 257 840 272 854 q 222 786 242 826 l 165 828 q 203 883 175 858 q 288 933 254 933 q 349 922 321 933 q 403 895 378 910 q 450 869 429 881 q 491 857 471 857 q 535 878 511 857 q 571 925 560 899 l 624 886 z "},"ò":{"ha":626,"x_min":56,"x_max":571,"o":"m 185 0 q 85 33 114 0 q 56 124 56 65 l 56 571 q 81 660 56 626 q 185 694 107 694 l 442 694 q 544 660 518 694 q 571 571 571 626 l 571 124 q 542 33 571 65 q 442 0 513 0 l 185 0 m 168 94 l 458 94 l 458 600 l 168 600 l 168 94 m 436 776 l 335 776 l 189 947 l 288 947 l 436 776 z "},"ó":{"ha":626,"x_min":56,"x_max":571,"o":"m 442 0 q 542 33 513 0 q 571 124 571 65 l 571 571 q 544 660 571 626 q 442 694 518 694 l 185 694 q 81 660 107 694 q 56 571 56 626 l 56 124 q 85 33 56 65 q 185 0 114 0 l 442 0 m 168 600 l 458 600 l 458 94 l 168 94 l 168 600 m 338 947 l 436 947 l 290 776 l 189 776 l 338 947 z "},"ô":{"ha":626,"x_min":56,"x_max":571,"o":"m 185 0 q 85 33 114 0 q 56 124 56 65 l 56 571 q 81 660 56 626 q 185 694 107 694 l 442 694 q 544 660 518 694 q 571 571 571 626 l 571 124 q 542 33 571 65 q 442 0 513 0 l 185 0 m 168 94 l 458 94 l 458 600 l 168 600 l 168 94 m 511 776 l 410 776 l 314 888 l 217 776 l 114 776 l 269 947 l 363 947 l 511 776 z "},"õ":{"ha":626,"x_min":56,"x_max":571,"o":"m 185 0 q 85 33 114 0 q 56 124 56 65 l 56 571 q 81 660 56 626 q 185 694 107 694 l 442 694 q 544 660 518 694 q 571 571 571 626 l 571 124 q 542 33 571 65 q 442 0 513 0 l 185 0 m 168 94 l 458 94 l 458 600 l 168 600 l 168 94 m 542 886 q 503 828 531 854 q 403 779 447 779 q 326 805 369 779 q 259 842 282 831 q 213 854 236 854 q 175 840 190 854 q 140 786 160 826 l 83 828 q 121 883 93 858 q 206 933 172 933 q 267 922 239 933 q 322 895 296 910 q 368 869 347 881 q 409 857 389 857 q 453 878 429 857 q 489 925 478 899 l 542 886 z "},"ö":{"ha":626,"x_min":56,"x_max":571,"o":"m 185 0 q 85 33 114 0 q 56 124 56 65 l 56 571 q 81 660 56 626 q 185 694 107 694 l 442 694 q 544 660 518 694 q 571 571 571 626 l 571 124 q 542 33 571 65 q 442 0 513 0 l 185 0 m 168 94 l 458 94 l 458 600 l 168 600 l 168 94 m 210 897 q 223 897 210 897 q 252 878 235 897 q 269 835 269 860 q 252 792 269 810 q 210 775 235 775 q 167 792 185 775 q 150 835 150 810 q 168 878 150 860 q 210 897 186 897 m 416 897 q 428 897 416 897 q 458 878 440 897 q 475 835 475 860 q 458 792 475 810 q 415 775 440 775 q 373 792 390 775 q 356 835 356 810 q 374 878 356 860 q 416 897 392 897 z "},"÷":{"ha":503,"x_min":21,"x_max":478,"o":"m 21 583 l 478 583 l 478 492 l 21 492 l 21 583 m 249 428 q 264 428 249 428 q 298 406 278 428 q 318 354 318 383 q 298 305 318 325 q 249 285 278 285 q 199 305 219 285 q 178 354 178 325 q 199 406 178 383 q 249 428 221 428 m 249 797 q 264 797 249 797 q 298 776 278 797 q 318 724 318 754 q 298 673 318 693 q 249 653 278 653 q 199 673 219 653 q 178 724 178 693 q 199 776 178 754 q 249 797 221 797 z "},"ø":{"ha":626,"x_min":56,"x_max":571,"o":"m 165 0 q 80 38 104 6 q 56 124 56 71 l 56 571 q 81 660 56 626 q 185 694 107 694 l 374 694 l 400 782 l 499 782 l 472 693 q 551 653 531 686 q 571 571 571 619 l 571 124 q 542 33 571 65 q 442 0 513 0 l 264 0 l 229 -118 l 131 -118 l 165 0 m 168 94 l 193 94 l 344 600 l 168 600 l 168 94 m 444 600 l 293 94 l 458 94 l 458 600 l 444 600 z "},"ù":{"ha":789,"x_min":56,"x_max":733,"o":"m 253 -3 q 144 104 144 -3 l 144 601 l 56 601 l 56 696 l 257 696 l 257 94 l 533 268 l 533 601 l 465 601 l 465 696 l 646 696 l 646 94 l 733 94 l 733 0 l 533 0 l 533 156 l 303 11 q 253 -3 281 -3 m 518 776 l 417 776 l 271 947 l 369 947 l 518 776 z "},"ú":{"ha":789,"x_min":56,"x_max":733,"o":"m 144 104 q 253 -3 144 -3 q 303 11 281 -3 l 533 156 l 533 0 l 733 0 l 733 94 l 646 94 l 646 696 l 465 696 l 465 601 l 533 601 l 533 268 l 257 94 l 257 696 l 56 696 l 56 601 l 144 601 l 144 104 m 419 947 l 518 947 l 372 776 l 271 776 l 419 947 z "},"û":{"ha":789,"x_min":56,"x_max":733,"o":"m 253 -3 q 144 104 144 -3 l 144 601 l 56 601 l 56 696 l 257 696 l 257 94 l 533 268 l 533 601 l 465 601 l 465 696 l 646 696 l 646 94 l 733 94 l 733 0 l 533 0 l 533 156 l 303 11 q 253 -3 281 -3 m 593 776 l 492 776 l 396 888 l 299 776 l 196 776 l 351 947 l 444 947 l 593 776 z "},"ü":{"ha":789,"x_min":56,"x_max":733,"o":"m 253 -3 q 144 104 144 -3 l 144 601 l 56 601 l 56 696 l 257 696 l 257 94 l 533 268 l 533 601 l 465 601 l 465 696 l 646 696 l 646 94 l 733 94 l 733 0 l 533 0 l 533 156 l 303 11 q 253 -3 281 -3 m 292 897 q 305 897 292 897 q 334 878 317 897 q 351 835 351 860 q 334 792 351 810 q 292 775 317 775 q 249 792 267 775 q 232 835 232 810 q 250 878 232 860 q 292 897 268 897 m 498 897 q 510 897 498 897 q 540 878 522 897 q 557 835 557 860 q 540 792 557 810 q 497 775 522 775 q 455 792 472 775 q 438 835 438 810 q 456 878 438 860 q 498 897 474 897 z "},"ý":{"ha":715,"x_min":56,"x_max":646,"o":"m 465 694 l 465 600 l 533 600 l 533 269 l 257 96 l 257 694 l 56 694 l 56 600 l 144 600 l 144 76 q 168 8 144 29 q 224 -14 192 -14 q 288 6 256 -14 l 532 157 l 532 -208 l 292 -208 l 292 -115 l 197 -115 l 197 -304 l 518 -304 q 617 -274 589 -304 q 646 -185 646 -243 l 646 694 l 465 694 m 382 947 l 481 947 l 335 776 l 233 776 l 382 947 z "},"þ":{"ha":732,"x_min":56,"x_max":663,"o":"m 257 94 l 551 94 l 551 610 l 257 425 l 257 94 m 57 -253 l 143 -253 l 143 946 l 56 946 l 56 1042 l 257 1042 l 257 536 l 497 688 q 568 708 531 708 q 634 685 606 708 q 663 618 663 663 l 663 131 q 644 43 663 67 q 538 0 610 0 l 257 0 l 257 -253 l 349 -253 l 349 -347 l 57 -347 l 57 -253 z "},"ÿ":{"ha":715,"x_min":56,"x_max":646,"o":"m 646 694 l 646 -185 q 617 -274 646 -243 q 518 -304 589 -304 l 197 -304 l 197 -115 l 292 -115 l 292 -208 l 532 -208 l 532 157 l 288 6 q 224 -14 256 -14 q 168 8 192 -14 q 144 76 144 29 l 144 600 l 56 600 l 56 694 l 257 694 l 257 96 l 533 269 l 533 600 l 465 600 l 465 694 l 646 694 m 255 897 q 267 897 255 897 q 297 878 279 897 q 314 835 314 860 q 297 792 314 810 q 254 775 279 775 q 212 792 229 775 q 194 835 194 810 q 213 878 194 860 q 255 897 231 897 m 460 897 q 473 897 460 897 q 502 878 485 897 q 519 835 519 860 q 502 792 519 810 q 460 775 485 775 q 417 792 435 775 q 400 835 400 810 q 418 878 400 860 q 460 897 436 897 z "},"Ā":{"ha":890,"x_min":35,"x_max":856,"o":"m 568 458 l 444 947 l 321 458 l 568 458 m 856 94 l 856 0 l 585 0 l 585 94 l 660 94 l 590 371 l 299 371 l 229 94 l 306 94 l 306 0 l 35 0 l 35 94 l 122 94 l 364 1042 l 528 1042 l 765 94 l 856 94 m 268 1233 l 622 1233 l 622 1146 l 268 1146 l 268 1233 z "},"ā":{"ha":685,"x_min":28,"x_max":629,"o":"m 629 94 l 629 0 l 146 0 q 50 28 75 0 q 28 122 28 53 l 28 174 q 40 242 28 224 q 122 307 58 268 l 428 497 l 428 600 l 156 600 l 156 519 l 67 519 l 67 694 l 414 694 q 513 664 485 694 q 542 575 542 633 l 542 94 l 629 94 m 428 386 l 139 206 l 139 94 l 428 94 l 428 386 m 115 886 l 469 886 l 469 799 l 115 799 l 115 886 z "},"Ă":{"ha":890,"x_min":35,"x_max":856,"o":"m 856 94 l 856 0 l 585 0 l 585 94 l 660 94 l 590 371 l 299 371 l 229 94 l 306 94 l 306 0 l 35 0 l 35 94 l 122 94 l 364 1042 l 528 1042 l 765 94 l 856 94 m 568 458 l 444 947 l 321 458 l 568 458 m 658 1315 q 596 1164 658 1225 q 446 1103 532 1103 q 294 1165 357 1103 q 232 1315 232 1228 l 306 1315 q 347 1219 306 1260 q 446 1178 388 1178 q 544 1219 503 1178 q 585 1315 585 1260 l 658 1315 z "},"ă":{"ha":685,"x_min":28,"x_max":629,"o":"m 629 94 l 629 0 l 146 0 q 50 28 75 0 q 28 122 28 53 l 28 174 q 40 242 28 224 q 122 307 58 268 l 428 497 l 428 600 l 156 600 l 156 519 l 67 519 l 67 694 l 414 694 q 513 664 485 694 q 542 575 542 633 l 542 94 l 629 94 m 428 386 l 139 206 l 139 94 l 428 94 l 428 386 m 508 968 q 446 817 508 878 q 296 756 382 756 q 144 818 207 756 q 82 968 82 881 l 156 968 q 197 872 156 913 q 296 831 238 831 q 394 872 353 831 q 435 968 435 913 l 508 968 z "},"Ą":{"ha":890,"x_min":35,"x_max":856,"o":"m 568 458 l 444 947 l 321 458 l 568 458 m 856 94 l 856 0 l 585 0 l 585 94 l 660 94 l 590 371 l 299 371 l 229 94 l 306 94 l 306 0 l 35 0 l 35 94 l 122 94 l 364 1042 l 528 1042 l 765 94 l 856 94 m 856 0 l 706 -124 l 706 -228 l 828 -228 l 828 -301 l 714 -301 q 638 -274 656 -301 q 619 -207 619 -246 l 619 -164 q 632 -105 619 -124 q 659 -74 644 -86 q 694 -47 674 -62 l 756 0 l 856 0 z "},"ą":{"ha":685,"x_min":28,"x_max":629,"o":"m 629 94 l 629 0 l 146 0 q 50 28 75 0 q 28 122 28 53 l 28 174 q 40 242 28 224 q 122 307 58 268 l 428 497 l 428 600 l 156 600 l 156 519 l 67 519 l 67 694 l 414 694 q 513 664 485 694 q 542 575 542 633 l 542 94 l 629 94 m 428 386 l 139 206 l 139 94 l 428 94 l 428 386 m 629 0 l 479 -124 l 479 -228 l 601 -228 l 601 -301 l 488 -301 q 411 -274 429 -301 q 393 -207 393 -246 l 393 -164 q 406 -105 393 -124 q 433 -74 418 -86 q 468 -47 447 -62 l 529 0 l 629 0 z "},"Ć":{"ha":729,"x_min":83,"x_max":660,"o":"m 565 94 l 197 94 l 197 947 l 565 947 l 565 785 l 660 785 l 660 1042 l 219 1042 q 90 944 115 1042 q 83 892 83 918 l 83 149 q 163 11 83 44 q 233 0 192 0 l 660 0 l 660 257 l 565 257 l 565 94 m 389 1294 l 488 1294 l 342 1124 l 240 1124 l 389 1294 z "},"ć":{"ha":592,"x_min":69,"x_max":536,"o":"m 536 175 l 442 175 l 442 94 l 181 94 l 181 600 l 442 600 l 442 519 l 536 519 l 536 696 l 201 696 q 102 663 135 696 q 69 572 69 631 l 69 122 q 89 42 69 64 q 190 0 124 0 l 536 0 l 536 175 m 321 947 l 419 947 l 274 776 l 172 776 l 321 947 z "},"Ĉ":{"ha":729,"x_min":83,"x_max":660,"o":"m 565 257 l 660 257 l 660 0 l 233 0 q 92 92 117 0 q 83 149 83 118 l 83 892 q 154 1028 83 993 q 219 1042 181 1042 l 660 1042 l 660 785 l 565 785 l 565 947 l 197 947 l 197 94 l 565 94 l 565 257 m 563 1124 l 461 1124 l 365 1235 l 268 1124 l 165 1124 l 321 1294 l 414 1294 l 563 1124 z "},"ĉ":{"ha":592,"x_min":69,"x_max":536,"o":"m 536 0 l 190 0 q 75 75 90 0 q 69 122 69 97 l 69 572 q 102 663 69 631 q 201 696 135 696 l 536 696 l 536 519 l 442 519 l 442 600 l 181 600 l 181 94 l 442 94 l 442 175 l 536 175 l 536 0 m 494 776 l 393 776 l 297 888 l 200 776 l 97 776 l 253 947 l 346 947 l 494 776 z "},"Ċ":{"ha":729,"x_min":83,"x_max":660,"o":"m 565 257 l 660 257 l 660 0 l 233 0 q 92 92 117 0 q 83 149 83 118 l 83 892 q 154 1028 83 993 q 219 1042 181 1042 l 660 1042 l 660 785 l 565 785 l 565 947 l 197 947 l 197 94 l 565 94 l 565 257 m 365 1275 q 377 1275 365 1275 q 406 1256 389 1275 q 424 1213 424 1238 q 406 1170 424 1188 q 364 1153 389 1153 q 322 1170 339 1153 q 304 1213 304 1188 q 322 1256 304 1238 q 365 1275 340 1275 z "},"ċ":{"ha":592,"x_min":69,"x_max":536,"o":"m 536 0 l 190 0 q 75 75 90 0 q 69 122 69 97 l 69 572 q 102 663 69 631 q 201 696 135 696 l 536 696 l 536 519 l 442 519 l 442 600 l 181 600 l 181 94 l 442 94 l 442 175 l 536 175 l 536 0 m 297 928 q 309 928 297 928 q 338 909 321 928 q 356 865 356 890 q 338 823 356 840 q 296 806 321 806 q 253 823 271 806 q 236 865 236 840 q 254 909 236 890 q 297 928 272 928 z "},"Č":{"ha":729,"x_min":83,"x_max":660,"o":"m 565 257 l 660 257 l 660 0 l 233 0 q 92 92 117 0 q 83 149 83 118 l 83 892 q 154 1028 83 993 q 219 1042 181 1042 l 660 1042 l 660 785 l 565 785 l 565 947 l 197 947 l 197 94 l 565 94 l 565 257 m 414 1124 l 321 1124 l 165 1294 l 268 1294 l 365 1183 l 461 1294 l 563 1294 l 414 1124 z "},"č":{"ha":592,"x_min":69,"x_max":536,"o":"m 536 0 l 190 0 q 75 75 90 0 q 69 122 69 97 l 69 572 q 102 663 69 631 q 201 696 135 696 l 536 696 l 536 519 l 442 519 l 442 600 l 181 600 l 181 94 l 442 94 l 442 175 l 536 175 l 536 0 m 346 776 l 253 776 l 97 947 l 200 947 l 297 836 l 393 947 l 494 947 l 346 776 z "},"Ď":{"ha":839,"x_min":83,"x_max":756,"o":"m 574 1042 q 716 997 676 1042 q 756 860 756 951 l 756 182 q 711 43 756 86 q 574 0 667 0 l 83 0 l 83 94 l 171 94 l 171 947 l 83 947 l 83 1042 l 574 1042 m 642 947 l 285 947 l 285 94 l 642 94 l 642 947 m 469 1124 l 376 1124 l 221 1294 l 324 1294 l 421 1183 l 517 1294 l 618 1294 l 469 1124 z "},"ď":{"ha":849,"x_min":69,"x_max":839,"o":"m 676 96 l 676 0 l 475 0 l 475 160 l 235 8 q 153 -14 192 -14 q 92 14 115 -14 q 69 78 69 42 l 69 564 q 89 651 69 628 q 194 694 122 694 l 475 694 l 475 947 l 383 947 l 383 1042 l 589 1042 l 589 96 l 676 96 m 475 600 l 181 600 l 181 88 l 475 271 l 475 600 m 733 708 l 632 708 l 736 1042 l 839 1042 l 733 708 z "},"Đ":{"ha":839,"x_min":74,"x_max":756,"o":"m 74 583 l 171 583 l 171 947 l 83 947 l 83 1042 l 574 1042 q 716 997 676 1042 q 756 860 756 951 l 756 182 q 711 43 756 86 q 574 0 667 0 l 83 0 l 83 94 l 171 94 l 171 492 l 74 492 l 74 583 m 642 947 l 285 947 l 285 583 l 456 583 l 456 492 l 285 492 l 285 94 l 642 94 l 642 947 z "},"đ":{"ha":732,"x_min":69,"x_max":676,"o":"m 475 878 l 475 947 l 383 947 l 383 1042 l 589 1042 l 589 878 l 676 878 l 676 790 l 589 790 l 589 96 l 676 96 l 676 0 l 475 0 l 475 160 l 235 8 q 153 -14 192 -14 q 92 14 115 -14 q 69 78 69 42 l 69 564 q 89 651 69 628 q 194 694 122 694 l 475 694 l 475 790 l 361 790 l 361 878 l 475 878 m 475 600 l 181 600 l 181 88 l 475 271 l 475 600 z "},"Ē":{"ha":811,"x_min":90,"x_max":742,"o":"m 582 685 l 582 393 l 488 393 l 488 492 l 292 492 l 292 94 l 647 94 l 647 257 l 742 257 l 742 0 l 90 0 l 90 94 l 178 94 l 178 947 l 90 947 l 90 1042 l 742 1042 l 742 785 l 647 785 l 647 947 l 292 947 l 292 586 l 488 586 l 488 685 l 582 685 m 228 1233 l 582 1233 l 582 1146 l 228 1146 l 228 1233 z "},"ē":{"ha":646,"x_min":69,"x_max":576,"o":"m 69 558 q 213 696 69 696 l 447 696 q 546 669 515 696 q 576 572 576 643 l 576 443 l 181 193 l 181 94 l 467 94 l 467 175 l 576 175 l 576 101 q 551 30 576 60 q 465 0 525 0 l 181 0 q 95 30 121 0 q 69 101 69 60 l 69 558 m 181 306 l 465 485 l 465 600 l 181 600 l 181 306 m 146 886 l 500 886 l 500 799 l 146 799 l 146 886 z "},"Ĕ":{"ha":811,"x_min":90,"x_max":742,"o":"m 582 685 l 582 393 l 488 393 l 488 492 l 292 492 l 292 94 l 647 94 l 647 257 l 742 257 l 742 0 l 90 0 l 90 94 l 178 94 l 178 947 l 90 947 l 90 1042 l 742 1042 l 742 785 l 647 785 l 647 947 l 292 947 l 292 586 l 488 586 l 488 685 l 582 685 m 618 1315 q 556 1164 618 1225 q 406 1103 492 1103 q 254 1165 317 1103 q 192 1315 192 1228 l 265 1315 q 306 1219 265 1260 q 406 1178 347 1178 q 503 1219 463 1178 q 544 1315 544 1260 l 618 1315 z "},"ĕ":{"ha":646,"x_min":69,"x_max":576,"o":"m 69 558 q 213 696 69 696 l 447 696 q 546 669 515 696 q 576 572 576 643 l 576 443 l 181 193 l 181 94 l 467 94 l 467 175 l 576 175 l 576 101 q 551 30 576 60 q 465 0 525 0 l 181 0 q 95 30 121 0 q 69 101 69 60 l 69 558 m 181 306 l 465 485 l 465 600 l 181 600 l 181 306 m 536 968 q 474 817 536 878 q 324 756 410 756 q 172 818 235 756 q 110 968 110 881 l 183 968 q 224 872 183 913 q 324 831 265 831 q 422 872 381 831 q 463 968 463 913 l 536 968 z "},"Ė":{"ha":811,"x_min":90,"x_max":742,"o":"m 582 685 l 582 393 l 488 393 l 488 492 l 292 492 l 292 94 l 647 94 l 647 257 l 742 257 l 742 0 l 90 0 l 90 94 l 178 94 l 178 947 l 90 947 l 90 1042 l 742 1042 l 742 785 l 647 785 l 647 947 l 292 947 l 292 586 l 488 586 l 488 685 l 582 685 m 406 1275 q 418 1275 406 1275 q 448 1256 431 1275 q 465 1213 465 1238 q 448 1170 465 1188 q 406 1153 431 1153 q 363 1170 381 1153 q 346 1213 346 1188 q 364 1256 346 1238 q 406 1275 382 1275 z "},"ė":{"ha":646,"x_min":69,"x_max":576,"o":"m 69 558 q 213 696 69 696 l 447 696 q 546 669 515 696 q 576 572 576 643 l 576 443 l 181 193 l 181 94 l 467 94 l 467 175 l 576 175 l 576 101 q 551 30 576 60 q 465 0 525 0 l 181 0 q 95 30 121 0 q 69 101 69 60 l 69 558 m 181 306 l 465 485 l 465 600 l 181 600 l 181 306 m 323 928 q 335 928 323 928 q 365 909 347 928 q 382 865 382 890 q 365 823 382 840 q 322 806 347 806 q 280 823 297 806 q 263 865 263 840 q 281 909 263 890 q 323 928 299 928 z "},"Ę":{"ha":811,"x_min":90,"x_max":742,"o":"m 582 685 l 582 393 l 488 393 l 488 492 l 292 492 l 292 94 l 647 94 l 647 257 l 742 257 l 742 0 l 90 0 l 90 94 l 178 94 l 178 947 l 90 947 l 90 1042 l 742 1042 l 742 785 l 647 785 l 647 947 l 292 947 l 292 586 l 488 586 l 488 685 l 582 685 m 742 0 l 592 -124 l 592 -228 l 714 -228 l 714 -301 l 600 -301 q 524 -274 542 -301 q 506 -207 506 -246 l 506 -164 q 518 -105 506 -124 q 545 -74 531 -86 q 581 -47 560 -62 l 642 0 l 742 0 z "},"ę":{"ha":646,"x_min":69,"x_max":576,"o":"m 69 558 q 213 696 69 696 l 447 696 q 546 669 515 696 q 576 572 576 643 l 576 443 l 181 193 l 181 94 l 467 94 l 467 175 l 576 175 l 576 101 q 551 30 576 60 q 465 0 525 0 l 181 0 q 95 30 121 0 q 69 101 69 60 l 69 558 m 181 306 l 465 485 l 465 600 l 181 600 l 181 306 m 456 0 l 306 -124 l 306 -228 l 428 -228 l 428 -301 l 314 -301 q 238 -274 256 -301 q 219 -207 219 -246 l 219 -164 q 232 -105 219 -124 q 259 -74 244 -86 q 294 -47 274 -62 l 356 0 l 456 0 z "},"Ě":{"ha":811,"x_min":90,"x_max":742,"o":"m 582 685 l 582 393 l 488 393 l 488 492 l 292 492 l 292 94 l 647 94 l 647 257 l 742 257 l 742 0 l 90 0 l 90 94 l 178 94 l 178 947 l 90 947 l 90 1042 l 742 1042 l 742 785 l 647 785 l 647 947 l 292 947 l 292 586 l 488 586 l 488 685 l 582 685 m 456 1124 l 363 1124 l 207 1294 l 310 1294 l 407 1183 l 503 1294 l 604 1294 l 456 1124 z "},"ě":{"ha":646,"x_min":69,"x_max":576,"o":"m 69 558 q 213 696 69 696 l 447 696 q 546 669 515 696 q 576 572 576 643 l 576 443 l 181 193 l 181 94 l 467 94 l 467 175 l 576 175 l 576 101 q 551 30 576 60 q 465 0 525 0 l 181 0 q 95 30 121 0 q 69 101 69 60 l 69 558 m 181 306 l 465 485 l 465 600 l 181 600 l 181 306 m 372 776 l 279 776 l 124 947 l 226 947 l 324 836 l 419 947 l 521 947 l 372 776 z "},"Ĝ":{"ha":753,"x_min":83,"x_max":669,"o":"m 83 882 q 232 1042 83 1042 l 669 1042 l 669 785 l 558 785 l 558 947 l 197 947 l 197 94 l 558 94 l 558 419 l 365 299 l 365 400 l 669 590 l 669 0 l 257 0 q 122 36 158 0 q 83 172 83 74 l 83 882 m 575 1124 l 474 1124 l 378 1235 l 281 1124 l 178 1124 l 333 1294 l 426 1294 l 575 1124 z "},"ĝ":{"ha":726,"x_min":69,"x_max":671,"o":"m 583 600 l 583 -185 q 555 -274 583 -243 q 456 -304 526 -304 l 119 -304 l 119 -115 l 214 -115 l 214 -208 l 469 -208 l 469 154 l 232 4 q 165 -14 201 -14 q 99 15 128 -14 q 69 85 69 43 l 69 572 q 88 661 69 640 q 188 694 118 694 l 671 694 l 671 600 l 583 600 m 469 600 l 178 600 l 178 83 l 469 267 l 469 600 m 561 776 l 460 776 l 364 888 l 267 776 l 164 776 l 319 947 l 413 947 l 561 776 z "},"Ğ":{"ha":753,"x_min":83,"x_max":669,"o":"m 83 882 q 232 1042 83 1042 l 669 1042 l 669 785 l 558 785 l 558 947 l 197 947 l 197 94 l 558 94 l 558 419 l 365 299 l 365 400 l 669 590 l 669 0 l 257 0 q 122 36 158 0 q 83 172 83 74 l 83 882 m 589 1315 q 526 1164 589 1225 q 376 1103 463 1103 q 225 1165 288 1103 q 163 1315 163 1228 l 236 1315 q 277 1219 236 1260 q 376 1178 318 1178 q 474 1219 433 1178 q 515 1315 515 1260 l 589 1315 z "},"ğ":{"ha":726,"x_min":69,"x_max":671,"o":"m 583 600 l 583 -185 q 555 -274 583 -243 q 456 -304 526 -304 l 119 -304 l 119 -115 l 214 -115 l 214 -208 l 469 -208 l 469 154 l 232 4 q 165 -14 201 -14 q 99 15 128 -14 q 69 85 69 43 l 69 572 q 88 661 69 640 q 188 694 118 694 l 671 694 l 671 600 l 583 600 m 469 600 l 178 600 l 178 83 l 469 267 l 469 600 m 576 968 q 514 817 576 878 q 364 756 450 756 q 213 818 275 756 q 150 968 150 881 l 224 968 q 265 872 224 913 q 364 831 306 831 q 462 872 421 831 q 503 968 503 913 l 576 968 z "},"Ġ":{"ha":753,"x_min":83,"x_max":669,"o":"m 83 882 q 232 1042 83 1042 l 669 1042 l 669 785 l 558 785 l 558 947 l 197 947 l 197 94 l 558 94 l 558 419 l 365 299 l 365 400 l 669 590 l 669 0 l 257 0 q 122 36 158 0 q 83 172 83 74 l 83 882 m 377 1275 q 389 1275 377 1275 q 419 1256 401 1275 q 436 1213 436 1238 q 419 1170 436 1188 q 376 1153 401 1153 q 334 1170 351 1153 q 317 1213 317 1188 q 335 1256 317 1238 q 377 1275 353 1275 z "},"ġ":{"ha":726,"x_min":69,"x_max":671,"o":"m 583 600 l 583 -185 q 555 -274 583 -243 q 456 -304 526 -304 l 119 -304 l 119 -115 l 214 -115 l 214 -208 l 469 -208 l 469 154 l 232 4 q 165 -14 201 -14 q 99 15 128 -14 q 69 85 69 43 l 69 572 q 88 661 69 640 q 188 694 118 694 l 671 694 l 671 600 l 583 600 m 469 600 l 178 600 l 178 83 l 469 267 l 469 600 m 363 928 q 375 928 363 928 q 405 909 388 928 q 422 865 422 890 q 405 823 422 840 q 363 806 388 806 q 320 823 338 806 q 303 865 303 840 q 321 909 303 890 q 363 928 339 928 z "},"Ģ":{"ha":753,"x_min":83,"x_max":669,"o":"m 83 882 q 232 1042 83 1042 l 669 1042 l 669 785 l 558 785 l 558 947 l 197 947 l 197 94 l 558 94 l 558 419 l 365 299 l 365 400 l 669 590 l 669 0 l 257 0 q 122 36 158 0 q 83 172 83 74 l 83 882 m 401 -104 l 500 -104 l 354 -275 l 253 -275 l 401 -104 z "},"ģ":{"ha":726,"x_min":69,"x_max":671,"o":"m 404 946 l 503 946 l 357 775 l 256 775 l 404 946 m 671 600 l 671 694 l 188 694 q 92 667 118 694 q 69 572 69 640 l 69 85 q 99 15 69 43 q 165 -14 128 -14 q 232 4 201 -14 l 469 154 l 469 -208 l 214 -208 l 214 -115 l 119 -115 l 119 -304 l 456 -304 q 555 -274 526 -304 q 583 -185 583 -243 l 583 600 l 671 600 m 469 267 l 178 83 l 178 600 l 469 600 l 469 267 z "},"Ĥ":{"ha":969,"x_min":90,"x_max":879,"o":"m 792 947 l 792 94 l 879 94 l 879 0 l 593 0 l 593 94 l 678 94 l 678 492 l 292 492 l 292 94 l 376 94 l 376 0 l 90 0 l 90 94 l 178 94 l 178 947 l 90 947 l 90 1042 l 376 1042 l 376 947 l 292 947 l 292 585 l 678 585 l 678 947 l 593 947 l 593 1042 l 879 1042 l 879 947 l 792 947 m 683 1124 l 582 1124 l 486 1235 l 389 1124 l 286 1124 l 442 1294 l 535 1294 l 683 1124 z "},"ĥ":{"ha":789,"x_min":56,"x_max":733,"o":"m 733 94 l 733 0 l 465 0 l 465 94 l 532 94 l 532 608 l 256 435 l 256 94 l 324 94 l 324 0 l 56 0 l 56 94 l 143 94 l 143 947 l 56 947 l 56 1042 l 256 1042 l 256 547 l 486 692 q 549 708 513 708 q 615 680 585 708 q 644 599 644 651 l 644 94 l 733 94 m 685 871 l 583 871 l 488 982 l 390 871 l 288 871 l 443 1042 l 536 1042 l 685 871 z "},"Ħ":{"ha":969,"x_min":90,"x_max":879,"o":"m 96 782 l 178 782 l 178 947 l 90 947 l 90 1042 l 376 1042 l 376 947 l 292 947 l 292 782 l 678 782 l 678 947 l 593 947 l 593 1042 l 879 1042 l 879 947 l 792 947 l 792 782 l 875 782 l 875 694 l 792 694 l 792 94 l 879 94 l 879 0 l 593 0 l 593 94 l 678 94 l 678 492 l 292 492 l 292 94 l 376 94 l 376 0 l 90 0 l 90 94 l 178 94 l 178 694 l 96 694 l 96 782 m 678 585 l 678 694 l 292 694 l 292 585 l 678 585 z "},"ħ":{"ha":789,"x_min":56,"x_max":733,"o":"m 58 839 l 143 839 l 143 947 l 56 947 l 56 1042 l 256 1042 l 256 839 l 413 839 l 413 751 l 256 751 l 256 547 l 486 692 q 549 708 513 708 q 615 680 585 708 q 644 599 644 651 l 644 94 l 733 94 l 733 0 l 465 0 l 465 94 l 532 94 l 532 608 l 256 435 l 256 94 l 324 94 l 324 0 l 56 0 l 56 94 l 143 94 l 143 751 l 58 751 l 58 839 z "},"Ĩ":{"ha":514,"x_min":28,"x_max":486,"o":"m 313 94 l 403 94 l 403 0 l 111 0 l 111 94 l 199 94 l 199 947 l 111 947 l 111 1042 l 403 1042 l 403 947 l 313 947 l 313 94 m 486 1233 q 447 1175 475 1201 q 347 1126 392 1126 q 270 1152 314 1126 q 203 1190 226 1178 q 158 1201 181 1201 q 119 1188 135 1201 q 85 1133 104 1174 l 28 1175 q 65 1231 38 1206 q 150 1281 117 1281 q 212 1269 183 1281 q 266 1242 240 1257 q 313 1216 292 1228 q 353 1204 333 1204 q 398 1225 374 1204 q 433 1272 422 1246 l 486 1233 z "},"ĩ":{"ha":417,"x_min":-21,"x_max":438,"o":"m 271 94 l 361 94 l 361 0 l 69 0 l 69 94 l 157 94 l 157 600 l 69 600 l 69 694 l 271 694 l 271 94 m 438 886 q 399 828 426 854 q 299 779 343 779 q 222 805 265 779 q 155 842 178 831 q 109 854 132 854 q 71 840 86 854 q 36 786 56 826 l -21 828 q 17 883 -11 858 q 101 933 68 933 q 163 922 135 933 q 217 895 192 910 q 264 869 243 881 q 305 857 285 857 q 349 878 325 857 q 385 925 374 899 l 438 886 z "},"Ī":{"ha":514,"x_min":79,"x_max":433,"o":"m 313 94 l 403 94 l 403 0 l 111 0 l 111 94 l 199 94 l 199 947 l 111 947 l 111 1042 l 403 1042 l 403 947 l 313 947 l 313 94 m 79 1233 l 433 1233 l 433 1146 l 79 1146 l 79 1233 z "},"ī":{"ha":417,"x_min":31,"x_max":385,"o":"m 271 94 l 361 94 l 361 0 l 69 0 l 69 94 l 157 94 l 157 600 l 69 600 l 69 694 l 271 694 l 271 94 m 31 886 l 385 886 l 385 799 l 31 799 l 31 886 z "},"Ĭ":{"ha":514,"x_min":43,"x_max":469,"o":"m 313 94 l 403 94 l 403 0 l 111 0 l 111 94 l 199 94 l 199 947 l 111 947 l 111 1042 l 403 1042 l 403 947 l 313 947 l 313 94 m 469 1315 q 407 1164 469 1225 q 257 1103 343 1103 q 106 1165 168 1103 q 43 1315 43 1228 l 117 1315 q 158 1219 117 1260 q 257 1178 199 1178 q 355 1219 314 1178 q 396 1315 396 1260 l 469 1315 z "},"ĭ":{"ha":417,"x_min":-4,"x_max":422,"o":"m 271 94 l 361 94 l 361 0 l 69 0 l 69 94 l 157 94 l 157 600 l 69 600 l 69 694 l 271 694 l 271 94 m 422 968 q 360 817 422 878 q 210 756 296 756 q 58 818 121 756 q -4 968 -4 881 l 69 968 q 110 872 69 913 q 210 831 151 831 q 308 872 267 831 q 349 968 349 913 l 422 968 z "},"Į":{"ha":514,"x_min":111,"x_max":403,"o":"m 313 94 l 403 94 l 403 0 l 111 0 l 111 94 l 199 94 l 199 947 l 111 947 l 111 1042 l 403 1042 l 403 947 l 313 947 l 313 94 m 403 0 l 253 -124 l 253 -228 l 375 -228 l 375 -301 l 261 -301 q 185 -274 203 -301 q 167 -207 167 -246 l 167 -164 q 179 -105 167 -124 q 206 -74 192 -86 q 242 -47 221 -62 l 303 0 l 403 0 z "},"į":{"ha":417,"x_min":69,"x_max":361,"o":"m 271 94 l 361 94 l 361 0 l 69 0 l 69 94 l 157 94 l 157 600 l 69 600 l 69 694 l 271 694 l 271 94 m 214 950 q 228 950 214 950 q 263 928 243 950 q 283 877 283 907 q 263 827 283 847 q 213 807 243 807 q 163 827 183 807 q 143 877 143 847 q 164 928 143 907 q 214 950 185 950 m 326 0 l 176 -124 l 176 -228 l 299 -228 l 299 -301 l 185 -301 q 108 -274 126 -301 q 90 -207 90 -246 l 90 -164 q 103 -105 90 -124 q 130 -74 115 -86 q 165 -47 144 -62 l 226 0 l 326 0 z "},"İ":{"ha":514,"x_min":111,"x_max":403,"o":"m 313 94 l 403 94 l 403 0 l 111 0 l 111 94 l 199 94 l 199 947 l 111 947 l 111 1042 l 403 1042 l 403 947 l 313 947 l 313 94 m 258 1275 q 270 1275 258 1275 q 299 1256 282 1275 q 317 1213 317 1238 q 299 1170 317 1188 q 257 1153 282 1153 q 215 1170 232 1153 q 197 1213 197 1188 q 215 1256 197 1238 q 258 1275 233 1275 z "},"ı":{"ha":417,"x_min":69,"x_max":361,"o":"m 271 94 l 361 94 l 361 0 l 69 0 l 69 94 l 157 94 l 157 600 l 69 600 l 69 694 l 271 694 l 271 94 z "},"Ĵ":{"ha":564,"x_min":28,"x_max":524,"o":"m 474 947 l 383 947 l 383 163 q 307 14 383 53 q 235 0 278 0 l 28 0 l 28 94 l 269 94 l 269 947 l 181 947 l 181 1042 l 474 1042 l 474 947 m 524 1124 l 422 1124 l 326 1235 l 229 1124 l 126 1124 l 282 1294 l 375 1294 l 524 1124 z "},"Ķ":{"ha":840,"x_min":90,"x_max":799,"o":"m 799 94 l 799 0 l 640 0 l 292 518 l 292 94 l 382 94 l 382 0 l 90 0 l 90 94 l 178 94 l 178 947 l 90 947 l 90 1042 l 382 1042 l 382 947 l 286 947 l 286 560 l 640 1042 l 790 1042 l 790 947 l 697 947 l 408 542 l 710 94 l 799 94 m 444 -104 l 543 -104 l 397 -275 l 296 -275 l 444 -104 z "},"ķ":{"ha":704,"x_min":56,"x_max":676,"o":"m 676 94 l 676 0 l 557 0 l 256 350 l 256 94 l 339 94 l 339 0 l 56 0 l 56 94 l 144 94 l 144 947 l 56 947 l 56 1042 l 250 1042 l 250 383 l 567 694 l 675 694 l 675 600 l 599 600 l 372 368 l 604 94 l 676 94 m 376 -104 l 475 -104 l 329 -275 l 228 -275 l 376 -104 z "},"ĸ":{"ha":704,"x_min":56,"x_max":676,"o":"m 676 94 l 676 0 l 557 0 l 256 350 l 256 94 l 339 94 l 339 0 l 56 0 l 56 94 l 144 94 l 144 600 l 56 600 l 56 694 l 250 694 l 250 383 l 567 694 l 675 694 l 675 600 l 599 600 l 372 368 l 604 94 l 676 94 z "},"Ĺ":{"ha":733,"x_min":90,"x_max":678,"o":"m 90 0 l 678 0 l 678 257 l 583 257 l 583 94 l 292 94 l 292 947 l 382 947 l 382 1042 l 90 1042 l 90 947 l 178 947 l 178 94 l 90 94 l 90 0 m 392 1294 l 490 1294 l 344 1124 l 243 1124 l 392 1294 z "},"ĺ":{"ha":385,"x_min":65,"x_max":361,"o":"m 271 1042 l 69 1042 l 69 947 l 157 947 l 157 94 l 69 94 l 69 0 l 361 0 l 361 94 l 271 94 l 271 1042 m 214 1274 l 313 1274 l 167 1103 l 65 1103 l 214 1274 z "},"Ļ":{"ha":733,"x_min":90,"x_max":678,"o":"m 90 94 l 178 94 l 178 947 l 90 947 l 90 1042 l 382 1042 l 382 947 l 292 947 l 292 94 l 583 94 l 583 257 l 678 257 l 678 0 l 90 0 l 90 94 m 392 -104 l 490 -104 l 344 -275 l 243 -275 l 392 -104 z "},"ļ":{"ha":431,"x_min":69,"x_max":361,"o":"m 271 94 l 361 94 l 361 0 l 69 0 l 69 94 l 157 94 l 157 947 l 69 947 l 69 1042 l 271 1042 l 271 94 m 240 -104 l 339 -104 l 193 -275 l 92 -275 l 240 -104 z "},"Ľ":{"ha":733,"x_min":38,"x_max":678,"o":"m 286 1099 l 193 1099 l 38 1269 l 140 1269 l 238 1158 l 333 1269 l 435 1269 l 286 1099 m 90 94 l 178 94 l 178 947 l 90 947 l 90 1042 l 382 1042 l 382 947 l 292 947 l 292 94 l 583 94 l 583 257 l 678 257 l 678 0 l 90 0 l 90 94 z "},"ľ":{"ha":506,"x_min":69,"x_max":504,"o":"m 271 94 l 361 94 l 361 0 l 69 0 l 69 94 l 157 94 l 157 947 l 69 947 l 69 1042 l 271 1042 l 271 94 m 399 708 l 297 708 l 401 1042 l 504 1042 l 399 708 z "},"Ŀ":{"ha":733,"x_min":90,"x_max":678,"o":"m 90 94 l 178 94 l 178 947 l 90 947 l 90 1042 l 382 1042 l 382 947 l 292 947 l 292 94 l 583 94 l 583 257 l 678 257 l 678 0 l 90 0 l 90 94 m 453 439 q 468 439 453 439 q 502 417 482 439 q 522 365 522 394 q 502 316 522 336 q 453 296 482 296 q 403 316 424 296 q 382 365 382 336 q 403 417 382 394 q 453 439 425 439 z "},"ŀ":{"ha":465,"x_min":69,"x_max":454,"o":"m 271 94 l 361 94 l 361 0 l 69 0 l 69 94 l 157 94 l 157 947 l 69 947 l 69 1042 l 271 1042 l 271 94 m 385 439 q 400 439 385 439 q 434 417 414 439 q 454 365 454 394 q 434 316 454 336 q 385 296 414 296 q 335 316 356 296 q 314 365 314 336 q 335 417 314 394 q 385 439 357 439 z "},"Ł":{"ha":733,"x_min":63,"x_max":678,"o":"m 90 94 l 178 94 l 178 351 l 63 303 l 63 422 l 178 471 l 178 947 l 90 947 l 90 1042 l 382 1042 l 382 947 l 292 947 l 292 521 l 557 635 l 557 515 l 292 401 l 292 94 l 583 94 l 583 257 l 678 257 l 678 0 l 90 0 l 90 94 z "},"ł":{"ha":431,"x_min":15,"x_max":411,"o":"m 271 547 l 411 608 l 411 489 l 271 428 l 271 94 l 361 94 l 361 0 l 69 0 l 69 94 l 157 94 l 157 379 l 15 318 l 15 438 l 157 499 l 157 947 l 69 947 l 69 1042 l 271 1042 l 271 547 z "},"Ń":{"ha":999,"x_min":90,"x_max":908,"o":"m 908 1042 l 617 1042 l 617 947 l 707 947 l 707 214 l 304 1042 l 90 1042 l 90 947 l 178 947 l 178 94 l 90 94 l 90 0 l 382 0 l 382 94 l 292 94 l 292 811 l 685 0 l 821 0 l 821 947 l 908 947 l 908 1042 m 524 1294 l 622 1294 l 476 1124 l 375 1124 l 524 1294 z "},"ń":{"ha":789,"x_min":56,"x_max":733,"o":"m 644 601 q 536 708 644 708 q 486 694 508 708 l 256 550 l 256 694 l 56 694 l 56 601 l 143 601 l 143 94 l 56 94 l 56 0 l 324 0 l 324 94 l 256 94 l 256 438 l 532 611 l 532 94 l 465 94 l 465 0 l 733 0 l 733 94 l 644 94 l 644 601 m 419 947 l 518 947 l 372 776 l 271 776 l 419 947 z "},"Ņ":{"ha":999,"x_min":90,"x_max":908,"o":"m 908 947 l 821 947 l 821 0 l 685 0 l 292 811 l 292 94 l 382 94 l 382 0 l 90 0 l 90 94 l 178 94 l 178 947 l 90 947 l 90 1042 l 304 1042 l 707 214 l 707 947 l 617 947 l 617 1042 l 908 1042 l 908 947 m 524 -104 l 622 -104 l 476 -275 l 375 -275 l 524 -104 z "},"ņ":{"ha":789,"x_min":56,"x_max":733,"o":"m 536 708 q 644 601 644 708 l 644 94 l 733 94 l 733 0 l 465 0 l 465 94 l 532 94 l 532 611 l 256 438 l 256 94 l 324 94 l 324 0 l 56 0 l 56 94 l 143 94 l 143 601 l 56 601 l 56 694 l 256 694 l 256 550 l 486 694 q 536 708 508 708 m 419 -104 l 518 -104 l 372 -275 l 271 -275 l 419 -104 z "},"Ň":{"ha":999,"x_min":90,"x_max":908,"o":"m 908 947 l 821 947 l 821 0 l 685 0 l 292 811 l 292 94 l 382 94 l 382 0 l 90 0 l 90 94 l 178 94 l 178 947 l 90 947 l 90 1042 l 304 1042 l 707 214 l 707 947 l 617 947 l 617 1042 l 908 1042 l 908 947 m 549 1124 l 456 1124 l 300 1294 l 403 1294 l 500 1183 l 596 1294 l 697 1294 l 549 1124 z "},"ň":{"ha":789,"x_min":56,"x_max":733,"o":"m 536 708 q 644 601 644 708 l 644 94 l 733 94 l 733 0 l 465 0 l 465 94 l 532 94 l 532 611 l 256 438 l 256 94 l 324 94 l 324 0 l 56 0 l 56 94 l 143 94 l 143 601 l 56 601 l 56 694 l 256 694 l 256 550 l 486 694 q 536 708 508 708 m 444 776 l 351 776 l 196 947 l 299 947 l 396 836 l 492 947 l 593 947 l 444 776 z "},"ŉ":{"ha":789,"x_min":56,"x_max":733,"o":"m 644 601 q 536 708 644 708 q 486 694 508 708 l 256 550 l 256 694 l 56 694 l 56 601 l 143 601 l 143 94 l 56 94 l 56 0 l 324 0 l 324 94 l 256 94 l 256 438 l 532 611 l 532 94 l 465 94 l 465 0 l 733 0 l 733 94 l 644 94 l 644 601 m 204 943 l 303 943 l 157 772 l 56 772 l 204 943 z "},"Ŋ":{"ha":999,"x_min":90,"x_max":908,"o":"m 908 947 l 821 947 l 821 -139 q 744 -286 821 -249 q 672 -301 715 -301 l 465 -301 l 465 -207 l 707 -207 l 707 3 l 292 811 l 292 94 l 382 94 l 382 0 l 90 0 l 90 94 l 178 94 l 178 947 l 90 947 l 90 1042 l 304 1042 l 707 260 l 707 947 l 617 947 l 617 1042 l 908 1042 l 908 947 z "},"ŋ":{"ha":789,"x_min":56,"x_max":644,"o":"m 536 708 q 644 601 644 708 l 644 -185 q 616 -274 644 -243 q 517 -304 588 -304 l 324 -304 l 324 -208 l 532 -208 l 532 611 l 256 438 l 256 94 l 324 94 l 324 0 l 56 0 l 56 94 l 143 94 l 143 601 l 56 601 l 56 694 l 256 694 l 256 550 l 486 694 q 536 708 508 708 z "},"Ō":{"ha":753,"x_min":83,"x_max":669,"o":"m 508 1042 q 631 995 593 1042 q 669 857 669 949 l 669 189 q 636 44 669 89 q 515 0 603 0 l 249 0 q 92 100 115 0 q 83 168 83 131 l 83 857 q 114 992 83 950 q 238 1042 149 1042 l 508 1042 m 194 94 l 558 94 l 558 947 l 194 947 l 194 94 m 199 1233 l 553 1233 l 553 1146 l 199 1146 l 199 1233 z "},"ō":{"ha":626,"x_min":56,"x_max":571,"o":"m 185 0 q 85 33 114 0 q 56 124 56 65 l 56 571 q 81 660 56 626 q 185 694 107 694 l 442 694 q 544 660 518 694 q 571 571 571 626 l 571 124 q 542 33 571 65 q 442 0 513 0 l 185 0 m 168 94 l 458 94 l 458 600 l 168 600 l 168 94 m 136 886 l 490 886 l 490 799 l 136 799 l 136 886 z "},"Ŏ":{"ha":753,"x_min":83,"x_max":669,"o":"m 508 1042 q 631 995 593 1042 q 669 857 669 949 l 669 189 q 636 44 669 89 q 515 0 603 0 l 249 0 q 92 100 115 0 q 83 168 83 131 l 83 857 q 114 992 83 950 q 238 1042 149 1042 l 508 1042 m 194 94 l 558 94 l 558 947 l 194 947 l 194 94 m 589 1315 q 526 1164 589 1225 q 376 1103 463 1103 q 225 1165 288 1103 q 163 1315 163 1228 l 236 1315 q 277 1219 236 1260 q 376 1178 318 1178 q 474 1219 433 1178 q 515 1315 515 1260 l 589 1315 z "},"ŏ":{"ha":626,"x_min":56,"x_max":571,"o":"m 185 0 q 85 33 114 0 q 56 124 56 65 l 56 571 q 81 660 56 626 q 185 694 107 694 l 442 694 q 544 660 518 694 q 571 571 571 626 l 571 124 q 542 33 571 65 q 442 0 513 0 l 185 0 m 168 94 l 458 94 l 458 600 l 168 600 l 168 94 m 526 968 q 464 817 526 878 q 314 756 400 756 q 163 818 225 756 q 100 968 100 881 l 174 968 q 215 872 174 913 q 314 831 256 831 q 412 872 371 831 q 453 968 453 913 l 526 968 z "},"Ő":{"ha":753,"x_min":83,"x_max":669,"o":"m 238 1042 q 89 933 110 1042 q 83 857 83 900 l 83 168 q 169 11 83 44 q 249 0 200 0 l 515 0 q 636 44 603 0 q 669 189 669 89 l 669 857 q 631 995 669 949 q 508 1042 593 1042 l 238 1042 m 194 947 l 558 947 l 558 94 l 194 94 l 194 947 m 297 1294 l 396 1294 l 250 1124 l 149 1124 l 297 1294 m 504 1294 l 603 1294 l 457 1124 l 356 1124 l 504 1294 z "},"ő":{"ha":626,"x_min":56,"x_max":571,"o":"m 442 0 q 542 33 513 0 q 571 124 571 65 l 571 571 q 544 660 571 626 q 442 694 518 694 l 185 694 q 81 660 107 694 q 56 571 56 626 l 56 124 q 85 33 56 65 q 185 0 114 0 l 442 0 m 168 600 l 458 600 l 458 94 l 168 94 l 168 600 m 235 947 l 333 947 l 188 776 l 86 776 l 235 947 m 442 947 l 540 947 l 394 776 l 293 776 l 442 947 z "},"Œ":{"ha":1138,"x_min":83,"x_max":1054,"o":"m 1054 1042 l 1054 785 l 960 785 l 960 947 l 636 947 l 636 578 l 875 729 l 875 617 l 636 468 l 636 94 l 960 94 l 960 257 l 1054 257 l 1054 0 l 249 0 q 92 100 115 0 q 83 168 83 131 l 83 857 q 114 992 83 950 q 238 1042 149 1042 l 1054 1042 m 194 94 l 522 94 l 522 396 l 435 340 l 435 453 l 522 508 l 522 947 l 194 947 l 194 94 z "},"œ":{"ha":1033,"x_min":83,"x_max":950,"o":"m 213 0 q 113 33 142 0 q 83 124 83 65 l 83 571 q 109 660 83 626 q 213 694 135 694 l 821 694 q 919 669 889 694 q 950 572 950 643 l 950 443 l 569 193 l 569 94 l 840 94 l 840 175 l 950 175 l 950 101 q 924 30 950 60 q 839 0 899 0 l 213 0 m 196 94 l 458 94 l 458 600 l 196 600 l 196 94 m 571 306 l 839 485 l 839 600 l 569 600 l 571 306 z "},"Ŕ":{"ha":897,"x_min":90,"x_max":876,"o":"m 799 94 l 525 531 q 631 594 589 569 q 697 644 672 619 q 732 699 722 668 q 742 782 742 729 l 742 868 q 710 1006 742 971 q 586 1042 678 1042 l 90 1042 l 90 947 l 178 947 l 178 94 l 90 94 l 90 0 l 382 0 l 382 94 l 292 94 l 292 386 l 439 476 l 676 94 l 601 94 l 601 0 l 876 0 l 876 94 l 799 94 m 292 947 l 640 947 l 640 713 l 292 497 l 292 947 m 474 1294 l 572 1294 l 426 1124 l 325 1124 l 474 1294 z "},"ŕ":{"ha":640,"x_min":56,"x_max":585,"o":"m 585 588 q 476 694 585 694 q 426 681 449 694 l 256 574 l 256 696 l 56 696 l 56 601 l 143 601 l 143 94 l 56 94 l 56 0 l 324 0 l 324 94 l 256 94 l 256 461 l 472 599 l 472 464 l 585 464 l 585 588 m 344 947 l 443 947 l 297 776 l 196 776 l 344 947 z "},"Ŗ":{"ha":897,"x_min":90,"x_max":876,"o":"m 471 -104 l 569 -104 l 424 -275 l 322 -275 l 471 -104 m 876 94 l 876 0 l 601 0 l 601 94 l 676 94 l 439 476 l 292 386 l 292 94 l 382 94 l 382 0 l 90 0 l 90 94 l 178 94 l 178 947 l 90 947 l 90 1042 l 586 1042 q 710 1006 678 1042 q 742 868 742 971 l 742 782 q 732 699 742 729 q 697 644 722 668 q 631 594 672 619 q 525 531 589 569 l 799 94 l 876 94 m 292 497 l 640 713 l 640 947 l 292 947 l 292 497 z "},"ŗ":{"ha":640,"x_min":54,"x_max":585,"o":"m 476 694 q 585 588 585 694 l 585 464 l 472 464 l 472 599 l 256 461 l 256 94 l 324 94 l 324 0 l 56 0 l 56 94 l 143 94 l 143 601 l 56 601 l 56 696 l 256 696 l 256 574 l 426 681 q 476 694 449 694 m 203 -104 l 301 -104 l 156 -275 l 54 -275 l 203 -104 z "},"Ř":{"ha":897,"x_min":90,"x_max":876,"o":"m 876 94 l 876 0 l 601 0 l 601 94 l 676 94 l 439 476 l 292 386 l 292 94 l 382 94 l 382 0 l 90 0 l 90 94 l 178 94 l 178 947 l 90 947 l 90 1042 l 586 1042 q 710 1006 678 1042 q 742 868 742 971 l 742 782 q 732 699 742 729 q 697 644 722 668 q 631 594 672 619 q 525 531 589 569 l 799 94 l 876 94 m 292 497 l 640 713 l 640 947 l 292 947 l 292 497 m 499 1124 l 406 1124 l 250 1294 l 353 1294 l 450 1183 l 546 1294 l 647 1294 l 499 1124 z "},"ř":{"ha":640,"x_min":56,"x_max":585,"o":"m 476 694 q 585 588 585 694 l 585 464 l 472 464 l 472 599 l 256 461 l 256 94 l 324 94 l 324 0 l 56 0 l 56 94 l 143 94 l 143 601 l 56 601 l 56 696 l 256 696 l 256 574 l 426 681 q 476 694 449 694 m 369 776 l 276 776 l 121 947 l 224 947 l 321 836 l 417 947 l 518 947 l 369 776 z "},"Ś":{"ha":753,"x_min":83,"x_max":669,"o":"m 194 725 l 194 947 l 557 947 l 557 785 l 657 785 l 657 1042 l 238 1042 q 122 1015 156 1042 q 83 903 83 985 l 83 728 q 115 647 83 676 q 194 589 146 617 l 558 365 l 558 94 l 183 94 l 183 257 l 83 257 l 83 0 l 526 0 q 658 69 622 0 q 669 126 669 93 l 669 363 q 592 475 669 429 q 539 510 567 490 l 194 725 m 401 1294 l 500 1294 l 354 1124 l 253 1124 l 401 1294 z "},"ś":{"ha":610,"x_min":69,"x_max":540,"o":"m 421 0 q 540 122 540 0 l 540 208 q 467 306 540 263 q 415 336 444 318 l 179 483 l 179 600 l 429 600 l 429 486 l 524 486 l 524 694 l 200 694 q 75 619 93 694 q 69 571 69 596 l 69 492 q 100 417 69 444 q 142 389 117 403 q 201 353 167 375 l 429 210 l 429 94 l 179 94 l 179 210 l 85 210 l 85 0 l 421 0 m 329 947 l 428 947 l 282 776 l 181 776 l 329 947 z "},"Ŝ":{"ha":753,"x_min":83,"x_max":669,"o":"m 539 510 q 591 476 567 490 q 633 444 615 461 q 669 363 669 411 l 669 126 q 625 31 669 64 q 526 0 588 0 l 83 0 l 83 257 l 183 257 l 183 94 l 558 94 l 558 365 l 194 589 q 115 647 146 617 q 83 728 83 676 l 83 903 q 122 1015 83 985 q 238 1042 156 1042 l 657 1042 l 657 785 l 557 785 l 557 947 l 194 947 l 194 725 l 539 510 m 575 1124 l 474 1124 l 378 1235 l 281 1124 l 178 1124 l 333 1294 l 426 1294 l 575 1124 z "},"ŝ":{"ha":610,"x_min":69,"x_max":540,"o":"m 540 122 q 421 0 540 0 l 85 0 l 85 210 l 179 210 l 179 94 l 429 94 l 429 210 l 201 353 q 142 389 167 375 q 100 417 117 403 q 69 492 69 444 l 69 571 q 89 651 69 629 q 200 694 126 694 l 524 694 l 524 486 l 429 486 l 429 600 l 179 600 l 179 483 l 415 336 q 467 305 444 318 q 506 278 490 292 q 540 208 540 249 l 540 122 m 503 776 l 401 776 l 306 888 l 208 776 l 106 776 l 261 947 l 354 947 l 503 776 z "},"Ş":{"ha":753,"x_min":83,"x_max":669,"o":"m 258 0 l 83 0 l 83 257 l 183 257 l 183 94 l 558 94 l 558 365 l 194 589 q 115 647 146 617 q 83 728 83 676 l 83 903 q 122 1015 83 985 q 238 1042 156 1042 l 657 1042 l 657 785 l 557 785 l 557 947 l 194 947 l 194 725 l 539 510 q 591 476 567 490 q 633 444 615 461 q 669 363 669 411 l 669 126 q 625 31 669 64 q 526 0 588 0 l 340 0 l 340 -58 l 392 -58 q 469 -85 444 -58 q 494 -156 494 -111 l 494 -207 q 476 -274 494 -246 q 400 -301 458 -301 l 258 -301 l 258 -228 l 408 -228 l 408 -135 l 258 -135 l 258 0 z "},"ş":{"ha":610,"x_min":69,"x_max":540,"o":"m 540 122 q 421 0 540 0 l 268 0 l 268 -58 l 319 -58 q 397 -85 372 -58 q 422 -156 422 -111 l 422 -207 q 404 -274 422 -246 q 328 -301 386 -301 l 186 -301 l 186 -228 l 336 -228 l 336 -135 l 186 -135 l 186 0 l 85 0 l 85 210 l 179 210 l 179 94 l 429 94 l 429 210 l 201 353 q 142 389 167 375 q 100 417 117 403 q 69 492 69 444 l 69 571 q 89 651 69 629 q 200 694 126 694 l 524 694 l 524 486 l 429 486 l 429 600 l 179 600 l 179 483 l 415 336 q 467 305 444 318 q 506 278 490 292 q 540 208 540 249 l 540 122 z "},"Š":{"ha":753,"x_min":83,"x_max":669,"o":"m 539 510 q 591 476 567 490 q 633 444 615 461 q 669 363 669 411 l 669 126 q 625 31 669 64 q 526 0 588 0 l 83 0 l 83 257 l 183 257 l 183 94 l 558 94 l 558 365 l 194 589 q 115 647 146 617 q 83 728 83 676 l 83 903 q 122 1015 83 985 q 238 1042 156 1042 l 657 1042 l 657 785 l 557 785 l 557 947 l 194 947 l 194 725 l 539 510 m 426 1124 l 333 1124 l 178 1294 l 281 1294 l 378 1183 l 474 1294 l 575 1294 l 426 1124 z "},"š":{"ha":610,"x_min":69,"x_max":540,"o":"m 540 122 q 421 0 540 0 l 85 0 l 85 210 l 179 210 l 179 94 l 429 94 l 429 210 l 201 353 q 142 389 167 375 q 100 417 117 403 q 69 492 69 444 l 69 571 q 89 651 69 629 q 200 694 126 694 l 524 694 l 524 486 l 429 486 l 429 600 l 179 600 l 179 483 l 415 336 q 467 305 444 318 q 506 278 490 292 q 540 208 540 249 l 540 122 m 354 776 l 261 776 l 106 947 l 208 947 l 306 836 l 401 947 l 503 947 l 354 776 z "},"Ţ":{"ha":735,"x_min":35,"x_max":700,"o":"m 222 94 l 310 94 l 310 947 l 135 947 l 135 783 l 35 783 l 35 1042 l 700 1042 l 700 783 l 599 783 l 599 947 l 424 947 l 424 94 l 514 94 l 514 0 l 222 0 l 222 94 m 335 -104 l 433 -104 l 288 -275 l 186 -275 l 335 -104 z "},"ţ":{"ha":440,"x_min":56,"x_max":399,"o":"m 267 947 l 267 694 l 379 694 l 379 594 l 267 594 l 267 94 l 399 94 l 399 0 l 282 0 q 189 33 219 0 q 158 144 158 65 l 158 594 l 56 594 l 56 694 l 158 694 l 158 947 l 267 947 m 290 -104 l 389 -104 l 243 -275 l 142 -275 l 290 -104 z "},"Ť":{"ha":735,"x_min":35,"x_max":700,"o":"m 222 94 l 310 94 l 310 947 l 135 947 l 135 783 l 35 783 l 35 1042 l 700 1042 l 700 783 l 599 783 l 599 947 l 424 947 l 424 94 l 514 94 l 514 0 l 222 0 l 222 94 m 417 1124 l 324 1124 l 168 1294 l 271 1294 l 368 1183 l 464 1294 l 565 1294 l 417 1124 z "},"ť":{"ha":531,"x_min":56,"x_max":526,"o":"m 267 947 l 267 694 l 379 694 l 379 594 l 267 594 l 267 94 l 399 94 l 399 0 l 282 0 q 189 33 219 0 q 158 144 158 65 l 158 594 l 56 594 l 56 694 l 158 694 l 158 947 l 267 947 m 421 749 l 321 749 l 424 1042 l 526 1042 l 421 749 z "},"Ŧ":{"ha":735,"x_min":35,"x_max":700,"o":"m 190 582 l 310 582 l 310 947 l 135 947 l 135 783 l 35 783 l 35 1042 l 700 1042 l 700 783 l 599 783 l 599 947 l 424 947 l 424 582 l 544 582 l 544 494 l 424 494 l 424 94 l 514 94 l 514 0 l 222 0 l 222 94 l 310 94 l 310 494 l 190 494 l 190 582 z "},"ŧ":{"ha":440,"x_min":56,"x_max":399,"o":"m 56 492 l 158 492 l 158 594 l 56 594 l 56 694 l 158 694 l 158 947 l 267 947 l 267 694 l 379 694 l 379 594 l 267 594 l 267 492 l 378 492 l 378 404 l 267 404 l 267 94 l 399 94 l 399 0 l 282 0 q 189 33 219 0 q 158 144 158 65 l 158 404 l 56 404 l 56 492 z "},"Ũ":{"ha":947,"x_min":83,"x_max":864,"o":"m 294 0 q 171 138 171 0 l 171 947 l 83 947 l 83 1042 l 375 1042 l 375 947 l 285 947 l 285 94 l 663 94 l 663 947 l 572 947 l 572 1042 l 864 1042 l 864 947 l 776 947 l 776 144 q 651 0 776 0 l 294 0 m 703 1233 q 664 1175 692 1201 q 564 1126 608 1126 q 487 1152 531 1126 q 420 1190 443 1178 q 374 1201 397 1201 q 336 1188 351 1201 q 301 1133 321 1174 l 244 1175 q 282 1231 254 1206 q 367 1281 333 1281 q 428 1269 400 1281 q 483 1242 457 1257 q 529 1216 508 1228 q 570 1204 550 1204 q 615 1225 590 1204 q 650 1272 639 1246 l 703 1233 z "},"ũ":{"ha":789,"x_min":56,"x_max":733,"o":"m 253 -3 q 144 104 144 -3 l 144 601 l 56 601 l 56 696 l 257 696 l 257 94 l 533 268 l 533 601 l 465 601 l 465 696 l 646 696 l 646 94 l 733 94 l 733 0 l 533 0 l 533 156 l 303 11 q 253 -3 281 -3 m 624 886 q 585 828 613 854 q 485 779 529 779 q 408 805 451 779 q 341 842 364 831 q 295 854 318 854 q 257 840 272 854 q 222 786 242 826 l 165 828 q 203 883 175 858 q 288 933 254 933 q 349 922 321 933 q 403 895 378 910 q 450 869 429 881 q 491 857 471 857 q 535 878 511 857 q 571 925 560 899 l 624 886 z "},"Ū":{"ha":947,"x_min":83,"x_max":864,"o":"m 294 0 q 171 138 171 0 l 171 947 l 83 947 l 83 1042 l 375 1042 l 375 947 l 285 947 l 285 94 l 663 94 l 663 947 l 572 947 l 572 1042 l 864 1042 l 864 947 l 776 947 l 776 144 q 651 0 776 0 l 294 0 m 296 1233 l 650 1233 l 650 1146 l 296 1146 l 296 1233 z "},"ū":{"ha":789,"x_min":56,"x_max":733,"o":"m 253 -3 q 144 104 144 -3 l 144 601 l 56 601 l 56 696 l 257 696 l 257 94 l 533 268 l 533 601 l 465 601 l 465 696 l 646 696 l 646 94 l 733 94 l 733 0 l 533 0 l 533 156 l 303 11 q 253 -3 281 -3 m 217 886 l 571 886 l 571 799 l 217 799 l 217 886 z "},"Ŭ":{"ha":947,"x_min":83,"x_max":864,"o":"m 294 0 q 171 138 171 0 l 171 947 l 83 947 l 83 1042 l 375 1042 l 375 947 l 285 947 l 285 94 l 663 94 l 663 947 l 572 947 l 572 1042 l 864 1042 l 864 947 l 776 947 l 776 144 q 651 0 776 0 l 294 0 m 686 1315 q 624 1164 686 1225 q 474 1103 560 1103 q 322 1165 385 1103 q 260 1315 260 1228 l 333 1315 q 374 1219 333 1260 q 474 1178 415 1178 q 572 1219 531 1178 q 613 1315 613 1260 l 686 1315 z "},"ŭ":{"ha":789,"x_min":56,"x_max":733,"o":"m 253 -3 q 144 104 144 -3 l 144 601 l 56 601 l 56 696 l 257 696 l 257 94 l 533 268 l 533 601 l 465 601 l 465 696 l 646 696 l 646 94 l 733 94 l 733 0 l 533 0 l 533 156 l 303 11 q 253 -3 281 -3 m 607 968 q 544 817 607 878 q 394 756 481 756 q 243 818 306 756 q 181 968 181 881 l 254 968 q 295 872 254 913 q 394 831 336 831 q 492 872 451 831 q 533 968 533 913 l 607 968 z "},"Ů":{"ha":947,"x_min":83,"x_max":864,"o":"m 294 0 q 171 138 171 0 l 171 947 l 83 947 l 83 1042 l 375 1042 l 375 947 l 285 947 l 285 94 l 663 94 l 663 947 l 572 947 l 572 1042 l 864 1042 l 864 947 l 776 947 l 776 144 q 651 0 776 0 l 294 0 m 350 1214 q 350 1239 350 1214 q 386 1300 350 1264 q 475 1336 422 1336 q 561 1300 525 1336 q 597 1213 597 1264 q 561 1125 597 1161 q 474 1089 525 1089 q 386 1125 421 1089 q 350 1214 350 1164 m 418 1214 q 434 1174 418 1190 q 474 1157 450 1157 q 514 1174 497 1157 q 531 1213 531 1190 q 514 1253 531 1236 q 474 1269 497 1269 q 435 1253 451 1269 q 418 1214 418 1238 z "},"ů":{"ha":789,"x_min":56,"x_max":733,"o":"m 253 -3 q 144 104 144 -3 l 144 601 l 56 601 l 56 696 l 257 696 l 257 94 l 533 268 l 533 601 l 465 601 l 465 696 l 646 696 l 646 94 l 733 94 l 733 0 l 533 0 l 533 156 l 303 11 q 253 -3 281 -3 m 271 867 q 271 892 271 867 q 307 953 271 917 q 396 989 343 989 q 482 953 446 989 q 518 865 518 917 q 482 778 518 814 q 394 742 446 742 q 307 778 342 742 q 271 867 271 817 m 339 867 q 355 826 339 843 q 394 810 371 810 q 435 826 418 810 q 451 866 451 843 q 435 906 451 889 q 395 922 418 922 q 356 906 372 922 q 339 867 339 890 z "},"Ű":{"ha":947,"x_min":83,"x_max":864,"o":"m 651 0 q 776 144 776 0 l 776 947 l 864 947 l 864 1042 l 572 1042 l 572 947 l 663 947 l 663 94 l 285 94 l 285 947 l 375 947 l 375 1042 l 83 1042 l 83 947 l 171 947 l 171 138 q 294 0 171 0 l 651 0 m 394 1294 l 493 1294 l 347 1124 l 246 1124 l 394 1294 m 601 1294 l 700 1294 l 554 1124 l 453 1124 l 601 1294 z "},"ű":{"ha":789,"x_min":56,"x_max":733,"o":"m 144 104 q 253 -3 144 -3 q 303 11 281 -3 l 533 156 l 533 0 l 733 0 l 733 94 l 646 94 l 646 696 l 465 696 l 465 601 l 533 601 l 533 268 l 257 94 l 257 696 l 56 696 l 56 601 l 144 601 l 144 104 m 315 947 l 414 947 l 268 776 l 167 776 l 315 947 m 522 947 l 621 947 l 475 776 l 374 776 l 522 947 z "},"Ų":{"ha":947,"x_min":83,"x_max":864,"o":"m 294 0 q 171 138 171 0 l 171 947 l 83 947 l 83 1042 l 375 1042 l 375 947 l 285 947 l 285 94 l 663 94 l 663 947 l 572 947 l 572 1042 l 864 1042 l 864 947 l 776 947 l 776 144 q 651 0 776 0 l 294 0 m 571 0 l 421 -124 l 421 -228 l 543 -228 l 543 -301 l 429 -301 q 353 -274 371 -301 q 335 -207 335 -246 l 335 -164 q 347 -105 335 -124 q 374 -74 360 -86 q 410 -47 389 -62 l 471 0 l 571 0 z "},"ų":{"ha":789,"x_min":56,"x_max":733,"o":"m 253 -3 q 144 104 144 -3 l 144 601 l 56 601 l 56 696 l 257 696 l 257 94 l 533 268 l 533 601 l 465 601 l 465 696 l 646 696 l 646 94 l 733 94 l 733 0 l 533 0 l 533 156 l 303 11 q 253 -3 281 -3 m 733 0 l 583 -124 l 583 -228 l 706 -228 l 706 -301 l 592 -301 q 515 -274 533 -301 q 497 -207 497 -246 l 497 -164 q 510 -105 497 -124 q 537 -74 522 -86 q 572 -47 551 -62 l 633 0 l 733 0 z "},"Ŵ":{"ha":1161,"x_min":35,"x_max":1126,"o":"m 1126 1042 l 1126 947 l 1060 947 l 911 0 l 731 0 l 581 946 l 431 0 l 250 0 l 101 947 l 35 947 l 35 1042 l 264 1042 l 264 947 l 208 947 l 340 94 l 486 1042 l 675 1042 l 821 94 l 953 947 l 897 947 l 897 1042 l 1126 1042 m 779 1124 l 678 1124 l 582 1235 l 485 1124 l 382 1124 l 538 1294 l 631 1294 l 779 1124 z "},"ŵ":{"ha":1017,"x_min":28,"x_max":989,"o":"m 28 694 l 249 694 l 249 600 l 188 600 l 300 96 l 429 694 l 582 694 l 715 93 l 829 600 l 767 600 l 767 694 l 989 694 l 989 600 l 922 600 l 790 0 l 642 0 l 510 601 l 375 0 l 219 0 q 210 44 219 0 q 185 157 200 90 q 154 301 171 224 q 123 446 138 379 q 97 556 108 513 l 88 600 l 28 600 l 28 694 m 707 776 l 606 776 l 510 888 l 413 776 l 310 776 l 465 947 l 558 947 l 707 776 z "},"Ŷ":{"ha":772,"x_min":35,"x_max":738,"o":"m 738 1042 l 738 947 l 685 947 l 442 513 l 442 94 l 532 94 l 532 0 l 240 0 l 240 94 l 328 94 l 328 513 l 97 947 l 35 947 l 35 1042 l 260 1042 l 260 947 l 210 947 l 386 608 l 567 947 l 517 947 l 517 1042 l 738 1042 m 585 1124 l 483 1124 l 388 1235 l 290 1124 l 188 1124 l 343 1294 l 436 1294 l 585 1124 z "},"ŷ":{"ha":715,"x_min":56,"x_max":646,"o":"m 646 694 l 646 -185 q 617 -274 646 -243 q 518 -304 589 -304 l 197 -304 l 197 -115 l 292 -115 l 292 -208 l 532 -208 l 532 157 l 288 6 q 224 -14 256 -14 q 168 8 192 -14 q 144 76 144 29 l 144 600 l 56 600 l 56 694 l 257 694 l 257 96 l 533 269 l 533 600 l 465 600 l 465 694 l 646 694 m 556 776 l 454 776 l 358 888 l 261 776 l 158 776 l 314 947 l 407 947 l 556 776 z "},"Ÿ":{"ha":772,"x_min":35,"x_max":738,"o":"m 738 1042 l 738 947 l 685 947 l 442 513 l 442 94 l 532 94 l 532 0 l 240 0 l 240 94 l 328 94 l 328 513 l 97 947 l 35 947 l 35 1042 l 260 1042 l 260 947 l 210 947 l 386 608 l 567 947 l 517 947 l 517 1042 l 738 1042 m 284 1244 q 296 1244 284 1244 q 326 1226 308 1244 q 343 1182 343 1207 q 326 1140 343 1157 q 283 1122 308 1122 q 241 1140 258 1122 q 224 1182 224 1157 q 242 1226 224 1207 q 284 1244 260 1244 m 490 1244 q 502 1244 490 1244 q 531 1226 514 1244 q 549 1182 549 1207 q 531 1140 549 1157 q 489 1122 514 1122 q 447 1140 464 1122 q 429 1182 429 1157 q 447 1226 429 1207 q 490 1244 465 1244 z "},"Ź":{"ha":724,"x_min":42,"x_max":682,"o":"m 682 942 l 682 1042 l 79 1042 l 79 792 l 178 792 l 178 947 l 565 947 l 42 100 l 42 0 l 668 0 l 668 253 l 571 253 l 571 94 l 161 94 l 682 942 m 386 1294 l 485 1294 l 339 1124 l 238 1124 l 386 1294 z "},"ź":{"ha":628,"x_min":56,"x_max":572,"o":"m 572 0 l 572 190 l 475 190 l 475 94 l 179 94 l 561 596 l 561 694 l 63 694 l 63 501 l 158 501 l 158 600 l 440 600 l 56 96 l 56 0 l 572 0 m 339 947 l 438 947 l 292 776 l 190 776 l 339 947 z "},"Ż":{"ha":724,"x_min":42,"x_max":682,"o":"m 161 94 l 571 94 l 571 253 l 668 253 l 668 0 l 42 0 l 42 100 l 565 947 l 178 947 l 178 792 l 79 792 l 79 1042 l 682 1042 l 682 942 l 161 94 m 362 1275 q 374 1275 362 1275 q 403 1256 386 1275 q 421 1213 421 1238 q 403 1170 421 1188 q 361 1153 386 1153 q 319 1170 336 1153 q 301 1213 301 1188 q 319 1256 301 1238 q 362 1275 338 1275 z "},"ż":{"ha":628,"x_min":56,"x_max":572,"o":"m 56 0 l 56 96 l 440 600 l 158 600 l 158 501 l 63 501 l 63 694 l 561 694 l 561 596 l 179 94 l 475 94 l 475 190 l 572 190 l 572 0 l 56 0 m 315 928 q 327 928 315 928 q 356 909 339 928 q 374 865 374 890 q 356 823 374 840 q 314 806 339 806 q 272 823 289 806 q 254 865 254 840 q 272 909 254 890 q 315 928 290 928 z "},"Ž":{"ha":724,"x_min":42,"x_max":682,"o":"m 161 94 l 571 94 l 571 253 l 668 253 l 668 0 l 42 0 l 42 100 l 565 947 l 178 947 l 178 792 l 79 792 l 79 1042 l 682 1042 l 682 942 l 161 94 m 411 1124 l 318 1124 l 163 1294 l 265 1294 l 363 1183 l 458 1294 l 560 1294 l 411 1124 z "},"ž":{"ha":628,"x_min":56,"x_max":572,"o":"m 56 0 l 56 96 l 440 600 l 158 600 l 158 501 l 63 501 l 63 694 l 561 694 l 561 596 l 179 94 l 475 94 l 475 190 l 572 190 l 572 0 l 56 0 m 364 776 l 271 776 l 115 947 l 218 947 l 315 836 l 411 947 l 513 947 l 364 776 z "},"ƒ":{"ha":492,"x_min":35,"x_max":457,"o":"m 290 -158 q 264 -247 290 -217 q 167 -278 238 -278 l 36 -278 l 36 -182 l 181 -182 l 181 594 l 35 594 l 35 694 l 181 694 l 181 897 q 211 1009 181 976 q 304 1042 242 1042 l 457 1042 l 457 947 l 289 947 l 289 694 l 457 694 l 457 594 l 289 594 l 290 -158 z "},"Ǽ":{"ha":1189,"x_min":61,"x_max":1082,"o":"m 739 96 l 739 490 l 972 490 l 972 583 l 739 583 l 739 947 l 988 947 l 988 785 l 1082 785 l 1082 1042 l 335 1042 l 335 947 l 444 947 l 142 94 l 61 94 l 61 0 l 331 0 l 331 94 l 247 94 l 386 490 l 625 490 l 625 97 l 538 97 l 538 0 l 1082 0 l 1082 257 l 988 257 l 988 94 l 739 96 m 549 947 l 625 947 l 625 583 l 419 583 l 549 947 m 619 1294 l 718 1294 l 572 1124 l 471 1124 l 619 1294 z "},"ǽ":{"ha":986,"x_min":69,"x_max":917,"o":"m 197 600 l 442 600 l 442 471 l 164 307 q 88 250 100 268 q 69 171 69 222 l 69 122 q 88 33 69 53 q 128 6 106 13 q 188 0 151 0 l 806 0 q 891 30 865 0 q 917 101 917 60 l 917 175 l 807 175 l 807 94 l 550 94 l 550 215 l 917 443 l 917 572 q 886 669 917 643 q 788 694 856 694 l 108 694 l 108 519 l 197 519 l 197 600 m 550 600 l 806 600 l 806 485 l 550 328 l 550 600 m 442 94 l 181 94 l 181 206 l 442 360 l 442 94 m 518 947 l 617 947 l 471 776 l 369 776 l 518 947 z "},"Ǿ":{"ha":753,"x_min":83,"x_max":669,"o":"m 92 -208 l 200 -208 l 267 0 l 515 0 q 636 44 603 0 q 669 189 669 89 l 669 857 q 599 1022 669 982 l 660 1208 l 553 1208 l 499 1042 l 238 1042 q 89 933 110 1042 q 83 857 83 900 l 83 168 q 101 72 83 111 q 164 14 118 32 l 92 -208 m 194 947 l 468 947 l 194 107 l 194 947 m 297 94 l 558 896 l 558 94 l 297 94 m 401 1294 l 500 1294 l 354 1124 l 253 1124 l 401 1294 z "},"ǿ":{"ha":626,"x_min":56,"x_max":571,"o":"m 131 -118 l 229 -118 l 264 0 l 442 0 q 542 33 513 0 q 571 124 571 65 l 571 571 q 551 653 571 619 q 472 693 531 686 l 499 782 l 400 782 l 374 694 l 185 694 q 81 660 107 694 q 56 571 56 626 l 56 124 q 80 38 56 71 q 165 0 104 6 l 131 -118 m 168 600 l 344 600 l 193 94 l 168 94 l 168 600 m 458 600 l 458 94 l 293 94 l 444 600 l 458 600 m 344 946 l 443 946 l 297 775 l 196 775 l 344 946 z "},"Ș":{"ha":753,"x_min":83,"x_max":669,"o":"m 343 -104 l 442 -104 l 296 -275 l 194 -275 l 343 -104 m 539 510 q 591 476 567 490 q 633 444 615 461 q 669 363 669 411 l 669 126 q 625 31 669 64 q 526 0 588 0 l 83 0 l 83 257 l 183 257 l 183 94 l 558 94 l 558 365 l 194 589 q 115 647 146 617 q 83 728 83 676 l 83 903 q 122 1015 83 985 q 238 1042 156 1042 l 657 1042 l 657 785 l 557 785 l 557 947 l 194 947 l 194 725 l 539 510 z "},"ș":{"ha":610,"x_min":69,"x_max":540,"o":"m 540 122 q 421 0 540 0 l 85 0 l 85 210 l 179 210 l 179 94 l 429 94 l 429 210 l 201 353 q 142 389 167 375 q 100 417 117 403 q 69 492 69 444 l 69 571 q 89 651 69 629 q 200 694 126 694 l 524 694 l 524 486 l 429 486 l 429 600 l 179 600 l 179 483 l 415 336 q 467 305 444 318 q 506 278 490 292 q 540 208 540 249 l 540 122 m 329 -104 l 428 -104 l 282 -275 l 181 -275 l 329 -104 z "},"ˆ":{"ha":406,"x_min":4,"x_max":401,"o":"m 401 776 l 300 776 l 204 888 l 107 776 l 4 776 l 160 947 l 253 947 l 401 776 z "},"ˇ":{"ha":406,"x_min":4,"x_max":401,"o":"m 253 776 l 160 776 l 4 947 l 107 947 l 204 836 l 300 947 l 401 947 l 253 776 z "},"˘":{"ha":465,"x_min":29,"x_max":456,"o":"m 456 968 q 393 817 456 878 q 243 756 329 756 q 92 818 154 756 q 29 968 29 881 l 103 968 q 144 872 103 913 q 243 831 185 831 q 341 872 300 831 q 382 968 382 913 l 456 968 z "},"˙":{"ha":118,"x_min":0,"x_max":119,"o":"m 60 928 q 73 928 60 928 q 102 909 85 928 q 119 865 119 890 q 102 823 119 840 q 60 806 85 806 q 17 823 35 806 q 0 865 0 840 q 18 909 0 890 q 60 928 36 928 z "},"˚":{"ha":247,"x_min":0,"x_max":247,"o":"m 0 867 q 0 892 0 867 q 36 953 0 917 q 125 989 72 989 q 211 953 175 989 q 247 865 247 917 q 211 778 247 814 q 124 742 175 742 q 36 778 71 742 q 0 867 0 817 m 68 867 q 84 826 68 843 q 124 810 100 810 q 164 826 147 810 q 181 866 181 843 q 164 906 181 889 q 124 922 147 922 q 85 906 101 922 q 68 867 68 890 z "},"˛":{"ha":236,"x_min":0,"x_max":236,"o":"m 236 0 l 86 -124 l 86 -228 l 208 -228 l 208 -301 l 94 -301 q 18 -274 36 -301 q 0 -207 0 -246 l 0 -164 q 13 -105 0 -124 q 40 -74 25 -86 q 75 -47 54 -62 l 136 0 l 236 0 z "},"˜":{"ha":465,"x_min":4,"x_max":463,"o":"m 463 886 q 424 828 451 854 q 324 779 368 779 q 247 805 290 779 q 180 842 203 831 q 134 854 157 854 q 96 840 111 854 q 61 786 81 826 l 4 828 q 42 883 14 858 q 126 933 93 933 q 188 922 160 933 q 242 895 217 910 q 289 869 268 881 q 330 857 310 857 q 374 878 350 857 q 410 925 399 899 l 463 886 z "},"˝":{"ha":458,"x_min":1,"x_max":456,"o":"m 150 947 l 249 947 l 103 776 l 1 776 l 150 947 m 357 947 l 456 947 l 310 776 l 208 776 l 357 947 z "},"Ё":{"ha":790,"x_min":83,"x_max":735,"o":"m 330 1231 q 342 1231 330 1231 q 372 1212 354 1231 q 389 1168 389 1193 q 372 1126 389 1143 q 329 1108 354 1108 q 287 1126 304 1108 q 269 1168 269 1143 q 288 1212 269 1193 q 330 1231 306 1231 m 535 1231 q 548 1231 535 1231 q 577 1212 560 1231 q 594 1168 594 1193 q 577 1126 594 1143 q 535 1108 560 1108 q 492 1126 510 1108 q 475 1168 475 1143 q 493 1212 475 1193 q 535 1231 511 1231 m 575 685 l 575 393 l 481 393 l 481 492 l 285 492 l 285 94 l 640 94 l 640 257 l 735 257 l 735 0 l 83 0 l 83 94 l 171 94 l 171 947 l 83 947 l 83 1042 l 735 1042 l 735 785 l 640 785 l 640 947 l 285 947 l 285 586 l 481 586 l 481 685 l 575 685 z "},"Ђ":{"ha":953,"x_min":35,"x_max":849,"o":"m 686 585 q 849 418 849 585 l 849 -68 q 802 -169 849 -132 q 686 -207 756 -207 l 596 -207 l 596 -111 l 736 -111 l 736 492 l 425 492 l 425 94 l 514 94 l 514 0 l 222 0 l 222 94 l 311 94 l 311 947 l 135 947 l 135 746 l 35 746 l 35 1042 l 700 1042 l 700 746 l 600 746 l 600 947 l 425 947 l 425 585 l 686 585 z "},"Ѓ":{"ha":719,"x_min":83,"x_max":685,"o":"m 439 1289 l 538 1289 l 392 1118 l 290 1118 l 439 1289 m 285 947 l 590 947 l 590 785 l 685 785 l 685 1042 l 83 1042 l 83 947 l 171 947 l 171 94 l 83 94 l 83 0 l 375 0 l 375 94 l 285 94 l 285 947 z "},"Є":{"ha":693,"x_min":56,"x_max":638,"o":"m 638 1042 l 638 785 l 538 785 l 538 947 l 169 947 l 169 586 l 485 586 l 485 493 l 169 493 l 169 94 l 538 94 l 538 257 l 638 257 l 638 0 l 199 0 q 89 42 128 0 q 56 136 56 78 l 56 906 q 88 1006 56 971 q 199 1042 121 1042 l 638 1042 z "},"Ѕ":{"ha":753,"x_min":83,"x_max":669,"o":"m 539 510 q 591 476 567 490 q 633 444 615 461 q 669 363 669 411 l 669 126 q 625 31 669 64 q 526 0 588 0 l 83 0 l 83 257 l 183 257 l 183 94 l 558 94 l 558 365 l 194 589 q 115 647 146 617 q 83 728 83 676 l 83 903 q 122 1015 83 985 q 238 1042 156 1042 l 657 1042 l 657 785 l 557 785 l 557 947 l 194 947 l 194 725 l 539 510 z "},"І":{"ha":514,"x_min":111,"x_max":403,"o":"m 313 94 l 403 94 l 403 0 l 111 0 l 111 94 l 199 94 l 199 947 l 111 947 l 111 1042 l 403 1042 l 403 947 l 313 947 l 313 94 z "},"Ї":{"ha":514,"x_min":96,"x_max":421,"o":"m 313 94 l 403 94 l 403 0 l 111 0 l 111 94 l 199 94 l 199 947 l 111 947 l 111 1042 l 403 1042 l 403 947 l 313 947 l 313 94 m 156 1231 q 168 1231 156 1231 q 198 1212 181 1231 q 215 1168 215 1193 q 198 1126 215 1143 q 156 1108 181 1108 q 113 1126 131 1108 q 96 1168 96 1143 q 114 1212 96 1193 q 156 1231 132 1231 m 362 1231 q 374 1231 362 1231 q 403 1212 386 1231 q 421 1168 421 1193 q 403 1126 421 1143 q 361 1108 386 1108 q 319 1126 336 1108 q 301 1168 301 1143 q 319 1212 301 1193 q 362 1231 338 1231 z "},"Ј":{"ha":564,"x_min":28,"x_max":474,"o":"m 474 947 l 383 947 l 383 163 q 307 14 383 53 q 235 0 278 0 l 28 0 l 28 94 l 269 94 l 269 947 l 181 947 l 181 1042 l 474 1042 l 474 947 z "},"Љ":{"ha":1288,"x_min":35,"x_max":1204,"o":"m 1074 442 q 1204 244 1204 361 l 1204 164 q 1175 33 1204 69 q 1072 0 1147 0 l 557 0 l 557 96 l 639 96 l 639 947 l 563 947 l 276 138 q 115 0 240 0 l 35 0 l 35 94 l 156 94 l 458 947 l 349 947 l 349 1042 l 851 1042 l 851 947 l 754 947 l 754 643 l 1074 442 m 1103 310 l 754 529 l 754 94 l 1103 94 l 1103 310 z "},"Њ":{"ha":1276,"x_min":69,"x_max":1194,"o":"m 1064 442 q 1194 244 1194 361 l 1194 164 q 1165 33 1194 69 q 1063 0 1138 0 l 544 0 l 544 94 l 629 94 l 629 492 l 271 492 l 271 94 l 356 94 l 356 0 l 69 0 l 69 94 l 157 94 l 157 947 l 69 947 l 69 1042 l 356 1042 l 356 947 l 271 947 l 271 585 l 629 585 l 629 947 l 544 947 l 544 1042 l 842 1042 l 842 947 l 744 947 l 744 643 l 1064 442 m 1093 310 l 744 529 l 744 94 l 1093 94 l 1093 310 z "},"Ћ":{"ha":1022,"x_min":35,"x_max":939,"o":"m 939 94 l 939 0 l 649 0 l 649 94 l 736 94 l 736 490 l 425 490 l 425 94 l 513 94 l 513 0 l 224 0 l 224 94 l 311 94 l 311 947 l 135 947 l 135 746 l 35 746 l 35 1042 l 700 1042 l 700 746 l 599 746 l 599 947 l 425 947 l 425 583 l 685 583 q 836 496 799 583 q 849 417 849 464 l 849 94 l 939 94 z "},"Ќ":{"ha":813,"x_min":69,"x_max":778,"o":"m 472 1279 l 571 1279 l 425 1108 l 324 1108 l 472 1279 m 689 94 l 388 542 l 676 947 l 769 947 l 769 1042 l 619 1042 l 265 560 l 265 947 l 361 947 l 361 1042 l 69 1042 l 69 947 l 157 947 l 157 94 l 69 94 l 69 0 l 361 0 l 361 94 l 271 94 l 271 518 l 619 0 l 778 0 l 778 94 l 689 94 z "},"Ў":{"ha":828,"x_min":35,"x_max":793,"o":"m 106 947 l 35 947 l 35 1042 l 276 1042 l 276 947 l 204 947 l 413 365 l 618 947 l 525 947 l 525 1042 l 793 1042 l 793 947 l 719 947 l 433 138 q 375 36 410 72 q 272 0 340 0 l 194 0 l 194 94 l 315 94 l 361 224 l 106 947 m 617 1301 q 554 1150 617 1211 q 404 1089 490 1089 q 253 1151 315 1089 q 190 1301 190 1214 l 264 1301 q 305 1205 264 1246 q 404 1164 346 1164 q 502 1205 461 1164 q 543 1301 543 1246 l 617 1301 z "},"Џ":{"ha":969,"x_min":90,"x_max":865,"o":"m 292 94 l 664 94 l 664 947 l 579 947 l 579 1042 l 865 1042 l 865 947 l 778 947 l 778 94 l 865 94 l 865 0 l 533 0 l 533 -208 l 422 -208 l 422 0 l 90 0 l 90 94 l 178 94 l 178 947 l 90 947 l 90 1042 l 376 1042 l 376 947 l 292 947 l 292 94 z "},"А":{"ha":890,"x_min":35,"x_max":856,"o":"m 568 458 l 444 947 l 321 458 l 568 458 m 856 94 l 856 0 l 585 0 l 585 94 l 660 94 l 590 371 l 299 371 l 229 94 l 306 94 l 306 0 l 35 0 l 35 94 l 122 94 l 364 1042 l 528 1042 l 765 94 l 856 94 z "},"Б":{"ha":831,"x_min":83,"x_max":747,"o":"m 604 511 q 747 314 747 424 l 747 164 q 708 33 747 69 q 585 0 672 0 l 83 0 l 83 94 l 171 94 l 171 947 l 83 947 l 83 1042 l 711 1042 l 711 785 l 617 785 l 617 947 l 285 947 l 285 713 l 604 511 m 633 379 l 285 599 l 285 94 l 633 94 l 633 379 z "},"В":{"ha":774,"x_min":83,"x_max":690,"o":"m 517 661 q 588 683 546 683 q 660 654 631 683 q 690 564 690 625 l 690 122 q 672 42 690 64 q 567 0 636 0 l 83 0 l 83 94 l 171 94 l 171 949 l 85 949 l 85 1042 l 375 1042 q 517 918 517 1042 l 517 661 m 404 590 l 404 949 l 285 949 l 285 515 l 404 590 m 579 589 l 285 404 l 285 96 l 579 96 l 579 589 z "},"Г":{"ha":719,"x_min":83,"x_max":685,"o":"m 285 94 l 375 94 l 375 0 l 83 0 l 83 94 l 171 94 l 171 947 l 83 947 l 83 1042 l 685 1042 l 685 785 l 590 785 l 590 947 l 285 947 l 285 94 z "},"Д":{"ha":915,"x_min":42,"x_max":874,"o":"m 465 947 l 357 947 l 357 1042 l 764 1042 l 764 94 l 874 94 l 874 -208 l 763 -208 l 763 0 l 153 0 l 153 -208 l 42 -208 l 42 94 l 163 94 l 465 947 m 651 947 l 574 947 l 274 94 l 651 94 l 651 947 z "},"Е":{"ha":811,"x_min":90,"x_max":742,"o":"m 582 685 l 582 393 l 488 393 l 488 492 l 292 492 l 292 94 l 647 94 l 647 257 l 742 257 l 742 0 l 90 0 l 90 94 l 178 94 l 178 947 l 90 947 l 90 1042 l 742 1042 l 742 785 l 647 785 l 647 947 l 292 947 l 292 586 l 488 586 l 488 685 l 582 685 z "},"Ж":{"ha":1108,"x_min":42,"x_max":1067,"o":"m 1067 94 l 1067 0 l 925 0 l 611 518 l 611 94 l 701 94 l 701 0 l 410 0 l 410 94 l 497 94 l 497 517 l 183 0 l 42 0 l 42 94 l 121 94 l 393 542 l 133 947 l 49 947 l 49 1042 l 183 1042 l 497 568 l 497 947 l 410 947 l 410 1042 l 701 1042 l 701 947 l 611 947 l 611 568 l 925 1042 l 1060 1042 l 1060 947 l 976 947 l 715 542 l 988 94 l 1067 94 z "},"З":{"ha":757,"x_min":83,"x_max":674,"o":"m 646 697 q 620 607 646 643 q 563 568 594 571 q 635 529 601 565 q 674 422 674 488 l 674 186 q 628 47 674 94 q 478 0 582 0 l 274 0 q 125 48 167 0 q 83 186 83 96 l 83 319 l 197 319 l 197 94 l 560 94 l 560 510 l 357 510 l 357 615 l 539 615 l 539 954 l 190 954 l 190 782 l 83 782 l 83 876 q 168 1028 83 992 q 243 1042 199 1042 l 489 1042 q 611 993 569 1042 q 646 876 646 951 l 646 697 z "},"И":{"ha":924,"x_min":69,"x_max":854,"o":"m 764 94 l 854 94 l 854 0 l 650 0 l 650 771 l 233 0 l 69 0 l 69 94 l 158 94 l 158 947 l 69 947 l 69 1042 l 271 1042 l 271 279 l 683 1042 l 854 1042 l 854 947 l 764 947 l 764 94 z "},"Й":{"ha":924,"x_min":69,"x_max":854,"o":"m 764 94 l 854 94 l 854 0 l 650 0 l 650 771 l 233 0 l 69 0 l 69 94 l 158 94 l 158 947 l 69 947 l 69 1042 l 271 1042 l 271 279 l 683 1042 l 854 1042 l 854 947 l 764 947 l 764 94 m 683 1296 q 621 1144 683 1206 q 471 1083 557 1083 q 319 1146 382 1083 q 257 1296 257 1208 l 331 1296 q 372 1199 331 1240 q 471 1158 413 1158 q 569 1199 528 1158 q 610 1296 610 1240 l 683 1296 z "},"К":{"ha":813,"x_min":69,"x_max":778,"o":"m 778 94 l 778 0 l 619 0 l 271 518 l 271 94 l 361 94 l 361 0 l 69 0 l 69 94 l 157 94 l 157 947 l 69 947 l 69 1042 l 361 1042 l 361 947 l 265 947 l 265 560 l 619 1042 l 769 1042 l 769 947 l 676 947 l 388 542 l 689 94 l 778 94 z "},"Л":{"ha":883,"x_min":35,"x_max":835,"o":"m 835 96 l 835 0 l 557 0 l 557 96 l 639 96 l 639 947 l 563 947 l 276 138 q 115 0 240 0 l 35 0 l 35 94 l 156 94 l 458 947 l 349 947 l 349 1042 l 753 1042 l 753 96 l 835 96 z "},"М":{"ha":1194,"x_min":90,"x_max":1104,"o":"m 90 947 l 90 1042 l 304 1042 l 599 435 l 890 1042 l 1104 1042 l 1104 947 l 1017 947 l 1017 94 l 1104 94 l 1104 0 l 813 0 l 813 94 l 903 94 l 903 810 l 640 269 l 553 269 l 292 814 l 292 94 l 382 94 l 382 0 l 90 0 l 90 94 l 178 94 l 178 947 l 90 947 z "},"Н":{"ha":928,"x_min":69,"x_max":858,"o":"m 771 947 l 771 94 l 858 94 l 858 0 l 572 0 l 572 94 l 657 94 l 657 492 l 271 492 l 271 94 l 356 94 l 356 0 l 69 0 l 69 94 l 157 94 l 157 947 l 69 947 l 69 1042 l 356 1042 l 356 947 l 271 947 l 271 585 l 657 585 l 657 947 l 572 947 l 572 1042 l 858 1042 l 858 947 l 771 947 z "},"О":{"ha":753,"x_min":83,"x_max":669,"o":"m 508 1042 q 631 995 593 1042 q 669 857 669 949 l 669 189 q 636 44 669 89 q 515 0 603 0 l 249 0 q 92 100 115 0 q 83 168 83 131 l 83 857 q 114 992 83 950 q 238 1042 149 1042 l 508 1042 m 194 94 l 558 94 l 558 947 l 194 947 l 194 94 z "},"П":{"ha":942,"x_min":83,"x_max":858,"o":"m 771 947 l 771 94 l 858 94 l 858 0 l 572 0 l 572 94 l 657 94 l 657 947 l 285 947 l 285 94 l 369 94 l 369 0 l 83 0 l 83 94 l 171 94 l 171 947 l 83 947 l 83 1042 l 858 1042 l 858 947 l 771 947 z "},"Р":{"ha":804,"x_min":69,"x_max":721,"o":"m 565 1042 q 689 1007 657 1042 q 721 869 721 972 l 721 768 q 689 653 721 689 q 644 618 671 635 q 578 578 617 601 l 271 386 l 271 94 l 361 94 l 361 0 l 69 0 l 69 94 l 157 94 l 157 946 l 69 946 l 69 1042 l 565 1042 m 619 946 l 271 946 l 271 497 l 619 713 l 619 946 z "},"С":{"ha":743,"x_min":83,"x_max":660,"o":"m 565 257 l 660 257 l 660 0 l 233 0 q 92 92 117 0 q 83 149 83 118 l 83 892 q 154 1028 83 993 q 219 1042 181 1042 l 660 1042 l 660 785 l 565 785 l 565 947 l 197 947 l 197 94 l 565 94 l 565 257 z "},"Т":{"ha":735,"x_min":35,"x_max":700,"o":"m 222 94 l 310 94 l 310 947 l 135 947 l 135 783 l 35 783 l 35 1042 l 700 1042 l 700 783 l 599 783 l 599 947 l 424 947 l 424 94 l 514 94 l 514 0 l 222 0 l 222 94 z "},"У":{"ha":828,"x_min":35,"x_max":793,"o":"m 106 947 l 35 947 l 35 1042 l 276 1042 l 276 947 l 204 947 l 413 365 l 618 947 l 525 947 l 525 1042 l 793 1042 l 793 947 l 719 947 l 433 138 q 375 36 410 72 q 272 0 340 0 l 194 0 l 194 94 l 315 94 l 361 224 l 106 947 z "},"Ф":{"ha":932,"x_min":56,"x_max":876,"o":"m 713 872 q 847 821 811 872 q 876 681 876 778 l 876 365 q 838 228 876 268 q 693 188 797 188 l 521 188 l 521 94 l 617 94 l 617 0 l 322 0 l 322 94 l 413 94 l 413 188 l 238 188 q 94 228 133 188 q 56 365 56 269 l 56 681 q 86 821 56 778 q 218 872 121 872 l 413 872 l 413 946 l 319 946 l 319 1040 l 611 1040 l 611 946 l 518 946 l 518 872 l 713 872 m 413 283 l 413 781 l 168 781 l 168 283 l 413 283 m 763 781 l 518 781 l 518 283 l 763 283 l 763 781 z "},"Х":{"ha":819,"x_min":35,"x_max":785,"o":"m 785 94 l 785 0 l 640 0 l 411 433 l 182 0 l 35 0 l 35 94 l 114 94 l 351 547 l 142 947 l 58 947 l 58 1042 l 211 1042 l 410 658 l 611 1042 l 761 1042 l 761 947 l 679 947 l 468 547 l 708 94 l 785 94 z "},"Ц":{"ha":924,"x_min":69,"x_max":868,"o":"m 757 94 l 868 94 l 868 -208 l 757 -208 l 757 0 l 69 0 l 69 94 l 157 94 l 157 947 l 69 947 l 69 1042 l 356 1042 l 356 947 l 271 947 l 271 93 l 643 93 l 643 947 l 558 947 l 558 1042 l 844 1042 l 844 947 l 757 947 l 757 94 z "},"Ч":{"ha":850,"x_min":35,"x_max":781,"o":"m 694 947 l 694 94 l 781 94 l 781 0 l 490 0 l 490 94 l 581 94 l 581 385 l 276 576 q 174 651 199 625 q 124 782 124 707 l 124 947 l 35 947 l 35 1042 l 324 1042 l 324 947 l 233 947 l 233 715 l 581 497 l 581 947 l 490 947 l 490 1042 l 781 1042 l 781 947 l 694 947 z "},"Ш":{"ha":1290,"x_min":69,"x_max":1221,"o":"m 360 1042 l 360 947 l 271 947 l 271 94 l 590 94 l 590 947 l 500 947 l 500 1042 l 789 1042 l 789 947 l 701 947 l 701 94 l 1019 94 l 1019 947 l 929 947 l 929 1042 l 1221 1042 l 1221 947 l 1132 947 l 1132 94 l 1221 94 l 1221 0 l 69 0 l 69 94 l 158 94 l 158 947 l 69 947 l 69 1042 l 360 1042 z "},"Щ":{"ha":1313,"x_min":69,"x_max":1243,"o":"m 1132 94 l 1243 94 l 1243 -208 l 1132 -208 l 1132 0 l 69 0 l 69 94 l 158 94 l 158 947 l 69 947 l 69 1042 l 360 1042 l 360 947 l 271 947 l 271 94 l 590 94 l 590 947 l 500 947 l 500 1042 l 789 1042 l 789 947 l 701 947 l 701 94 l 1019 94 l 1019 947 l 929 947 l 929 1042 l 1221 1042 l 1221 947 l 1132 947 l 1132 94 z "},"Ъ":{"ha":907,"x_min":69,"x_max":865,"o":"m 69 1042 l 513 1042 l 513 947 l 415 947 l 415 643 l 735 442 q 865 244 865 361 l 865 164 q 836 33 865 69 q 733 0 808 0 l 214 0 l 214 94 l 301 94 l 301 947 l 164 947 l 164 785 l 69 785 l 69 1042 m 764 310 l 415 529 l 415 94 l 764 94 l 764 310 z "},"Ы":{"ha":1172,"x_min":69,"x_max":1103,"o":"m 590 442 q 721 244 721 361 l 721 164 q 692 33 721 69 q 589 0 664 0 l 69 0 l 69 94 l 157 94 l 157 947 l 69 947 l 69 1042 l 368 1042 l 368 947 l 271 947 l 271 643 l 590 442 m 619 310 l 271 529 l 271 94 l 619 94 l 619 310 m 1013 94 l 1103 94 l 1103 0 l 811 0 l 811 94 l 899 94 l 899 947 l 811 947 l 811 1042 l 1103 1042 l 1103 947 l 1013 947 l 1013 94 z "},"Ь":{"ha":763,"x_min":69,"x_max":721,"o":"m 590 442 q 721 244 721 361 l 721 164 q 692 33 721 69 q 589 0 664 0 l 69 0 l 69 94 l 157 94 l 157 947 l 69 947 l 69 1042 l 368 1042 l 368 947 l 271 947 l 271 643 l 590 442 m 619 310 l 271 529 l 271 94 l 619 94 l 619 310 z "},"Э":{"ha":693,"x_min":56,"x_max":638,"o":"m 494 1042 q 605 1006 572 1042 q 638 906 638 971 l 638 136 q 558 11 638 43 q 494 0 532 0 l 56 0 l 56 257 l 156 257 l 156 94 l 524 94 l 524 493 l 208 493 l 208 586 l 524 586 l 524 947 l 156 947 l 156 785 l 56 785 l 56 1042 l 494 1042 z "},"Ю":{"ha":1096,"x_min":69,"x_max":1013,"o":"m 851 1042 q 974 995 936 1042 q 1013 857 1013 949 l 1013 189 q 979 44 1013 89 q 858 0 946 0 l 646 0 q 489 100 513 0 q 481 168 481 131 l 481 492 l 271 492 l 271 94 l 361 94 l 361 0 l 69 0 l 69 94 l 157 94 l 157 947 l 69 947 l 69 1042 l 361 1042 l 361 947 l 271 947 l 271 585 l 481 585 l 481 857 q 511 992 481 950 q 635 1042 546 1042 l 851 1042 m 592 94 l 901 94 l 901 947 l 592 947 l 592 94 z "},"Я":{"ha":904,"x_min":28,"x_max":814,"o":"m 106 94 l 379 531 q 274 594 315 569 q 207 644 232 619 q 172 699 182 668 q 163 782 163 729 l 163 868 q 194 1006 163 971 q 318 1042 226 1042 l 814 1042 l 814 947 l 726 947 l 726 94 l 814 94 l 814 0 l 522 0 l 522 94 l 613 94 l 613 386 l 465 476 l 228 94 l 303 94 l 303 0 l 28 0 l 28 94 l 106 94 m 613 947 l 264 947 l 264 713 l 613 497 l 613 947 z "},"а":{"ha":692,"x_min":35,"x_max":636,"o":"m 636 94 l 636 0 l 153 0 q 58 28 82 0 q 35 122 35 53 l 35 174 q 47 242 35 224 q 129 307 65 268 l 435 497 l 435 600 l 163 600 l 163 519 l 74 519 l 74 694 l 421 694 q 520 664 492 694 q 549 575 549 633 l 549 94 l 636 94 m 435 386 l 146 206 l 146 94 l 435 94 l 435 386 z "},"б":{"ha":654,"x_min":69,"x_max":585,"o":"m 582 1042 l 582 1000 q 551 918 582 947 q 468 857 521 889 l 182 678 l 182 553 l 390 683 q 463 708 431 708 q 517 699 496 708 q 553 675 538 690 q 585 600 585 643 l 585 122 q 556 31 585 64 q 456 -1 526 -1 l 199 -1 q 99 31 128 -1 q 69 122 69 64 l 69 611 q 94 709 69 667 q 181 790 119 751 l 469 971 l 469 1042 l 582 1042 m 182 443 l 182 93 l 472 93 l 472 624 l 182 443 z "},"в":{"ha":697,"x_min":56,"x_max":663,"o":"m 489 661 q 560 683 518 683 q 633 654 603 683 q 663 564 663 625 l 663 122 q 644 42 663 64 q 539 0 608 0 l 56 0 l 56 94 l 143 94 l 143 947 l 57 947 l 57 1042 l 347 1042 q 489 918 489 1042 l 489 661 m 376 590 l 376 943 l 257 943 l 257 515 l 376 590 m 551 589 l 257 404 l 257 96 l 551 96 l 551 589 z "},"г":{"ha":614,"x_min":69,"x_max":579,"o":"m 69 93 l 160 93 l 160 596 l 69 596 l 69 694 l 579 694 l 579 467 l 482 467 l 482 596 l 265 596 l 265 93 l 372 93 l 372 0 l 69 0 l 69 93 z "},"д":{"ha":743,"x_min":28,"x_max":715,"o":"m 615 -190 l 615 0 l 125 0 l 125 -190 l 28 -190 l 28 93 l 124 93 l 329 597 l 233 597 l 233 694 l 614 694 l 614 93 l 715 93 l 715 -190 l 615 -190 m 510 597 l 435 597 l 231 93 l 510 93 l 510 597 z "},"е":{"ha":646,"x_min":69,"x_max":576,"o":"m 69 558 q 213 696 69 696 l 447 696 q 546 669 515 696 q 576 572 576 643 l 576 443 l 181 193 l 181 94 l 467 94 l 467 175 l 576 175 l 576 101 q 551 30 576 60 q 465 0 525 0 l 181 0 q 95 30 121 0 q 69 101 69 60 l 69 558 m 181 306 l 465 485 l 465 600 l 181 600 l 181 306 z "},"ж":{"ha":911,"x_min":35,"x_max":876,"o":"m 876 94 l 876 0 l 769 0 l 508 350 l 508 94 l 597 94 l 597 0 l 314 0 l 314 94 l 403 94 l 403 350 l 142 0 l 35 0 l 35 94 l 100 94 l 293 368 l 104 600 l 36 600 l 36 694 l 133 694 l 403 383 l 403 600 l 314 600 l 314 694 l 597 694 l 597 600 l 508 600 l 508 383 l 778 694 l 875 694 l 875 600 l 807 600 l 618 368 l 811 94 l 876 94 z "},"з":{"ha":604,"x_min":69,"x_max":535,"o":"m 524 463 q 475 371 524 399 q 432 360 457 361 q 535 268 535 357 l 535 122 q 519 42 535 63 q 417 0 490 0 l 69 0 l 69 203 l 163 203 l 163 94 l 428 94 l 428 313 l 236 313 l 236 404 l 415 404 l 415 599 l 163 599 l 163 492 l 69 492 l 69 694 l 392 694 q 497 662 469 694 q 524 571 524 629 l 524 463 z "},"и":{"ha":821,"x_min":63,"x_max":758,"o":"m 669 94 l 758 94 l 758 0 l 561 0 l 561 513 l 257 0 l 63 0 l 63 97 l 151 97 l 151 597 l 63 597 l 63 694 l 258 694 l 258 186 l 561 694 l 758 694 l 758 597 l 669 597 l 669 94 z "},"й":{"ha":821,"x_min":63,"x_max":758,"o":"m 669 94 l 758 94 l 758 0 l 561 0 l 561 513 l 257 0 l 63 0 l 63 97 l 151 97 l 151 597 l 63 597 l 63 694 l 258 694 l 258 186 l 561 694 l 758 694 l 758 597 l 669 597 l 669 94 m 629 968 q 567 817 629 878 q 417 756 503 756 q 265 818 328 756 q 203 968 203 881 l 276 968 q 317 872 276 913 q 417 831 358 831 q 515 872 474 831 q 556 968 556 913 l 629 968 z "},"к":{"ha":718,"x_min":63,"x_max":683,"o":"m 63 694 l 346 694 l 346 600 l 257 600 l 257 383 l 574 694 l 682 694 l 682 600 l 606 600 l 379 368 l 611 94 l 683 94 l 683 0 l 564 0 l 263 350 l 263 94 l 346 94 l 346 0 l 63 0 l 63 94 l 151 94 l 151 600 l 63 600 l 63 694 z "},"л":{"ha":781,"x_min":35,"x_max":718,"o":"m 718 93 l 718 0 l 431 0 l 431 93 l 522 93 l 522 597 l 436 597 l 258 124 q 205 32 236 64 q 113 0 174 0 l 35 0 l 35 93 l 143 93 l 338 597 l 244 597 l 244 694 l 628 694 l 628 93 l 718 93 z "},"м":{"ha":989,"x_min":63,"x_max":926,"o":"m 926 0 l 636 0 l 636 94 l 732 94 l 732 596 l 525 165 l 458 165 l 257 589 l 257 94 l 353 94 l 353 0 l 63 0 l 63 94 l 153 94 l 153 600 l 63 600 l 63 694 l 311 694 l 494 311 l 679 694 l 926 694 l 926 600 l 836 600 l 836 94 l 926 94 l 926 0 z "},"н":{"ha":835,"x_min":63,"x_max":772,"o":"m 494 94 l 575 94 l 575 308 l 258 308 l 258 94 l 339 94 l 339 0 l 63 0 l 63 94 l 151 94 l 151 597 l 63 597 l 63 694 l 339 694 l 339 597 l 258 597 l 258 408 l 575 408 l 575 597 l 494 597 l 494 694 l 772 694 l 772 597 l 683 597 l 683 94 l 772 94 l 772 0 l 494 0 l 494 94 z "},"о":{"ha":654,"x_min":69,"x_max":585,"o":"m 199 0 q 99 33 128 0 q 69 124 69 65 l 69 571 q 95 660 69 626 q 199 694 121 694 l 456 694 q 558 660 532 694 q 585 571 585 626 l 585 124 q 556 33 585 65 q 456 0 526 0 l 199 0 m 182 94 l 472 94 l 472 600 l 182 600 l 182 94 z "},"п":{"ha":814,"x_min":63,"x_max":751,"o":"m 474 94 l 554 94 l 554 597 l 258 597 l 258 94 l 339 94 l 339 0 l 63 0 l 63 94 l 151 94 l 151 597 l 63 597 l 63 694 l 751 694 l 751 597 l 663 597 l 663 94 l 751 94 l 751 0 l 474 0 l 474 94 z "},"р":{"ha":739,"x_min":63,"x_max":669,"o":"m 264 94 l 558 94 l 558 610 l 264 425 l 264 94 m 64 -253 l 150 -253 l 150 599 l 63 599 l 63 694 l 264 694 l 264 536 l 504 688 q 575 708 538 708 q 641 685 613 708 q 669 618 669 663 l 669 131 q 650 43 669 67 q 544 0 617 0 l 264 0 l 264 -253 l 356 -253 l 356 -347 l 64 -347 l 64 -253 z "},"с":{"ha":606,"x_min":69,"x_max":536,"o":"m 536 0 l 190 0 q 75 75 90 0 q 69 122 69 97 l 69 572 q 102 663 69 631 q 201 696 135 696 l 536 696 l 536 519 l 442 519 l 442 600 l 181 600 l 181 94 l 442 94 l 442 175 l 536 175 l 536 0 z "},"т":{"ha":618,"x_min":35,"x_max":583,"o":"m 146 94 l 254 94 l 254 596 l 132 596 l 132 467 l 35 467 l 35 694 l 583 694 l 583 467 l 489 467 l 489 596 l 364 596 l 364 94 l 472 94 l 472 0 l 146 0 l 146 94 z "},"у":{"ha":735,"x_min":35,"x_max":707,"o":"m 707 694 l 707 600 l 624 600 l 379 -224 q 334 -315 361 -283 q 246 -347 307 -347 l 158 -347 l 158 -254 l 267 -254 l 329 -40 l 119 600 l 35 600 l 35 694 l 288 694 l 288 600 l 222 600 l 378 125 l 519 600 l 453 600 l 453 694 l 707 694 z "},"ф":{"ha":867,"x_min":69,"x_max":797,"o":"m 676 694 q 793 619 779 694 q 797 569 797 597 l 797 122 q 781 39 797 58 q 675 0 751 0 l 486 0 l 486 -197 l 586 -197 l 586 -292 l 282 -292 l 282 -197 l 382 -197 l 382 0 l 200 0 q 97 34 124 0 q 69 122 69 68 l 69 569 q 99 660 69 626 q 200 694 129 694 l 382 694 l 382 890 l 282 890 l 282 986 l 586 986 l 586 890 l 486 890 l 486 694 l 676 694 m 382 596 l 174 596 l 174 93 l 382 93 l 382 596 m 697 596 l 486 596 l 486 93 l 697 93 l 697 596 z "},"х":{"ha":692,"x_min":35,"x_max":657,"o":"m 113 94 l 288 360 l 128 600 l 46 600 l 46 694 l 179 694 l 349 444 l 507 694 l 643 694 l 643 600 l 565 600 l 406 360 l 579 94 l 657 94 l 657 0 l 526 0 l 349 276 l 172 0 l 35 0 l 35 94 l 113 94 z "},"ц":{"ha":807,"x_min":63,"x_max":765,"o":"m 665 0 l 63 0 l 63 97 l 151 97 l 151 600 l 63 600 l 63 694 l 340 694 l 340 600 l 260 600 l 260 97 l 556 97 l 556 600 l 475 600 l 475 694 l 751 694 l 751 600 l 663 600 l 663 97 l 765 97 l 765 -186 l 665 -186 l 665 0 z "},"ч":{"ha":761,"x_min":42,"x_max":699,"o":"m 414 93 l 501 93 l 501 354 l 301 226 q 225 203 263 203 q 158 231 188 203 q 129 296 129 258 l 129 596 l 42 596 l 42 694 l 315 694 l 315 596 l 236 596 l 236 297 l 501 463 l 501 596 l 421 596 l 421 694 l 699 694 l 699 596 l 611 596 l 611 93 l 699 93 l 699 0 l 414 0 l 414 93 z "},"ш":{"ha":1128,"x_min":63,"x_max":1065,"o":"m 976 99 l 1065 99 l 1065 0 l 63 0 l 63 99 l 151 99 l 151 596 l 63 596 l 63 694 l 336 694 l 336 596 l 258 596 l 258 99 l 510 99 l 510 596 l 432 596 l 432 694 l 694 694 l 694 596 l 617 596 l 617 99 l 869 99 l 869 596 l 792 596 l 792 694 l 1065 694 l 1065 596 l 976 596 l 976 99 z "},"щ":{"ha":1133,"x_min":63,"x_max":1078,"o":"m 978 0 l 63 0 l 63 99 l 151 99 l 151 596 l 63 596 l 63 694 l 336 694 l 336 596 l 258 596 l 258 99 l 510 99 l 510 596 l 432 596 l 432 694 l 694 694 l 694 596 l 617 596 l 617 99 l 869 99 l 869 596 l 792 596 l 792 694 l 1065 694 l 1065 596 l 976 596 l 976 99 l 1078 99 l 1078 -185 l 978 -185 l 978 0 z "},"ъ":{"ha":771,"x_min":42,"x_max":729,"o":"m 42 694 l 440 694 l 440 596 l 347 596 l 347 319 l 578 465 q 645 486 611 486 q 704 460 679 486 q 729 390 729 433 l 729 122 q 714 39 729 61 q 607 0 683 0 l 149 0 l 149 99 l 238 99 l 238 596 l 139 596 l 139 467 l 42 467 l 42 694 m 619 379 l 347 208 l 347 94 l 619 94 l 619 379 z "},"ы":{"ha":1089,"x_min":63,"x_max":1026,"o":"m 63 99 l 153 99 l 153 596 l 63 596 l 63 694 l 354 694 l 354 596 l 261 596 l 261 319 l 492 465 q 559 486 525 486 q 618 460 593 486 q 643 390 643 433 l 643 122 q 628 39 643 61 q 521 0 597 0 l 63 0 l 63 99 m 936 94 l 1026 94 l 1026 0 l 735 0 l 735 94 l 822 94 l 822 600 l 735 600 l 735 694 l 1026 694 l 1026 600 l 936 600 l 936 94 m 533 379 l 261 208 l 261 94 l 533 94 l 533 379 z "},"ь":{"ha":719,"x_min":69,"x_max":650,"o":"m 69 99 l 158 99 l 158 596 l 69 596 l 69 694 l 361 694 l 361 596 l 268 596 l 268 319 l 499 465 q 566 486 532 486 q 625 460 600 486 q 650 390 650 433 l 650 122 q 633 39 650 61 q 528 0 604 0 l 69 0 l 69 99 m 540 379 l 268 208 l 268 94 l 540 94 l 540 379 z "},"э":{"ha":604,"x_min":69,"x_max":535,"o":"m 428 313 l 236 313 l 236 404 l 428 404 l 428 599 l 163 599 l 163 492 l 69 492 l 69 694 l 404 694 q 508 662 482 694 q 535 571 535 629 l 535 122 q 519 42 535 63 q 417 0 490 0 l 69 0 l 69 203 l 163 203 l 163 94 l 428 94 l 428 313 z "},"ю":{"ha":976,"x_min":63,"x_max":907,"o":"m 563 0 q 463 33 492 0 q 433 124 433 65 l 433 308 l 258 308 l 258 94 l 339 94 l 339 0 l 63 0 l 63 94 l 151 94 l 151 597 l 63 597 l 63 694 l 339 694 l 339 597 l 258 597 l 258 408 l 433 408 l 433 571 q 459 660 433 626 q 563 694 485 694 l 778 694 q 881 660 854 694 q 907 571 907 626 l 907 124 q 878 33 907 65 q 778 0 849 0 l 563 0 m 546 94 l 794 94 l 794 600 l 546 600 l 546 94 z "},"я":{"ha":706,"x_min":21,"x_max":649,"o":"m 563 600 l 563 93 l 649 93 l 649 0 l 378 0 l 378 93 l 454 93 l 454 194 l 339 269 l 243 124 q 213 74 226 97 q 186 35 200 51 q 101 0 156 0 l 21 0 l 21 93 l 108 93 l 257 322 l 176 375 q 117 422 129 407 q 90 504 90 454 l 90 586 q 172 689 90 667 q 222 694 196 694 l 649 694 l 649 600 l 563 600 m 454 600 l 194 600 l 194 464 l 454 294 l 454 600 z "},"ё":{"ha":646,"x_min":69,"x_max":576,"o":"m 222 896 q 234 896 222 896 q 263 877 246 896 q 281 833 281 858 q 263 791 281 808 q 221 774 246 774 q 178 791 196 774 q 161 833 161 808 q 179 877 161 858 q 222 896 197 896 m 427 896 q 439 896 427 896 q 469 877 451 896 q 486 833 486 858 q 469 791 486 808 q 426 774 451 774 q 384 791 401 774 q 367 833 367 808 q 385 877 367 858 q 427 896 403 896 m 69 558 q 213 696 69 696 l 447 696 q 546 669 515 696 q 576 572 576 643 l 576 443 l 181 193 l 181 94 l 467 94 l 467 175 l 576 175 l 576 101 q 551 30 576 60 q 465 0 525 0 l 181 0 q 95 30 121 0 q 69 101 69 60 l 69 558 m 181 306 l 465 485 l 465 600 l 181 600 l 181 306 z "},"ђ":{"ha":786,"x_min":83,"x_max":703,"o":"m 83 694 l 181 694 l 181 947 l 93 947 l 93 1042 l 294 1042 l 294 694 l 604 694 l 604 601 l 294 601 l 294 442 l 540 442 q 703 275 703 442 l 703 -68 q 656 -169 703 -132 q 540 -207 610 -207 l 450 -207 l 450 -111 l 590 -111 l 590 349 l 294 349 l 294 94 l 383 94 l 383 0 l 92 0 l 92 94 l 181 94 l 181 601 l 83 601 l 83 694 z "},"ѓ":{"ha":614,"x_min":69,"x_max":579,"o":"m 367 947 l 465 947 l 319 776 l 218 776 l 367 947 m 69 0 l 372 0 l 372 93 l 265 93 l 265 596 l 482 596 l 482 467 l 579 467 l 579 694 l 69 694 l 69 596 l 160 596 l 160 93 l 69 93 l 69 0 z "},"є":{"ha":604,"x_min":69,"x_max":535,"o":"m 176 94 l 442 94 l 442 203 l 535 203 l 535 0 l 188 0 q 72 75 85 0 q 69 122 69 97 l 69 571 q 96 662 69 629 q 200 694 122 694 l 535 694 l 535 492 l 442 492 l 442 599 l 176 599 l 176 404 l 368 404 l 368 313 l 176 313 l 176 94 z "},"ѕ":{"ha":610,"x_min":69,"x_max":540,"o":"m 540 122 q 421 0 540 0 l 85 0 l 85 210 l 179 210 l 179 94 l 429 94 l 429 210 l 201 353 q 142 389 167 375 q 100 417 117 403 q 69 492 69 444 l 69 571 q 89 651 69 629 q 200 694 126 694 l 524 694 l 524 486 l 429 486 l 429 600 l 179 600 l 179 483 l 415 336 q 467 305 444 318 q 506 278 490 292 q 540 208 540 249 l 540 122 z "},"і":{"ha":417,"x_min":69,"x_max":361,"o":"m 271 94 l 361 94 l 361 0 l 69 0 l 69 94 l 157 94 l 157 600 l 69 600 l 69 694 l 271 694 l 271 94 m 131 947 l 271 947 l 271 807 l 131 807 l 131 947 z "},"ї":{"ha":417,"x_min":13,"x_max":361,"o":"m 271 94 l 361 94 l 361 0 l 69 0 l 69 94 l 157 94 l 157 600 l 69 600 l 69 694 l 271 694 l 271 94 m 73 872 q 85 872 73 872 q 115 853 97 872 q 132 810 132 835 q 115 767 132 785 q 72 750 97 750 q 30 767 47 750 q 13 810 13 785 q 31 853 13 835 q 73 872 49 872 m 278 872 q 291 872 278 872 q 320 853 303 872 q 338 810 338 835 q 320 767 338 785 q 278 750 303 750 q 235 767 253 750 q 218 810 218 785 q 236 853 218 835 q 278 872 254 872 z "},"ј":{"ha":367,"x_min":-14,"x_max":283,"o":"m 283 -158 q 255 -247 283 -217 q 156 -278 226 -278 l -14 -278 l -14 -182 l 169 -182 l 169 600 l 82 600 l 82 694 l 283 694 l 283 -158 m 143 947 l 283 947 l 283 807 l 143 807 l 143 947 z "},"љ":{"ha":1092,"x_min":35,"x_max":1013,"o":"m 724 694 l 724 596 l 631 596 l 631 319 l 861 465 q 928 486 894 486 q 988 460 963 486 q 1013 390 1013 433 l 1013 122 q 997 39 1013 61 q 890 0 967 0 l 431 0 l 431 93 l 521 93 l 521 597 l 436 597 l 258 124 q 205 32 236 64 q 113 0 174 0 l 35 0 l 35 93 l 143 93 l 338 597 l 244 597 l 244 694 l 724 694 m 903 379 l 631 208 l 631 94 l 903 94 l 903 379 z "},"њ":{"ha":1108,"x_min":63,"x_max":1039,"o":"m 467 94 l 547 94 l 547 308 l 258 308 l 258 94 l 339 94 l 339 0 l 63 0 l 63 94 l 151 94 l 151 597 l 63 597 l 63 694 l 339 694 l 339 597 l 258 597 l 258 408 l 547 408 l 547 597 l 467 597 l 467 694 l 750 694 l 750 596 l 657 596 l 657 319 l 888 465 q 955 486 921 486 q 1014 460 989 486 q 1039 390 1039 433 l 1039 122 q 1022 39 1039 61 q 917 0 993 0 l 467 0 l 467 94 m 929 379 l 657 208 l 657 94 l 929 94 l 929 379 z "},"ћ":{"ha":888,"x_min":117,"x_max":825,"o":"m 117 694 l 221 694 l 221 947 l 132 947 l 132 1042 l 335 1042 l 335 694 l 628 694 l 628 600 l 335 600 l 335 442 l 575 442 q 689 413 650 442 q 735 289 735 376 l 735 94 l 825 94 l 825 0 l 539 0 l 539 94 l 626 94 l 626 349 l 335 349 l 335 94 l 422 94 l 422 0 l 133 0 l 133 94 l 221 94 l 221 600 l 117 600 l 117 694 z "},"ќ":{"ha":718,"x_min":63,"x_max":683,"o":"m 399 947 l 497 947 l 351 776 l 250 776 l 399 947 m 63 600 l 151 600 l 151 94 l 63 94 l 63 0 l 346 0 l 346 94 l 263 94 l 263 350 l 564 0 l 683 0 l 683 94 l 611 94 l 379 368 l 606 600 l 682 600 l 682 694 l 574 694 l 257 383 l 257 600 l 346 600 l 346 694 l 63 694 l 63 600 z "},"ў":{"ha":735,"x_min":35,"x_max":707,"o":"m 707 694 l 707 600 l 624 600 l 379 -224 q 334 -315 361 -283 q 246 -347 307 -347 l 158 -347 l 158 -254 l 267 -254 l 329 -40 l 119 600 l 35 600 l 35 694 l 288 694 l 288 600 l 222 600 l 378 125 l 519 600 l 453 600 l 453 694 l 707 694 m 581 968 q 518 817 581 878 q 368 756 454 756 q 217 818 279 756 q 154 968 154 881 l 228 968 q 269 872 228 913 q 368 831 310 831 q 466 872 425 831 q 507 968 507 913 l 581 968 z "},"џ":{"ha":838,"x_min":82,"x_max":771,"o":"m 278 97 l 574 97 l 574 600 l 493 600 l 493 694 l 771 694 l 771 600 l 682 600 l 682 97 l 771 97 l 771 0 l 476 0 l 476 -186 l 376 -186 l 376 0 l 82 0 l 82 97 l 171 97 l 171 600 l 82 600 l 82 694 l 358 694 l 358 600 l 278 600 l 278 97 z "},"Ґ":{"ha":719,"x_min":83,"x_max":685,"o":"m 285 94 l 375 94 l 375 0 l 83 0 l 83 94 l 171 94 l 171 947 l 83 947 l 83 1042 l 589 1042 l 589 1208 l 685 1208 l 685 947 l 285 947 l 285 94 z "},"ґ":{"ha":614,"x_min":69,"x_max":579,"o":"m 69 93 l 160 93 l 160 596 l 69 596 l 69 694 l 482 694 l 482 824 l 579 824 l 579 596 l 265 596 l 265 93 l 372 93 l 372 0 l 69 0 l 69 93 z "},"Ẁ":{"ha":1161,"x_min":35,"x_max":1126,"o":"m 1126 1042 l 1126 947 l 1060 947 l 911 0 l 731 0 l 581 946 l 431 0 l 250 0 l 101 947 l 35 947 l 35 1042 l 264 1042 l 264 947 l 208 947 l 340 94 l 486 1042 l 675 1042 l 821 94 l 953 947 l 897 947 l 897 1042 l 1126 1042 m 704 1124 l 603 1124 l 457 1294 l 556 1294 l 704 1124 z "},"ẁ":{"ha":1017,"x_min":28,"x_max":989,"o":"m 28 694 l 249 694 l 249 600 l 188 600 l 300 96 l 429 694 l 582 694 l 715 93 l 829 600 l 767 600 l 767 694 l 989 694 l 989 600 l 922 600 l 790 0 l 642 0 l 510 601 l 375 0 l 219 0 q 210 44 219 0 q 185 157 200 90 q 154 301 171 224 q 123 446 138 379 q 97 556 108 513 l 88 600 l 28 600 l 28 694 m 632 776 l 531 776 l 385 947 l 483 947 l 632 776 z "},"Ẃ":{"ha":1161,"x_min":35,"x_max":1126,"o":"m 897 1042 l 897 947 l 953 947 l 821 94 l 675 1042 l 486 1042 l 340 94 l 208 947 l 264 947 l 264 1042 l 35 1042 l 35 947 l 101 947 l 250 0 l 431 0 l 581 946 l 731 0 l 911 0 l 1060 947 l 1126 947 l 1126 1042 l 897 1042 m 606 1294 l 704 1294 l 558 1124 l 457 1124 l 606 1294 z "},"ẃ":{"ha":1017,"x_min":28,"x_max":989,"o":"m 28 600 l 88 600 q 97 556 88 600 q 142 356 114 488 q 185 157 171 224 q 210 44 200 90 l 219 0 l 375 0 l 510 601 l 642 0 l 790 0 l 922 600 l 989 600 l 989 694 l 767 694 l 767 600 l 829 600 l 715 93 l 582 694 l 429 694 l 300 96 l 188 600 l 249 600 l 249 694 l 28 694 l 28 600 m 533 947 l 632 947 l 486 776 l 385 776 l 533 947 z "},"Ẅ":{"ha":1161,"x_min":35,"x_max":1126,"o":"m 1126 1042 l 1126 947 l 1060 947 l 911 0 l 731 0 l 581 946 l 431 0 l 250 0 l 101 947 l 35 947 l 35 1042 l 264 1042 l 264 947 l 208 947 l 340 94 l 486 1042 l 675 1042 l 821 94 l 953 947 l 897 947 l 897 1042 l 1126 1042 m 478 1244 q 491 1244 478 1244 q 520 1226 503 1244 q 538 1182 538 1207 q 520 1140 538 1157 q 478 1122 503 1122 q 435 1140 453 1122 q 418 1182 418 1157 q 436 1226 418 1207 q 478 1244 454 1244 m 684 1244 q 696 1244 684 1244 q 726 1226 708 1244 q 743 1182 743 1207 q 726 1140 743 1157 q 683 1122 708 1122 q 641 1140 658 1122 q 624 1182 624 1157 q 642 1226 624 1207 q 684 1244 660 1244 z "},"ẅ":{"ha":1017,"x_min":28,"x_max":989,"o":"m 28 694 l 249 694 l 249 600 l 188 600 l 300 96 l 429 694 l 582 694 l 715 93 l 829 600 l 767 600 l 767 694 l 989 694 l 989 600 l 922 600 l 790 0 l 642 0 l 510 601 l 375 0 l 219 0 q 210 44 219 0 q 185 157 200 90 q 154 301 171 224 q 123 446 138 379 q 97 556 108 513 l 88 600 l 28 600 l 28 694 m 406 897 q 418 897 406 897 q 448 878 431 897 q 465 835 465 860 q 448 792 465 810 q 406 775 431 775 q 363 792 381 775 q 346 835 346 810 q 364 878 346 860 q 406 897 382 897 m 612 897 q 624 897 612 897 q 653 878 636 897 q 671 835 671 860 q 653 792 671 810 q 611 775 636 775 q 569 792 586 775 q 551 835 551 810 q 569 878 551 860 q 612 897 588 897 z "},"Ỳ":{"ha":772,"x_min":35,"x_max":738,"o":"m 738 1042 l 738 947 l 685 947 l 442 513 l 442 94 l 532 94 l 532 0 l 240 0 l 240 94 l 328 94 l 328 513 l 97 947 l 35 947 l 35 1042 l 260 1042 l 260 947 l 210 947 l 386 608 l 567 947 l 517 947 l 517 1042 l 738 1042 m 510 1124 l 408 1124 l 263 1294 l 361 1294 l 510 1124 z "},"ỳ":{"ha":715,"x_min":56,"x_max":646,"o":"m 646 694 l 646 -185 q 617 -274 646 -243 q 518 -304 589 -304 l 197 -304 l 197 -115 l 292 -115 l 292 -208 l 532 -208 l 532 157 l 288 6 q 224 -14 256 -14 q 168 8 192 -14 q 144 76 144 29 l 144 600 l 56 600 l 56 694 l 257 694 l 257 96 l 533 269 l 533 600 l 465 600 l 465 694 l 646 694 m 481 776 l 379 776 l 233 947 l 332 947 l 481 776 z "},"–":{"ha":839,"x_min":111,"x_max":728,"o":"m 728 583 l 728 492 l 111 492 l 111 583 l 728 583 z "},"—":{"ha":1017,"x_min":111,"x_max":918,"o":"m 918 583 l 918 492 l 111 492 l 111 583 l 918 583 z "},"‘":{"ha":246,"x_min":3,"x_max":210,"o":"m 104 708 l 3 708 l 107 1042 l 210 1042 l 104 708 z "},"’":{"ha":246,"x_min":3,"x_max":210,"o":"m 104 708 l 3 708 l 107 1042 l 210 1042 l 104 708 z "},"‚":{"ha":263,"x_min":14,"x_max":221,"o":"m 115 -207 l 14 -207 l 118 126 l 221 126 l 115 -207 z "},"“":{"ha":476,"x_min":3,"x_max":456,"o":"m 104 708 l 3 708 l 107 1042 l 210 1042 l 104 708 m 350 708 l 249 708 l 353 1042 l 456 1042 l 350 708 z "},"”":{"ha":476,"x_min":3,"x_max":456,"o":"m 104 708 l 3 708 l 107 1042 l 210 1042 l 104 708 m 350 708 l 249 708 l 353 1042 l 456 1042 l 350 708 z "},"„":{"ha":508,"x_min":14,"x_max":467,"o":"m 115 -208 l 14 -208 l 118 125 l 221 125 l 115 -208 m 361 -208 l 260 -208 l 364 125 l 467 125 l 361 -208 z "},"†":{"ha":763,"x_min":56,"x_max":707,"o":"m 435 -274 l 329 -274 l 329 583 l 56 583 l 56 676 l 329 676 l 329 1042 l 435 1042 l 435 676 l 707 676 l 707 583 l 435 583 l 435 -274 z "},"‡":{"ha":763,"x_min":56,"x_max":707,"o":"m 435 83 l 435 -274 l 329 -274 l 329 83 l 56 83 l 56 178 l 329 178 l 329 583 l 56 583 l 56 676 l 329 676 l 329 1042 l 435 1042 l 435 676 l 707 676 l 707 583 l 435 583 l 435 178 l 707 178 l 707 83 l 435 83 z "},"•":{"ha":575,"x_min":121,"x_max":475,"o":"m 121 531 q 135 599 121 567 q 172 656 149 632 q 301 708 228 708 q 424 656 374 708 q 475 531 475 603 q 424 403 475 457 q 300 350 374 350 q 175 403 225 350 q 121 531 121 458 z "},"…":{"ha":846,"x_min":56,"x_max":790,"o":"m 127 138 q 141 138 127 138 q 176 115 156 138 q 196 64 196 93 q 176 15 196 35 q 126 -6 156 -6 q 76 15 97 -6 q 56 64 56 35 q 77 115 56 93 q 127 138 99 138 m 424 138 q 439 138 424 138 q 473 115 453 138 q 493 64 493 93 q 473 15 493 35 q 424 -6 453 -6 q 374 15 394 -6 q 353 64 353 35 q 374 115 353 93 q 424 138 396 138 m 722 138 q 736 138 722 138 q 770 115 750 138 q 790 64 790 93 q 770 15 790 35 q 721 -6 750 -6 q 671 15 692 -6 q 650 64 650 35 q 672 115 650 93 q 722 138 693 138 z "},"‰":{"ha":1639,"x_min":83,"x_max":1556,"o":"m 461 610 q 457 526 461 560 q 436 472 453 492 q 306 435 407 435 l 250 435 q 117 464 150 435 q 83 593 83 494 l 83 892 q 117 1021 83 988 q 242 1053 150 1053 l 292 1053 q 432 1017 399 1053 q 461 875 461 983 l 461 610 m 364 524 l 364 961 l 183 961 l 183 524 l 364 524 m 889 615 q 1032 581 1000 615 q 1063 438 1063 546 l 1063 171 q 1058 88 1063 121 q 1036 36 1053 56 q 903 0 1007 0 l 850 0 q 717 31 750 0 q 682 160 682 61 l 682 460 q 717 583 682 549 q 842 615 750 615 l 889 615 m 964 529 l 783 529 l 783 92 l 964 92 l 964 529 m 738 1208 l 844 1208 l 383 -210 l 275 -210 l 738 1208 m 1382 615 q 1525 581 1493 615 q 1556 438 1556 546 l 1556 171 q 1551 88 1556 121 q 1529 36 1546 56 q 1396 0 1500 0 l 1343 0 q 1210 31 1243 0 q 1175 160 1175 61 l 1175 460 q 1211 583 1175 549 q 1335 615 1243 615 l 1382 615 m 1457 529 l 1276 529 l 1276 92 l 1457 92 l 1457 529 z "},"‹":{"ha":349,"x_min":42,"x_max":335,"o":"m 335 158 l 258 101 l 42 375 l 256 669 l 335 614 l 158 375 l 335 158 z "},"›":{"ha":349,"x_min":14,"x_max":307,"o":"m 14 613 l 90 669 l 307 396 l 93 101 l 14 157 l 190 396 l 14 613 z "},"₣":{"ha":811,"x_min":86,"x_max":742,"o":"m 178 676 l 178 947 l 90 947 l 90 1042 l 742 1042 l 742 785 l 647 785 l 647 947 l 292 947 l 292 676 l 493 676 l 493 585 l 292 585 l 292 492 l 490 492 l 490 400 l 292 400 l 292 94 l 382 94 l 382 0 l 90 0 l 90 94 l 178 94 l 178 400 l 86 400 l 86 492 l 178 492 l 178 585 l 89 585 l 89 676 l 178 676 z "},"₤":{"ha":738,"x_min":46,"x_max":665,"o":"m 167 440 l 167 594 l 46 594 l 46 694 l 167 694 l 167 897 q 197 1009 167 976 q 290 1042 228 1042 l 460 1042 l 460 947 l 275 947 l 275 694 l 442 694 l 442 594 l 275 594 l 275 440 l 447 440 l 447 349 l 275 349 l 275 94 l 571 94 l 571 257 l 665 257 l 665 0 l 46 0 l 46 94 l 167 94 l 167 349 l 47 349 l 47 440 l 167 440 z "},"€":{"ha":785,"x_min":56,"x_max":715,"o":"m 56 696 l 139 696 l 139 892 q 210 1028 139 993 q 275 1042 236 1042 l 715 1042 l 715 854 l 621 854 l 621 947 l 253 947 l 253 696 l 597 696 l 597 603 l 253 603 l 253 454 l 597 454 l 597 361 l 253 361 l 253 94 l 621 94 l 621 183 l 715 183 l 715 0 l 289 0 q 147 92 172 0 q 139 149 139 118 l 139 361 l 56 361 l 56 454 l 139 454 l 139 603 l 56 603 l 56 696 z "},"№":{"ha":1418,"x_min":90,"x_max":1324,"o":"m 908 947 l 821 947 l 821 0 l 685 0 l 292 811 l 292 94 l 382 94 l 382 0 l 90 0 l 90 94 l 178 94 l 178 947 l 90 947 l 90 1042 l 304 1042 l 707 214 l 707 947 l 617 947 l 617 1042 l 908 1042 l 908 947 m 1150 696 q 1293 661 1261 696 q 1324 518 1324 626 l 1324 397 q 1319 315 1324 347 q 1297 261 1314 282 q 1164 226 1268 226 l 1111 226 q 978 256 1011 226 q 943 386 943 288 l 943 540 q 978 664 943 629 q 1103 696 1011 696 l 1150 696 m 1225 610 l 1044 610 l 1044 318 l 1225 318 l 1225 610 m 942 158 l 1321 158 l 1321 65 l 942 65 l 942 158 z "},"™":{"ha":1053,"x_min":28,"x_max":1025,"o":"m 100 658 l 171 658 l 171 964 l 106 964 l 106 879 l 28 879 l 28 1042 l 400 1042 l 400 879 l 325 879 l 325 964 l 257 964 l 257 658 l 328 658 l 328 583 l 100 583 l 100 658 m 1025 583 l 822 583 l 822 658 l 883 658 l 883 939 l 763 694 l 707 694 l 588 936 l 588 658 l 650 658 l 650 583 l 447 583 l 447 658 l 507 658 l 507 967 l 447 967 l 447 1042 l 621 1042 l 736 814 l 851 1042 l 1025 1042 l 1025 967 l 967 967 l 967 658 l 1025 658 l 1025 583 z "},"≤":{"ha":751,"x_min":83,"x_max":710,"o":"m 83 581 l 83 686 l 710 988 l 710 892 l 185 633 l 710 374 l 710 278 l 83 581 m 83 193 l 708 193 l 708 101 l 83 101 l 83 193 z "},"≥":{"ha":751,"x_min":83,"x_max":710,"o":"m 83 278 l 83 374 l 608 633 l 83 892 l 83 988 l 710 686 l 710 581 l 83 278 m 710 101 l 85 101 l 85 193 l 710 193 l 710 101 z "},"":{"ha":253,"x_min":-56,"x_max":192,"o":"m 93 -104 l 192 -104 l 46 -275 l -56 -275 l 93 -104 z "}}}
